<svg width="81" height="120" viewBox="0 0 81 120" fill="none" xmlns="http://www.w3.org/2000/svg">
<g opacity="0.5">
<path d="M12.6562 65.0156V84.478L16.8597 87.8875L17.1904 87.6507L28.9035 78.18L12.6562 65.0156ZM15.0178 69.9878L25.1251 78.18L16.8597 84.8568L15.0178 83.3415V69.9878Z" fill="white"/>
<path d="M31.1702 78.7488L30.4145 79.3644L18.418 89.1193H42.5054L43.2611 88.5037L44.0168 87.8881L68.3876 68.189V48.7266L31.9731 78.1806L31.1702 78.7488ZM65.9789 53.6514V67.0525L42.5054 86.0413L41.7497 86.6569L41.6553 86.7516H25.1247L31.9731 81.2112L32.7288 80.5956L33.4844 79.98L65.9789 53.6514Z" fill="white"/>
<path d="M17.2376 63.2635L28.9507 53.7928L12.6562 40.6758V60.1382L16.8597 63.5476L17.2376 63.2635ZM15.0178 59.0017V45.6006L25.1251 53.7928L16.8597 60.4696L15.0178 59.0017Z" fill="#7B53C1"/>
<path d="M31.1702 54.4095L30.4145 55.0251L18.418 64.7326H42.5054L43.2611 64.117L44.0168 63.5014L68.3876 43.8022V24.3398L31.9731 53.7939L31.1702 54.4095ZM65.9789 29.312V42.7131L42.5054 61.702L41.7497 62.3176L41.6553 62.4123H25.1247L31.9258 56.9192L32.6815 56.3036L33.4372 55.688L65.9789 29.312Z" fill="#7B53C1"/>
<path d="M17.2376 38.9242L28.9507 29.4534L12.6562 16.2891V35.7515L16.8597 39.1609L17.2376 38.9242ZM15.0178 21.2612L25.1251 29.4534L16.907 36.1303L15.065 34.615V21.2612H15.0178Z" fill="white"/>
<path d="M31.9258 29.454L31.1702 30.0696L30.4145 30.6852L18.418 40.3928H42.5054L43.2611 39.7772L44.0168 39.1616L68.3876 19.4624V0L31.9258 29.454ZM65.9789 18.3259L42.5054 37.3148L41.7497 37.9304L41.6553 38.0251H25.1247L31.9258 32.4847L32.6815 31.8691L33.4372 31.2535L65.9789 4.92479V18.3259Z" fill="white"/>
<path d="M1.36932 110.287C1.7944 110.714 2.31393 111.045 2.88069 111.234C3.44746 111.471 4.10868 111.566 4.81714 111.566C5.47836 111.566 6.09236 111.424 6.70635 111.187C7.32034 110.95 7.79265 110.524 8.21772 109.956L6.89527 109.009C6.61189 109.388 6.28128 109.672 5.90344 109.861C5.57282 110.051 5.19498 110.145 4.81714 110.145C4.34483 110.145 3.91976 110.051 3.54192 109.909C3.16408 109.719 2.83346 109.482 2.55008 109.198C2.2667 108.914 2.07778 108.535 1.93609 108.109C1.7944 107.683 1.69994 107.257 1.69994 106.736C1.69994 106.262 1.7944 105.836 1.93609 105.457C2.07778 105.078 2.31393 104.7 2.55008 104.416C2.83346 104.131 3.16408 103.895 3.54192 103.705C3.91976 103.516 4.34483 103.468 4.81714 103.468C5.14775 103.468 5.43113 103.516 5.76174 103.658C6.09236 103.8 6.37574 104.037 6.75358 104.368L8.0288 103.421C7.5565 102.9 7.08419 102.521 6.56466 102.285C6.04513 102.048 5.47836 101.953 4.86437 101.953C4.15591 101.953 3.49469 102.048 2.92792 102.285C2.36116 102.521 1.84163 102.853 1.41655 103.279C0.991482 103.705 0.660869 104.226 0.424718 104.794C0.188566 105.41 0.046875 106.073 0.046875 106.783C0.046875 107.494 0.188566 108.156 0.424718 108.725C0.613639 109.388 0.944251 109.861 1.36932 110.287Z" fill="#7B53C1"/>
<path d="M12.7525 110.287C13.1776 110.714 13.6971 111.045 14.2639 111.234C14.8306 111.471 15.4918 111.566 16.2003 111.566C16.9088 111.566 17.57 111.424 18.1367 111.187C18.7507 110.95 19.223 110.619 19.6481 110.193C20.0732 109.766 20.4038 109.246 20.64 108.677C20.8761 108.109 21.0178 107.446 21.0178 106.736C21.0178 106.026 20.8761 105.363 20.64 104.747C20.4038 104.131 20.0732 103.658 19.6481 103.232C19.223 102.805 18.7035 102.474 18.1367 102.285C17.5228 102.048 16.9088 101.953 16.2003 101.953C15.4918 101.953 14.8306 102.048 14.2639 102.285C13.6971 102.521 13.1776 102.853 12.7525 103.279C12.3274 103.705 11.9968 104.226 11.7607 104.794C11.5245 105.41 11.3828 106.073 11.3828 106.783C11.3828 107.494 11.5245 108.156 11.7607 108.725C11.9968 109.388 12.3274 109.861 12.7525 110.287ZM13.3193 105.457C13.4609 105.078 13.6971 104.7 13.9332 104.416C14.2166 104.131 14.5472 103.895 14.9251 103.705C15.3029 103.516 15.728 103.468 16.2003 103.468C16.6726 103.468 17.0977 103.563 17.4755 103.705C17.8534 103.895 18.184 104.084 18.4674 104.416C18.7507 104.7 18.9397 105.078 19.0814 105.457C19.223 105.836 19.3175 106.262 19.3175 106.736C19.3175 107.209 19.223 107.683 19.0814 108.109C18.9397 108.535 18.7035 108.867 18.4674 109.198C18.184 109.482 17.8534 109.719 17.4755 109.909C17.0977 110.098 16.6726 110.145 16.2003 110.145C15.728 110.145 15.3029 110.051 14.9251 109.909C14.5472 109.719 14.2166 109.482 13.9332 109.198C13.6499 108.914 13.4609 108.535 13.3193 108.109C13.1776 107.683 13.0831 107.257 13.0831 106.736C13.0831 106.262 13.1303 105.836 13.3193 105.457Z" fill="#7B53C1"/>
<path d="M34.9958 111.376V102.236H32.5398L30.0838 108.629L27.6279 102.236H25.1719V111.376H26.7305V103.799L29.5171 111.376H30.6506L33.3899 103.799H33.4372V111.376H34.9958Z" fill="#7B53C1"/>
<path d="M41.2315 107.589H42.3651C42.8374 107.589 43.3097 107.541 43.7348 107.494C44.1598 107.447 44.5849 107.305 44.9155 107.115C45.2461 106.926 45.5295 106.642 45.7184 106.31C45.9074 105.979 46.0018 105.505 46.0018 104.937C46.0018 104.416 45.9074 103.99 45.7184 103.658C45.5295 103.327 45.2934 103.043 44.9627 102.853C44.6321 102.664 44.3015 102.522 43.8764 102.427C43.4514 102.333 43.0263 102.285 42.6012 102.285H39.5312V111.424H41.1371V107.589H41.2315ZM41.2315 103.611H42.3651C42.6012 103.611 42.7901 103.611 43.0263 103.658C43.2624 103.706 43.4514 103.753 43.6403 103.848C43.8292 103.943 43.9709 104.085 44.1126 104.227C44.2543 104.416 44.3015 104.605 44.3015 104.89C44.3015 105.221 44.2543 105.458 44.1126 105.6C43.9709 105.789 43.8292 105.884 43.5931 105.979C43.4041 106.073 43.168 106.121 42.8846 106.121C42.6485 106.121 42.4123 106.168 42.1762 106.168H41.1843V103.611H41.2315Z" fill="#7B53C1"/>
<path d="M53.4663 102.236H52.0494L48.082 111.376H49.8768L50.6797 109.292H54.647L55.4972 111.376H57.3392L53.4663 102.236ZM51.2937 107.871L52.7106 104.178L54.1275 107.871H51.2937Z" fill="#7B53C1"/>
<path d="M69.1439 111.376V102.236H67.538V109.008H67.4908L63.0984 102.236H60.9258V111.376H62.5788V104.367L67.113 111.376H69.1439Z" fill="#7B53C1"/>
<path d="M75.9947 111.376H77.6005V107.445L81.0011 102.236H79.1119L76.8448 105.883L74.5778 102.236H72.5469L75.9947 107.445V111.376Z" fill="#7B53C1"/>
<path d="M1.13353 115.353H0V114.785H2.92828V115.353H1.79475V118.952H1.13353V115.353Z" fill="#7B53C1"/>
<path d="M9.21095 118.054H7.60512L7.27451 119.001H6.61328L8.12465 114.834H8.64418L10.1556 119.001H9.49433L9.21095 118.054ZM9.02203 117.486L8.40803 115.639L7.79404 117.486H9.02203Z" fill="#7B53C1"/>
<path d="M15.9638 116.68H17.4752V117.533C17.4752 117.959 17.3335 118.29 17.0501 118.574C16.7667 118.859 16.4361 119.001 16.011 119.001C15.6804 119.001 15.397 118.906 15.2081 118.764C14.9719 118.622 14.8303 118.432 14.7358 118.243C14.6886 118.196 14.6886 118.101 14.6413 118.054C14.6413 118.006 14.5941 117.911 14.5941 117.817C14.5469 117.627 14.5469 117.343 14.5469 116.822C14.5469 116.349 14.5469 116.017 14.5941 115.828C14.6413 115.686 14.6886 115.544 14.7358 115.449C14.8303 115.26 15.0192 115.07 15.2081 114.928C15.4443 114.786 15.6804 114.691 16.011 114.691C16.4361 114.691 16.7195 114.833 17.0029 115.07C17.239 115.307 17.4279 115.591 17.4752 115.97H16.8139C16.7667 115.781 16.6722 115.638 16.5305 115.544C16.3889 115.449 16.1999 115.354 16.011 115.354C15.8693 115.354 15.7276 115.402 15.6332 115.449C15.5387 115.496 15.4443 115.591 15.3498 115.686C15.2553 115.781 15.2081 115.875 15.2081 116.017C15.1609 116.159 15.1609 116.443 15.1609 116.87C15.1609 117.296 15.1609 117.58 15.2081 117.722C15.2553 117.864 15.3026 118.006 15.3498 118.054C15.397 118.148 15.4915 118.196 15.6332 118.243C15.7276 118.29 15.8693 118.338 16.011 118.338C16.2472 118.338 16.4833 118.243 16.625 118.101C16.7667 117.959 16.8612 117.722 16.8612 117.485V117.249H16.011V116.68H15.9638Z" fill="#7B53C1"/>
<path d="M22.7656 114.785H23.3796V118.384H25.4105V119H22.7656V114.785Z" fill="#7B53C1"/>
<path d="M30.1328 114.785H30.7468V118.952H30.1328V114.785Z" fill="#7B53C1"/>
<path d="M35.7539 114.785H36.3679L38.2571 117.768V114.785H38.8711V118.952H38.2571L36.3679 115.969V118.952H35.7539V114.785Z" fill="#7B53C1"/>
<path d="M43.875 114.785H46.5199V115.401H44.489V116.585H46.2365V117.153H44.489V118.384H46.5199V119H43.875V114.785Z" fill="#7B53C1"/>
<path d="M56.2983 117.154H54.6452V119.001H54.0312V114.834H54.6452V116.633H56.2983V114.834H56.9123V119.001H56.2983V117.154Z" fill="#7B53C1"/>
<path d="M63.1953 114.785H65.8402V115.401H63.8093V116.585H65.5568V117.153H63.8093V118.384H65.8402V119H63.1953V114.785Z" fill="#7B53C1"/>
<path d="M70.5625 114.785H72.2156C72.5462 114.785 72.8296 114.88 73.0657 115.069C73.3491 115.259 73.4908 115.59 73.4908 115.969C73.4908 116.537 73.2074 116.916 72.6879 117.153L73.6797 119H72.924L72.0739 117.2H71.271V119H70.657V114.785H70.5625ZM71.1765 116.632H72.1211C72.3573 116.632 72.5462 116.537 72.6406 116.443C72.7351 116.3 72.8296 116.158 72.8296 115.969C72.8296 115.732 72.7351 115.59 72.6406 115.495C72.5462 115.401 72.3573 115.353 72.1683 115.353H71.1765V116.632Z" fill="#7B53C1"/>
<path d="M78.2148 114.785H80.8597V115.401H78.8761V116.585H80.6236V117.153H78.8761V118.384H80.907V119H78.2621V114.785H78.2148Z" fill="#7B53C1"/>
</g>
</svg>
