<svg width="112" height="122" viewBox="0 0 112 122" fill="none" xmlns="http://www.w3.org/2000/svg">
<g opacity="0.5">
<path d="M33.8483 30.3787H35.473V32.0003V56.9733L42.8386 49.6219V23.0273H17.1133V75.2976L24.4789 67.9463V32.0003V30.3787H26.1036H33.8483Z" fill="#7B53C1"/>
<path d="M62.8238 59.2967H64.4485V60.9183V68.648V70.2696H62.8238H30.4911L23.1797 77.621H71.76V51.9453H48.905L41.5395 59.2967H62.8238Z" fill="white"/>
<path d="M87.5195 29.1898V30.8114H85.8947H70.0804L62.7148 38.1628H94.885V6.05469L87.5195 13.406V29.1898Z" fill="#7B53C1"/>
<path d="M85.19 7.35135L92.5556 0H56.6484V35.8378L64.014 28.4865V8.97297V7.35135H65.6388H85.19Z" fill="white"/>
<path d="M0 117.676H1.35397V121.946H2.11219V117.676H3.46615V117.027H0V117.676Z" fill="#7B53C1"/>
<path d="M10.4537 120.865H12.3493L12.7284 122H13.5408L11.7535 117.027H11.1036L9.31641 122H10.1288L10.4537 120.865ZM11.3744 118L12.1327 120.162H10.6704L11.3744 118Z" fill="#7B53C1"/>
<path d="M21.0129 118.053C21.067 117.945 21.1753 117.891 21.3378 117.783C21.4461 117.729 21.6086 117.675 21.7711 117.675C21.9877 117.675 22.2043 117.729 22.3668 117.891C22.5293 118.053 22.6376 118.215 22.6918 118.377H23.5042C23.45 117.945 23.2334 117.621 22.9084 117.35C22.5835 117.08 22.2043 116.918 21.7169 116.918C21.3378 116.918 21.0129 117.026 20.7421 117.188C20.4713 117.35 20.3088 117.567 20.1463 117.783C20.0922 117.891 20.038 118.053 19.9838 118.269C19.9297 118.486 19.9297 118.864 19.9297 119.404C19.9297 119.999 19.9297 120.377 19.9838 120.54C19.9838 120.648 20.038 120.756 20.038 120.81C20.0922 120.864 20.0922 120.972 20.1463 121.026C20.2546 121.242 20.4713 121.459 20.7421 121.621C21.0129 121.783 21.3378 121.891 21.7169 121.891C22.2043 121.891 22.6376 121.729 22.9626 121.35C23.2875 121.026 23.45 120.594 23.45 120.107V119.08H21.6628V119.783H22.6918V120.053C22.6918 120.377 22.5835 120.594 22.421 120.81C22.2043 121.026 21.9877 121.134 21.7169 121.134C21.5544 121.134 21.392 121.08 21.2837 121.026C21.1753 120.972 21.067 120.864 20.9587 120.756C20.8504 120.648 20.7962 120.486 20.7421 120.323C20.6879 120.161 20.6879 119.837 20.6879 119.35C20.6879 118.864 20.6879 118.54 20.7421 118.377C20.8504 118.323 20.9587 118.161 21.0129 118.053Z" fill="#7B53C1"/>
<path d="M31.4141 117.027V121.946H34.6094V121.244H32.1723V117.027H31.4141Z" fill="#7B53C1"/>
<path d="M42.352 117.027H41.5938V122H42.352V117.027Z" fill="#7B53C1"/>
<path d="M52.6433 120.541L50.4228 117.027H49.7188V121.946H50.4228V118.433H50.477L52.6975 121.946H53.4015V117.027H52.6433V120.541Z" fill="#7B53C1"/>
<path d="M63.961 117.73V117.027H60.7656V121.946H63.961V121.244H61.5238V119.784H63.5819V119.135H61.5238V117.73H63.961Z" fill="#7B53C1"/>
<path d="M80.6966 121.946V117.027H79.9384V119.135H77.9887V117.027H77.2305V121.946H77.9887V119.784H79.9384V121.946H80.6966Z" fill="#7B53C1"/>
<path d="M91.2032 117.73V117.027H88.0078V121.946H91.2032V121.244H88.766V119.784H90.8782V119.135H88.766V117.73H91.2032Z" fill="#7B53C1"/>
<path d="M101.654 118.378C101.654 117.946 101.491 117.567 101.166 117.297C100.895 117.081 100.57 116.973 100.137 116.973H98.1875V121.946H98.9457V119.838H99.9206L100.95 121.946H101.87L100.733 119.729C101.329 119.513 101.654 119.081 101.654 118.378ZM100.733 118.919C100.57 119.081 100.354 119.135 100.083 119.189H98.9457V117.675H100.137C100.354 117.675 100.57 117.729 100.679 117.838C100.841 117.946 100.95 118.162 100.95 118.378C100.95 118.594 100.841 118.81 100.733 118.919Z" fill="#7B53C1"/>
<path d="M108.75 121.946H111.945V121.244H109.508V119.784H111.566V119.135H109.508V117.73H111.945V117.027H108.75V121.946Z" fill="#7B53C1"/>
<path d="M7.14894 107.73C6.76983 108.486 6.11992 108.865 5.25338 108.865C4.38685 108.865 3.73694 108.594 3.24952 108.054C2.76209 107.513 2.4913 106.811 2.4913 105.892C2.4913 104.973 2.76209 104.27 3.24952 103.73C3.73694 103.189 4.44101 102.919 5.25338 102.919C6.11992 102.919 6.71567 103.297 7.14894 104.054H10.1277C9.80271 102.973 9.1528 102.162 8.28627 101.567C7.41973 100.973 6.39072 100.648 5.25338 100.648C3.7911 100.648 2.54545 101.135 1.51644 102.108C0.487427 103.135 0 104.432 0 105.946C0 107.459 0.487427 108.702 1.51644 109.675C2.54545 110.648 3.7911 111.135 5.25338 111.135C6.39072 111.135 7.41973 110.811 8.28627 110.216C9.1528 109.621 9.80271 108.757 10.1277 107.73H7.14894Z" fill="#7B53C1"/>
<path d="M27.5146 105.947C27.5146 104.433 27.0272 103.19 25.9981 102.217C24.9691 101.244 23.7235 100.758 22.2612 100.758C20.7989 100.758 19.5533 101.244 18.5243 102.217C17.4952 103.19 17.0078 104.433 17.0078 105.947C17.0078 107.461 17.4952 108.704 18.5243 109.731C19.5533 110.704 20.7989 111.244 22.2612 111.244C23.7235 111.244 24.9691 110.758 25.9981 109.731C27.0272 108.704 27.5146 107.461 27.5146 105.947ZM24.2109 108.055C23.7235 108.596 23.0736 108.866 22.2612 108.866C21.4488 108.866 20.7989 108.596 20.3115 108.055C19.8241 107.515 19.5533 106.812 19.5533 105.893C19.5533 104.974 19.8241 104.271 20.3115 103.731C20.7989 103.19 21.4488 102.92 22.2612 102.92C23.0736 102.92 23.7235 103.19 24.2109 103.731C24.6983 104.271 24.9691 104.974 24.9691 105.893C24.9691 106.812 24.7525 107.515 24.2109 108.055Z" fill="#7B53C1"/>
<path d="M46.5743 100.811H43.7039L40.7794 107.892L37.8548 100.811H34.9844V111.081H37.4757V105.297L39.8587 111.081H41.7L44.083 105.297V111.081H46.5743V100.811Z" fill="#7B53C1"/>
<path d="M57.1364 107.081H58.707C59.411 107.081 60.0609 106.973 60.5483 106.756C61.0899 106.54 61.469 106.27 61.7398 105.946C62.2273 105.297 62.4981 104.648 62.4981 103.946C62.4981 103.081 62.1731 102.324 61.5232 101.729C60.8733 101.135 59.9526 100.811 58.7611 100.811H54.6992V111.027H57.1905V107.081H57.1364ZM57.1364 102.756H58.707C59.0861 102.756 59.3569 102.865 59.5735 103.081C59.7901 103.297 59.8984 103.621 59.8984 104C59.8984 104.378 59.7901 104.648 59.5735 104.865C59.3569 105.081 59.0319 105.189 58.6528 105.189H57.0822V102.756H57.1364Z" fill="#7B53C1"/>
<path d="M72.0308 109.351H75.7136L76.3093 111.081H78.9631L75.3886 100.811H72.3557L68.7812 111.081H71.435L72.0308 109.351ZM73.8722 103.784L75.0636 107.405H72.6265L73.8722 103.784Z" fill="#7B53C1"/>
<path d="M95.2114 111.081V100.811H92.7201V107.243L88.5499 100.811H86.0586V111.081H88.5499V104.594L92.7201 111.081H95.2114Z" fill="#7B53C1"/>
<path d="M107.18 105.459L105.23 100.811H102.414L105.934 107.784V111.081H108.426V107.784L112 100.811H109.13L107.18 105.459Z" fill="#7B53C1"/>
</g>
</svg>
