<svg width="110" height="122" viewBox="0 0 110 122" fill="none" xmlns="http://www.w3.org/2000/svg">
<path d="M1.79903 110.54C2.38107 111.068 3.06893 111.49 3.86262 111.807C4.65631 112.124 5.50291 112.23 6.45534 112.23C7.35485 112.23 8.20146 112.071 8.99515 111.702C9.78884 111.385 10.4767 110.804 11.0058 110.064L9.2068 108.797C8.78349 109.325 8.36019 109.695 7.88398 109.906C7.40777 110.117 6.93155 110.276 6.45534 110.276C5.82039 110.276 5.23835 110.17 4.70922 109.959C4.1801 109.748 3.7568 109.431 3.38641 109.008C3.01602 108.639 2.75146 108.163 2.53981 107.582C2.32816 107.054 2.22233 106.473 2.22233 105.787C2.22233 105.206 2.32816 104.625 2.53981 104.097C2.75146 103.568 3.01602 103.146 3.38641 102.723C3.80971 102.459 4.23301 102.195 4.76214 101.931C5.29126 101.72 5.8733 101.614 6.50825 101.614C6.93155 101.614 7.35485 101.667 7.77816 101.826C8.20146 101.984 8.62476 102.301 9.10097 102.776L10.7942 101.561C10.1592 100.875 9.52427 100.4 8.83641 100.083C8.14854 99.8186 7.35485 99.6602 6.50825 99.6602C5.55583 99.6602 4.70922 99.8186 3.91553 100.083C3.12184 100.4 2.43398 100.822 1.85194 101.35C1.2699 101.878 0.846602 102.565 0.529126 103.357C0.158738 104.202 0 105.1 0 106.051C0 107.001 0.158738 107.846 0.476214 108.586C0.793689 109.378 1.2699 110.012 1.79903 110.54Z" fill="#7B53C1"/>
<path d="M21.7483 112.283C22.7007 112.283 23.6002 112.124 24.3939 111.807C25.1876 111.49 25.8755 111.068 26.4575 110.54C27.0396 110.012 27.4629 109.325 27.7803 108.586C28.0978 107.793 28.2566 106.948 28.2566 106.05C28.2566 105.1 28.0978 104.202 27.7803 103.463C27.4629 102.67 26.9867 102.037 26.4575 101.456C25.8755 100.928 25.1876 100.505 24.3939 100.188C23.6002 99.9241 22.7007 99.7656 21.7483 99.7656C20.7959 99.7656 19.9493 99.9241 19.1556 100.188C18.3619 100.505 17.674 100.928 17.092 101.456C16.51 101.984 16.0867 102.67 15.7692 103.463C15.4517 104.255 15.293 105.1 15.293 106.05C15.293 107.001 15.4517 107.846 15.7692 108.586C16.0867 109.378 16.5629 110.012 17.092 110.54C17.674 111.068 18.3619 111.49 19.1556 111.807C19.9493 112.124 20.8488 112.283 21.7483 112.283ZM17.8857 107.688C17.674 107.16 17.5682 106.579 17.5682 105.892C17.5682 105.311 17.674 104.73 17.8857 104.202C18.0973 103.674 18.3619 103.251 18.7323 102.829C19.1027 102.459 19.526 102.142 20.0551 101.931C20.5842 101.72 21.1663 101.614 21.8012 101.614C22.4362 101.614 23.0182 101.72 23.5473 101.931C24.0765 102.142 24.4998 102.459 24.8702 102.829C25.2405 103.199 25.5051 103.674 25.7168 104.202C25.9284 104.73 26.0342 105.258 26.0342 105.892C26.0342 106.526 25.9284 107.107 25.7168 107.688C25.5051 108.216 25.2405 108.691 24.8702 109.114C24.4998 109.483 24.0765 109.8 23.5473 110.064C23.0182 110.276 22.4362 110.381 21.8012 110.381C21.1663 110.381 20.5842 110.276 20.0551 110.064C19.526 109.853 19.1027 109.536 18.7323 109.114C18.3619 108.691 18.0973 108.216 17.8857 107.688Z" fill="#7B53C1"/>
<path d="M47.0385 111.965V99.9766H43.7579L40.4774 108.374L37.1968 99.9766H33.8633V111.965H35.9269V102.036H35.9798L39.6837 111.965H41.2181L44.922 102.036H44.9749V111.965H47.0385Z" fill="#7B53C1"/>
<path d="M55.4507 107.001H56.9851C57.6201 107.001 58.255 106.948 58.8371 106.842C59.4191 106.737 59.9482 106.578 60.4245 106.314C60.8478 106.05 61.2181 105.681 61.4827 105.258C61.7473 104.783 61.906 104.202 61.906 103.41C61.906 102.723 61.8002 102.195 61.5356 101.72C61.2711 101.297 60.9536 100.927 60.5303 100.663C60.107 100.399 59.6308 100.188 59.1016 100.082C58.5725 99.9766 57.9905 99.9238 57.4084 99.9238H53.2812V111.965H55.4507V107.001ZM55.4507 101.825H56.9851C57.2497 101.825 57.5672 101.825 57.8847 101.878C58.2021 101.931 58.4667 101.984 58.7313 102.089C58.9958 102.195 59.2075 102.353 59.3662 102.617C59.5249 102.829 59.6308 103.145 59.6308 103.515C59.6308 103.938 59.5249 104.255 59.3662 104.466C59.2075 104.677 58.9429 104.836 58.6783 104.994C58.4138 105.1 58.0963 105.152 57.7788 105.205C57.4613 105.205 57.1439 105.258 56.8264 105.258H55.5036V101.825H55.4507Z" fill="#7B53C1"/>
<path d="M71.9092 99.9766H70.0043L64.6602 111.965H67.0941L68.2053 109.219H73.4966L74.6607 111.965H77.1475L71.9092 99.9766ZM68.9461 107.423L70.8509 102.564L72.7558 107.423H68.9461Z" fill="#7B53C1"/>
<path d="M90.8503 108.902H90.7973L84.8711 99.9766H81.9609V111.965H84.1833V102.776L90.2682 111.965H93.0197V99.9766H90.8503V108.902Z" fill="#7B53C1"/>
<path d="M103.34 104.783L100.324 99.9766H97.625L102.175 106.842V111.965H104.398V106.842L109.001 99.9766H106.408L103.34 104.783Z" fill="#7B53C1"/>
<path d="M15.1875 41.7756L54.3958 4.75309V0.105469L15.1875 37.128V41.7756Z" fill="#7B53C1"/>
<path d="M15.1875 49.0635V53.7111L54.3958 16.6886V12.041L15.1875 49.0635Z" fill="white"/>
<path d="M15.1875 60.9991V65.6467L54.3958 28.5714V23.9766L15.1875 60.9991Z" fill="#7B53C1"/>
<path d="M15.1875 72.9366V77.5314L54.3958 40.5089V35.9141L15.1875 72.9366Z" fill="white"/>
<path d="M54.3958 47.8496L15.1875 84.8721V89.4669L54.3958 52.4444V47.8496Z" fill="#7B53C1"/>
<path d="M93.8155 37.1276L57.5703 2.95703V7.55184L93.8155 41.7752V37.1276Z" fill="white"/>
<path d="M93.8155 49.0651L57.5703 14.8945V19.4893L93.8155 53.7127V49.0651Z" fill="#7B53C1"/>
<path d="M93.8155 61.0006L57.5703 26.8301V31.4249L93.8155 65.6483V61.0006Z" fill="white"/>
<path d="M93.8155 72.9363L57.5703 38.7129V43.3605L93.8155 77.5311V72.9363Z" fill="#7B53C1"/>
<path d="M93.8155 84.8718L57.5703 50.6484V55.2961L93.8155 89.4666V84.8718Z" fill="white"/>
<path d="M54.5004 52.3918V52.339V47.797V47.6914V47.7442L54.4474 47.6914V47.797L54.3945 47.8498V52.4447L54.5004 52.3918Z" fill="white"/>
<path d="M54.4474 35.8086V35.8614L54.3945 35.9142V40.509L54.5004 40.4562V40.4034V35.8614V35.8086H54.4474Z" fill="white"/>
<path d="M54.5004 23.9239V23.8711H54.4474V23.9239L54.3945 23.9767V28.5715L54.5004 28.5187V28.4659V23.9239Z" fill="white"/>
<path d="M54.5004 11.9884V11.9355H54.4474V11.9884L54.3945 12.0412V16.6888L54.5004 16.5832V16.5304V11.9884Z" fill="white"/>
<path d="M54.5004 4.64762V0.0528139V0V0.0528139L54.4474 0V0.0528139L54.3945 0.105628V4.75325L54.5004 4.64762Z" fill="white"/>
<path d="M1.58738 117.142H0V116.402H3.96845V117.142H2.43398V121.948H1.58738V117.142Z" fill="#7B53C1"/>
<path d="M12.4883 120.733H10.3189L9.89561 121.948H8.99609L11.0597 116.402H11.8005L13.8641 121.948H12.9645L12.4883 120.733ZM12.2238 119.994L11.3772 117.564L10.5306 119.994H12.2238Z" fill="#7B53C1"/>
<path d="M21.696 118.885H23.7067V119.994C23.7067 120.575 23.4951 120.997 23.1247 121.367C22.7543 121.737 22.2781 121.948 21.696 121.948C21.2727 121.948 20.9024 121.842 20.5849 121.631C20.2674 121.42 20.0558 121.209 19.9499 120.944C19.897 120.839 19.897 120.786 19.8441 120.68C19.7912 120.628 19.7912 120.522 19.7912 120.364C19.7383 120.152 19.7383 119.73 19.7383 119.096C19.7383 118.462 19.7383 118.04 19.7912 117.828C19.8441 117.617 19.897 117.459 20.0028 117.3C20.1616 117.036 20.3732 116.825 20.6378 116.614C20.9553 116.403 21.3257 116.297 21.749 116.297C22.2781 116.297 22.7543 116.455 23.0718 116.772C23.4422 117.089 23.6538 117.459 23.7067 117.934H22.8072C22.7543 117.723 22.5956 117.512 22.4368 117.353C22.2252 117.195 22.0135 117.142 21.749 117.142C21.5373 117.142 21.3786 117.195 21.2198 117.248C21.0611 117.3 20.9553 117.406 20.8494 117.512C20.7436 117.617 20.6378 117.776 20.6378 117.987C20.5849 118.198 20.5849 118.568 20.5849 119.096C20.5849 119.624 20.5849 119.994 20.6378 120.205C20.6907 120.416 20.7436 120.575 20.8494 120.68C20.9553 120.786 21.0611 120.892 21.2198 120.944C21.3786 121.05 21.5373 121.05 21.749 121.05C22.0664 121.05 22.3839 120.944 22.5956 120.733C22.8072 120.522 22.913 120.258 22.913 119.888V119.624H21.696V118.885Z" fill="#7B53C1"/>
<path d="M32.1719 116.402H33.0185V121.156H35.7699V121.948H32.1719V116.402Z" fill="#7B53C1"/>
<path d="M42.1719 116.402H43.0185V121.948H42.1719V116.402Z" fill="#7B53C1"/>
<path d="M49.7891 116.402H50.5828L53.1755 120.363V116.402H54.0221V121.948H53.2284L50.6886 117.987V121.948H49.842V116.402H49.7891Z" fill="#7B53C1"/>
<path d="M60.8477 116.402H64.4457V117.195H61.6943V118.779H64.0753V119.518H61.6943V121.156H64.4457V121.948H60.8477V116.402Z" fill="#7B53C1"/>
<path d="M75.5064 119.518H73.2841V121.948H72.4375V116.402H73.2841V118.779H75.5064V116.402H76.353V121.948H75.5064V119.518Z" fill="#7B53C1"/>
<path d="M84.8203 116.402H88.4184V117.195H85.7198V118.779H88.1009V119.518H85.7198V121.156H88.4713V121.948H84.8732V116.402H84.8203Z" fill="#7B53C1"/>
<path d="M94.8711 116.402H97.0934C97.5696 116.402 97.94 116.508 98.2575 116.772C98.6279 117.036 98.7866 117.459 98.8395 117.934C98.8395 118.673 98.4692 119.201 97.7284 119.466L99.0512 121.948H98.0459L96.8818 119.571H95.7706V121.948H94.924V116.402H94.8711ZM95.7177 118.832H97.0405C97.358 118.832 97.6226 118.726 97.7813 118.568C97.94 118.409 97.9929 118.198 97.9929 117.934C97.9929 117.67 97.8871 117.459 97.7284 117.3C97.5696 117.195 97.358 117.142 97.0934 117.142H95.7706V118.832H95.7177Z" fill="#7B53C1"/>
<path d="M105.297 116.402H108.895V117.195H106.143V118.779H108.525V119.518H106.143V121.156H108.895V121.948H105.297V116.402Z" fill="#7B53C1"/>
</svg>
