<svg width="20" height="19" viewBox="0 0 20 19" fill="none" xmlns="http://www.w3.org/2000/svg">
<path d="M0.5 5.48469V5.48461C0.499888 4.82122 0.629996 4.16465 0.882526 3.55333C1.13505 2.94202 1.50482 2.38847 1.96984 1.92482C2.43485 1.46119 2.98576 1.09675 3.59018 0.852409C4.19458 0.608076 4.84062 0.488627 5.4906 0.500852L5.49059 0.500998L5.5027 0.500933C6.27963 0.496743 7.0488 0.660275 7.7593 0.980951C8.46983 1.30164 9.10572 1.77229 9.62456 2.36218L10 2.78904L10.3754 2.36218C10.8943 1.77229 11.5302 1.30164 12.2407 0.980951C12.9512 0.660275 13.7204 0.496743 14.4973 0.500933L14.4973 0.50108L14.5094 0.500852C15.1594 0.488627 15.8054 0.608076 16.4098 0.852409C17.0142 1.09675 17.5652 1.46119 18.0302 1.92482C18.4952 2.38847 18.865 2.94202 19.1175 3.55333C19.37 4.16465 19.5001 4.82122 19.5 5.48461V5.48469C19.5 8.00388 18.021 10.2688 15.9988 12.3555C14.9938 13.3926 13.8731 14.3672 12.7691 15.2914C12.453 15.556 12.1371 15.8175 11.8257 16.0753C11.1867 16.6041 10.5664 17.1175 10.0016 17.611C9.41176 17.0907 8.76116 16.5505 8.09149 15.9945C7.80819 15.7593 7.52147 15.5212 7.23449 15.2806C6.13047 14.355 5.00946 13.3817 4.00378 12.3463C1.98048 10.2633 0.5 8.00542 0.5 5.48469Z" fill="white" stroke="#E35757"/>
</svg>
