<svg width="1204" height="488" viewBox="0 0 1920 488" fill="none" xmlns="http://www.w3.org/2000/svg">
<path d="M538.697 94.4554C264.36 94.4554 200.016 5.60995 0 0.601729V5.60995C0 3.94054 0.399035 98.0814 1.99517 488C99.2599 486.498 98.7611 470.471 253.886 445.13C437.941 424.119 598.552 462.258 777.12 462.258C990.105 457.55 1013.55 432.709 1188.13 392.644C1360.71 359.99 1492.39 373.513 1659.49 375.516C1771.11 376.854 1857.29 363.992 1919.5 351.742L1920 5.15652C1870.28 3.79229 1822 -1.82729 1748.27 0.601729C1595.14 9.94068 1618.58 26.2437 1455.98 29.7495C1285.39 31.6526 1221.05 13.4227 1147.72 17.7298C1054.95 15.0254 728.737 95.1566 538.697 94.4554Z" fill="white"/>
</svg>
