<svg width="1203" height="2116" viewBox="0 0 1920 2116" fill="none" xmlns="http://www.w3.org/2000/svg">
<path d="M1071.41 78.5436C978.421 66.6633 651.445 418.673 460.959 415.593C225.477 415.593 144.355 129.369 0 33.3285V2115.2C39.1046 2083.73 74.2025 2028.59 175.481 1956.07C359.967 1863.78 520.955 2031.32 699.942 2031.32C913.426 2010.64 936.924 1901.51 1111.91 1725.51C1284.9 1582.06 1416.89 1641.47 1584.38 1650.27C1751.86 1659.07 1862.19 1528.09 1920.35 1475.58C1922.35 1347.98 1925.15 876.901 1920.35 13.4218C1835.86 48.7269 1782.36 -12.4349 1673.37 3.30154C1519.88 44.3267 1543.38 115.945 1380.39 131.345C1209.4 139.705 1144.91 59.6231 1071.41 78.5436Z" fill="white"/>
</svg>
