<svg width="635" height="712" viewBox="0 0 635 712" fill="none" xmlns="http://www.w3.org/2000/svg">
<path fill-rule="evenodd" clip-rule="evenodd" d="M507.205 627.85C426.335 642.33 358.672 571.94 286.74 532.433C226.328 499.253 153.179 477.583 121.919 416.24C91.6401 356.822 131.739 287.74 128.114 221.149C123.829 142.409 59.9823 60.9566 98.8423 -7.75335C137.518 -76.1373 233.399 -81.0236 309.735 -99.9813C384.32 -118.504 461.366 -140.583 534.068 -115.841C608.095 -90.6478 656.843 -25.8062 706.009 34.879C760.981 102.731 839.563 168.302 834.915 255.492C830.269 342.653 741.016 395.819 683.27 461.431C628.589 523.563 588.732 613.252 507.205 627.85Z" fill="#FFB685"/>
</svg>
