
        <svg xmlns="http://www.w3.org/2000/svg" viewBox="0 0 1440 320">
            <path fill="#FFA970" fill-opacity="1"
                d="M0,128L40,106.7C80,85,160,43,240,53.3C320,64,400,128,480,165.3C560,203,640,213,720,197.3C800,181,880,139,960,133.3C1040,128,1120,160,1200,149.3C1280,139,1360,85,1400,58.7L1440,32L1440,320L1400,320C1360,320,1280,320,1200,320C1120,320,1040,320,960,320C880,320,800,320,720,320C640,320,560,320,480,320C400,320,320,320,240,320C160,320,80,320,40,320L0,320Z">
            </path>
        </svg>