<svg width="1920" height="5000" viewBox="0 0 1920 1890" fill="none" xmlns="http://www.w3.org/2000/svg">
<path d="M1383.04 365.822C1658.02 365.822 1722.52 21.7276 1923 2.33097V21.7276C1923 15.262 1922.6 379.865 1921 1890C1823.51 1884.18 1824.01 1822.11 1668.52 1723.97C1484.03 1642.59 1323.05 1790.3 1144.06 1790.3C930.575 1772.07 907.076 1675.86 732.089 1520.69C559.103 1394.23 427.112 1446.6 259.625 1454.35C149.088 1459.48 62.1786 1410.92 0 1364V19.7967C48.871 14.0275 98.0967 -6.90215 170.632 2.33097C324.12 38.5003 300.622 101.641 463.61 115.219C634.597 122.589 699.092 51.9861 772.586 68.6671C865.579 58.193 1192.55 368.537 1383.04 365.822Z" fill="white"/>
</svg>
