<svg width="40" height="50" viewBox="0 0 40 50" fill="none" xmlns="http://www.w3.org/2000/svg">
<g clip-path="url(#clip0)">
<path d="M24.1844 18.1677V10.6625C24.1844 10.3313 23.9156 10.0625 23.5844 10.0625C23.2528 10.0625 22.9844 10.3313 22.9844 10.6625V18.4165C22.9844 18.5753 23.0476 18.7281 23.16 18.8409L27.4408 23.1221C27.558 23.2393 27.7116 23.2977 27.8652 23.2977C28.0188 23.2977 28.1724 23.2393 28.2896 23.1221C28.524 22.8877 28.524 22.5081 28.2896 22.2737L24.1844 18.1677Z" fill="black"/>
<path d="M23.5844 27.7852C23.2528 27.7852 22.9844 28.054 22.9844 28.3852V29.9892C22.9844 30.3204 23.2528 30.5892 23.5844 30.5892C23.9156 30.5892 24.1844 30.3204 24.1844 29.9892V28.3852C24.1844 28.054 23.9156 27.7852 23.5844 27.7852Z" fill="black"/>
<path d="M31.0554 25.041C30.821 24.8066 30.4414 24.8066 30.207 25.041C29.9727 25.2754 29.9727 25.655 30.207 25.8894L31.3406 27.0234C31.4574 27.1406 31.6114 27.1994 31.7646 27.1994C31.9186 27.1994 32.0718 27.141 32.189 27.0238C32.4234 26.7894 32.4234 26.4098 32.189 26.1754L31.0554 25.041Z" fill="black"/>
<path d="M35.1571 17.8164H33.5531C33.2219 17.8164 32.9531 18.0852 32.9531 18.4164C32.9531 18.7476 33.2219 19.0164 33.5531 19.0164H35.1571C35.4887 19.0164 35.7571 18.7476 35.7571 18.4164C35.7571 18.0852 35.4887 17.8164 35.1571 17.8164Z" fill="black"/>
<path d="M31.3415 9.80861L30.2071 10.943C29.9726 11.1774 29.9726 11.557 30.2071 11.7914C30.3243 11.9086 30.4774 11.967 30.6315 11.967C30.7847 11.967 30.9386 11.9086 31.0559 11.7914L32.1903 10.657C32.4247 10.4226 32.4247 10.043 32.1903 9.80861C31.9559 9.57421 31.5759 9.57421 31.3415 9.80861Z" fill="black"/>
<path d="M23.5844 9.04756C23.9156 9.04756 24.1844 8.77876 24.1844 8.44756V6.84316C24.1844 6.51196 23.9156 6.24316 23.5844 6.24316C23.2528 6.24316 22.9844 6.51196 22.9844 6.84316V8.44756C22.9844 8.77876 23.2528 9.04756 23.5844 9.04756Z" fill="black"/>
<path d="M15.825 9.80861C15.5906 9.57421 15.211 9.57421 14.9766 9.80861C14.7422 10.043 14.7422 10.4226 14.9766 10.657L16.111 11.7914C16.2282 11.9086 16.3814 11.967 16.5354 11.967C16.6886 11.967 16.8426 11.9086 16.9598 11.7914C17.1942 11.557 17.1942 11.1774 16.9598 10.943L15.825 9.80861Z" fill="black"/>
<path d="M23.5828 4.0166C16.8692 4.0166 11.2344 8.6114 9.63923 14.8258C7.69403 15.827 6.35803 17.851 6.35803 20.1842C6.35803 22.4398 7.60483 24.4074 9.44323 25.441C5.15483 26.7126 2.01562 30.687 2.01562 35.383C2.01562 35.7142 2.28443 35.983 2.61563 35.983H9.37763H15.7584H22.156C22.4872 35.983 22.756 35.7142 22.756 35.383C22.756 34.477 22.638 33.5986 22.4192 32.7606C22.8032 32.793 23.1896 32.8162 23.5824 32.8162C31.5356 32.8162 37.9824 26.3694 37.9824 18.4162C37.9824 10.463 31.536 4.0166 23.5828 4.0166ZM7.55763 20.1842C7.55763 17.5226 9.72323 15.3574 12.3856 15.3574C15.0472 15.3574 17.2132 17.5226 17.2132 20.1842C17.2132 22.8466 15.0472 25.013 12.3856 25.013C9.72363 25.0134 7.55763 22.847 7.55763 20.1842ZM12.948 27.9026H11.9024L11.026 26.3246C11.4704 26.2582 11.9228 26.2134 12.386 26.2134C12.9292 26.2134 13.46 26.2678 13.9776 26.3586L12.948 27.9026ZM3.23523 34.783C3.48803 30.8894 6.18202 27.6518 9.79843 26.5866L10.9164 28.5986L9.62763 34.783H3.23523ZM10.8536 34.783L12.0376 29.1026H12.8008L14.2212 34.783H10.8536ZM15.4584 34.783L13.9156 28.6146L15.214 26.6674C18.7068 27.8038 21.2896 30.977 21.5368 34.783H15.4584ZM23.5828 31.6166C23.0484 31.6166 22.5228 31.5798 22.0052 31.5162C20.83 28.603 18.3688 26.3426 15.3284 25.441C17.1676 24.4074 18.414 22.4398 18.414 20.1842C18.414 16.8606 15.7096 14.1574 12.3864 14.1574C11.9232 14.1574 11.474 14.215 11.0412 14.3142C12.7708 9.039 17.7368 5.2166 23.5832 5.2166C30.8612 5.2166 36.7832 11.1382 36.7832 18.4166C36.7832 25.695 30.8608 31.6166 23.5828 31.6166Z" fill="black"/>
<path d="M1.775 46.635H2.495C2.495 46.505 2.485 46.3667 2.465 46.22C2.44833 46.07 2.40333 45.9317 2.33 45.805C2.25667 45.675 2.145 45.5683 1.995 45.485C1.84833 45.4017 1.64667 45.36 1.39 45.36C1.12 45.36 0.905 45.4067 0.745 45.5C0.585 45.59 0.461667 45.7167 0.375 45.88C0.291667 46.0433 0.236667 46.24 0.21 46.47C0.186667 46.6967 0.175 46.945 0.175 47.215C0.175 47.4883 0.186667 47.7383 0.21 47.965C0.236667 48.1917 0.291667 48.3867 0.375 48.55C0.461667 48.7133 0.585 48.8383 0.745 48.925C0.905 49.0117 1.12 49.055 1.39 49.055C1.62667 49.055 1.81833 49.0183 1.965 48.945C2.115 48.8717 2.23 48.77 2.31 48.64C2.39333 48.51 2.45 48.3583 2.48 48.185C2.51 48.0117 2.525 47.8283 2.525 47.635H1.805C1.805 47.8283 1.79333 47.985 1.77 48.105C1.74667 48.2217 1.715 48.3133 1.675 48.38C1.635 48.4433 1.58667 48.4867 1.53 48.51C1.47667 48.53 1.41833 48.54 1.355 48.54C1.27833 48.54 1.21 48.525 1.15 48.495C1.09333 48.4617 1.045 48.4 1.005 48.31C0.968333 48.2167 0.94 48.0867 0.92 47.92C0.903333 47.7533 0.895 47.535 0.895 47.265C0.895 47.0117 0.901667 46.7983 0.915 46.625C0.928333 46.4483 0.951667 46.3067 0.985 46.2C1.01833 46.09 1.06333 46.0117 1.12 45.965C1.18 45.915 1.255 45.89 1.345 45.89C1.50833 45.89 1.62 45.95 1.68 46.07C1.74333 46.1867 1.775 46.375 1.775 46.635ZM2.91555 46.31V49H3.60555V47.385C3.60555 47.295 3.62055 47.22 3.65055 47.16C3.68055 47.0967 3.72055 47.0467 3.77055 47.01C3.82055 46.97 3.87555 46.9417 3.93555 46.925C3.99555 46.9083 4.05555 46.9 4.11555 46.9C4.15221 46.9 4.18721 46.9017 4.22055 46.905C4.25721 46.905 4.29388 46.9067 4.33055 46.91V46.25C4.31055 46.2467 4.28888 46.245 4.26555 46.245C4.24555 46.2417 4.22555 46.24 4.20555 46.24C4.06221 46.24 3.94055 46.28 3.84055 46.36C3.74055 46.4367 3.65555 46.54 3.58555 46.67H3.57555V46.31H2.91555ZM5.87559 47.35H5.17059V47.245C5.17059 47.1817 5.17559 47.1183 5.18559 47.055C5.19892 46.9917 5.21892 46.935 5.24559 46.885C5.27225 46.8317 5.30725 46.79 5.35059 46.76C5.39725 46.7267 5.45559 46.71 5.52559 46.71C5.59559 46.71 5.65225 46.725 5.69559 46.755C5.74225 46.7817 5.77725 46.8233 5.80059 46.88C5.82725 46.9333 5.84559 47 5.85559 47.08C5.86559 47.1567 5.87225 47.2467 5.87559 47.35ZM5.17059 47.76H6.53559V47.605C6.53559 47.3983 6.52225 47.2117 6.49559 47.045C6.46892 46.875 6.41892 46.7317 6.34559 46.615C6.27225 46.495 6.17059 46.4033 6.04059 46.34C5.91392 46.2733 5.75059 46.24 5.55059 46.24C5.31725 46.24 5.13059 46.2783 4.99059 46.355C4.85059 46.4317 4.74225 46.535 4.66559 46.665C4.59225 46.795 4.54225 46.9433 4.51559 47.11C4.49225 47.2767 4.48059 47.45 4.48059 47.63C4.48059 47.8 4.48725 47.97 4.50059 48.14C4.51725 48.31 4.55892 48.4633 4.62559 48.6C4.69225 48.7367 4.79559 48.8467 4.93559 48.93C5.07559 49.0133 5.27059 49.055 5.52059 49.055C5.85059 49.055 6.09225 48.9733 6.24559 48.81C6.39892 48.6467 6.48225 48.4083 6.49559 48.095H5.87559C5.85559 48.265 5.81892 48.3917 5.76559 48.475C5.71225 48.5583 5.62725 48.6 5.51059 48.6C5.44725 48.6 5.39392 48.5833 5.35059 48.55C5.30725 48.5133 5.27225 48.4667 5.24559 48.41C5.21892 48.35 5.19892 48.2833 5.18559 48.21C5.17559 48.1333 5.17059 48.055 5.17059 47.975V47.76ZM8.15004 47.655V48.185C8.15004 48.2583 8.13671 48.3217 8.11004 48.375C8.08337 48.4283 8.04837 48.4717 8.00504 48.505C7.96504 48.5383 7.92004 48.5633 7.87004 48.58C7.82004 48.5933 7.77171 48.6 7.72504 48.6C7.63171 48.6 7.56504 48.5633 7.52504 48.49C7.48504 48.4167 7.46504 48.3283 7.46504 48.225C7.46504 48.105 7.49504 48.01 7.55504 47.94C7.61504 47.87 7.71504 47.82 7.85504 47.79C7.89837 47.78 7.94671 47.765 8.00004 47.745C8.05337 47.7217 8.10337 47.6917 8.15004 47.655ZM6.89004 47.135H7.51004V47.06C7.51004 46.9533 7.53671 46.8683 7.59004 46.805C7.64337 46.7417 7.72337 46.71 7.83004 46.71C7.94671 46.71 8.02837 46.74 8.07504 46.8C8.12504 46.8567 8.15004 46.9367 8.15004 47.04C8.15004 47.13 8.13004 47.1983 8.09004 47.245C8.05004 47.2917 7.97837 47.3283 7.87504 47.355L7.48504 47.46C7.36504 47.4933 7.26171 47.5317 7.17504 47.575C7.09171 47.6183 7.02171 47.6733 6.96504 47.74C6.91171 47.8033 6.87171 47.8817 6.84504 47.975C6.81837 48.065 6.80504 48.1733 6.80504 48.3C6.80504 48.39 6.81671 48.4817 6.84004 48.575C6.86337 48.665 6.90004 48.7467 6.95004 48.82C7.00004 48.8933 7.06671 48.9517 7.15004 48.995C7.23337 49.035 7.33504 49.055 7.45504 49.055C7.62171 49.055 7.75671 49.035 7.86004 48.995C7.96671 48.9517 8.06004 48.86 8.14004 48.72H8.15004C8.16004 48.7667 8.17004 48.815 8.18004 48.865C8.19337 48.9117 8.21171 48.9567 8.23504 49H8.89504C8.86171 48.92 8.83837 48.845 8.82504 48.775C8.81504 48.705 8.81004 48.6067 8.81004 48.48V47.065C8.81004 46.945 8.79671 46.835 8.77004 46.735C8.74671 46.6317 8.70004 46.5433 8.63004 46.47C8.56004 46.3967 8.46171 46.34 8.33504 46.3C8.20837 46.26 8.04171 46.24 7.83504 46.24C7.70504 46.24 7.58171 46.255 7.46504 46.285C7.35171 46.3117 7.25171 46.3583 7.16504 46.425C7.08171 46.4883 7.01504 46.5733 6.96504 46.68C6.91504 46.7833 6.89004 46.9133 6.89004 47.07V47.135ZM9.45227 45.54V46.31H9.10227V46.78H9.45227V48.32C9.45227 48.4567 9.4606 48.57 9.47727 48.66C9.49393 48.75 9.52393 48.8233 9.56727 48.88C9.61393 48.9333 9.67893 48.97 9.76227 48.99C9.84893 49.0067 9.95893 49.015 10.0923 49.015C10.1723 49.015 10.2473 49.0117 10.3173 49.005C10.3906 49.0017 10.4656 49 10.5423 49V48.52C10.5189 48.5233 10.4939 48.5267 10.4673 48.53C10.4406 48.53 10.4139 48.53 10.3873 48.53C10.2873 48.53 10.2206 48.5083 10.1873 48.465C10.1573 48.4183 10.1423 48.3417 10.1423 48.235V46.78H10.5423V46.31H10.1423V45.54H9.45227ZM12.0768 47.35H11.3718V47.245C11.3718 47.1817 11.3768 47.1183 11.3868 47.055C11.4001 46.9917 11.4201 46.935 11.4468 46.885C11.4734 46.8317 11.5084 46.79 11.5518 46.76C11.5984 46.7267 11.6568 46.71 11.7268 46.71C11.7968 46.71 11.8534 46.725 11.8968 46.755C11.9434 46.7817 11.9784 46.8233 12.0018 46.88C12.0284 46.9333 12.0468 47 12.0568 47.08C12.0668 47.1567 12.0734 47.2467 12.0768 47.35ZM11.3718 47.76H12.7368V47.605C12.7368 47.3983 12.7234 47.2117 12.6968 47.045C12.6701 46.875 12.6201 46.7317 12.5468 46.615C12.4734 46.495 12.3718 46.4033 12.2418 46.34C12.1151 46.2733 11.9518 46.24 11.7518 46.24C11.5184 46.24 11.3318 46.2783 11.1918 46.355C11.0518 46.4317 10.9434 46.535 10.8668 46.665C10.7934 46.795 10.7434 46.9433 10.7168 47.11C10.6934 47.2767 10.6818 47.45 10.6818 47.63C10.6818 47.8 10.6884 47.97 10.7018 48.14C10.7184 48.31 10.7601 48.4633 10.8268 48.6C10.8934 48.7367 10.9968 48.8467 11.1368 48.93C11.2768 49.0133 11.4718 49.055 11.7218 49.055C12.0518 49.055 12.2934 48.9733 12.4468 48.81C12.6001 48.6467 12.6834 48.4083 12.6968 48.095H12.0768C12.0568 48.265 12.0201 48.3917 11.9668 48.475C11.9134 48.5583 11.8284 48.6 11.7118 48.6C11.6484 48.6 11.5951 48.5833 11.5518 48.55C11.5084 48.5133 11.4734 48.4667 11.4468 48.41C11.4201 48.35 11.4001 48.2833 11.3868 48.21C11.3768 48.1333 11.3718 48.055 11.3718 47.975V47.76ZM14.4762 48.715V49H15.1362V45.43H14.4462V46.56H14.4362C14.3629 46.4533 14.2795 46.3733 14.1862 46.32C14.0962 46.2667 13.9862 46.24 13.8562 46.24C13.5729 46.24 13.3645 46.3517 13.2312 46.575C13.0979 46.795 13.0312 47.155 13.0312 47.655C13.0312 48.155 13.0979 48.5133 13.2312 48.73C13.3645 48.9467 13.5729 49.055 13.8562 49.055C13.9962 49.055 14.1129 49.03 14.2062 48.98C14.3029 48.93 14.3895 48.8417 14.4662 48.715H14.4762ZM13.7212 47.655C13.7212 47.3617 13.7429 47.1417 13.7862 46.995C13.8329 46.845 13.9312 46.77 14.0812 46.77C14.2345 46.77 14.3329 46.845 14.3762 46.995C14.4229 47.1417 14.4462 47.3617 14.4462 47.655C14.4462 47.9483 14.4229 48.17 14.3762 48.32C14.3329 48.4667 14.2345 48.54 14.0812 48.54C13.9312 48.54 13.8329 48.4667 13.7862 48.32C13.7429 48.17 13.7212 47.9483 13.7212 47.655ZM16.7974 45.43V49H17.4574V48.715H17.4674C17.544 48.8417 17.629 48.93 17.7224 48.98C17.819 49.03 17.9374 49.055 18.0774 49.055C18.3607 49.055 18.569 48.9467 18.7024 48.73C18.8357 48.5133 18.9024 48.155 18.9024 47.655C18.9024 47.155 18.8357 46.795 18.7024 46.575C18.569 46.3517 18.3607 46.24 18.0774 46.24C17.9474 46.24 17.8357 46.2667 17.7424 46.32C17.6524 46.3733 17.5707 46.4533 17.4974 46.56H17.4874V45.43H16.7974ZM17.4874 47.655C17.4874 47.3617 17.509 47.1417 17.5524 46.995C17.599 46.845 17.699 46.77 17.8524 46.77C18.0024 46.77 18.099 46.845 18.1424 46.995C18.189 47.1417 18.2124 47.3617 18.2124 47.655C18.2124 47.9483 18.189 48.17 18.1424 48.32C18.099 48.4667 18.0024 48.54 17.8524 48.54C17.699 48.54 17.599 48.4667 17.5524 48.32C17.509 48.17 17.4874 47.9483 17.4874 47.655ZM19.2974 49.35V49.865H19.5774C19.7374 49.865 19.869 49.8533 19.9724 49.83C20.079 49.8067 20.169 49.7567 20.2424 49.68C20.319 49.6067 20.384 49.5 20.4374 49.36C20.494 49.2233 20.5524 49.0433 20.6124 48.82L21.2624 46.31H20.5724L20.2224 48.17H20.2124L19.8124 46.31H19.0924L19.8474 49C19.8374 49.11 19.804 49.1983 19.7474 49.265C19.694 49.3317 19.604 49.365 19.4774 49.365C19.4174 49.365 19.3574 49.36 19.2974 49.35ZM24.6447 45.43H22.3647V46.02H23.1447V49H23.8647V46.02H24.6447V45.43ZM25.1659 47.655C25.1659 47.5183 25.1693 47.3917 25.1759 47.275C25.1826 47.1583 25.1976 47.0583 25.2209 46.975C25.2476 46.8917 25.2859 46.8267 25.3359 46.78C25.3859 46.7333 25.4526 46.71 25.5359 46.71C25.6759 46.71 25.7726 46.7833 25.8259 46.93C25.8793 47.0767 25.9059 47.3183 25.9059 47.655C25.9059 47.9917 25.8793 48.2333 25.8259 48.38C25.7726 48.5267 25.6759 48.6 25.5359 48.6C25.4526 48.6 25.3859 48.5767 25.3359 48.53C25.2859 48.4833 25.2476 48.4183 25.2209 48.335C25.1976 48.2517 25.1826 48.1517 25.1759 48.035C25.1693 47.9183 25.1659 47.7917 25.1659 47.655ZM24.4759 47.655C24.4759 47.8883 24.4926 48.095 24.5259 48.275C24.5593 48.4517 24.6159 48.6 24.6959 48.72C24.7759 48.8367 24.8843 48.9233 25.0209 48.98C25.1576 49.0333 25.3293 49.0583 25.5359 49.055C25.7326 49.055 25.8976 49.0267 26.0309 48.97C26.1676 48.9133 26.2776 48.8267 26.3609 48.71C26.4443 48.59 26.5043 48.4417 26.5409 48.265C26.5776 48.0883 26.5959 47.885 26.5959 47.655C26.5959 47.4183 26.5793 47.2117 26.5459 47.035C26.5126 46.8583 26.4559 46.71 26.3759 46.59C26.2959 46.47 26.1876 46.3817 26.0509 46.325C25.9143 46.265 25.7426 46.2367 25.5359 46.24C25.3393 46.24 25.1726 46.2717 25.0359 46.335C24.9026 46.395 24.7943 46.485 24.7109 46.605C24.6276 46.7217 24.5676 46.8683 24.5309 47.045C24.4943 47.2217 24.4759 47.425 24.4759 47.655ZM26.9683 46.31V49H27.6583V47.23C27.6583 47.07 27.6899 46.9533 27.7533 46.88C27.8199 46.8067 27.9083 46.77 28.0183 46.77C28.1149 46.77 28.1833 46.8 28.2233 46.86C28.2666 46.92 28.2883 47.0067 28.2883 47.12V49H28.9783V47.23C28.9783 47.07 29.0099 46.9533 29.0733 46.88C29.1399 46.8067 29.2283 46.77 29.3383 46.77C29.4349 46.77 29.5033 46.8 29.5433 46.86C29.5866 46.92 29.6083 47.0067 29.6083 47.12V49H30.2983V47.045C30.2983 46.785 30.2433 46.5867 30.1333 46.45C30.0266 46.31 29.8583 46.24 29.6283 46.24C29.4649 46.24 29.3233 46.2767 29.2033 46.35C29.0866 46.42 29.0016 46.5267 28.9483 46.67H28.9383C28.9016 46.53 28.8283 46.4233 28.7183 46.35C28.6116 46.2767 28.4783 46.24 28.3183 46.24C28.1683 46.24 28.0383 46.2667 27.9283 46.32C27.8216 46.3733 27.7249 46.4617 27.6383 46.585H27.6283V46.31H26.9683ZM32.0123 47.655V48.185C32.0123 48.2583 31.999 48.3217 31.9723 48.375C31.9457 48.4283 31.9107 48.4717 31.8673 48.505C31.8273 48.5383 31.7823 48.5633 31.7323 48.58C31.6823 48.5933 31.634 48.6 31.5873 48.6C31.494 48.6 31.4273 48.5633 31.3873 48.49C31.3473 48.4167 31.3273 48.3283 31.3273 48.225C31.3273 48.105 31.3573 48.01 31.4173 47.94C31.4773 47.87 31.5773 47.82 31.7173 47.79C31.7607 47.78 31.809 47.765 31.8623 47.745C31.9157 47.7217 31.9657 47.6917 32.0123 47.655ZM30.7523 47.135H31.3723V47.06C31.3723 46.9533 31.399 46.8683 31.4523 46.805C31.5057 46.7417 31.5857 46.71 31.6923 46.71C31.809 46.71 31.8907 46.74 31.9373 46.8C31.9873 46.8567 32.0123 46.9367 32.0123 47.04C32.0123 47.13 31.9923 47.1983 31.9523 47.245C31.9123 47.2917 31.8407 47.3283 31.7373 47.355L31.3473 47.46C31.2273 47.4933 31.124 47.5317 31.0373 47.575C30.954 47.6183 30.884 47.6733 30.8273 47.74C30.774 47.8033 30.734 47.8817 30.7073 47.975C30.6807 48.065 30.6673 48.1733 30.6673 48.3C30.6673 48.39 30.679 48.4817 30.7023 48.575C30.7257 48.665 30.7623 48.7467 30.8123 48.82C30.8623 48.8933 30.929 48.9517 31.0123 48.995C31.0957 49.035 31.1973 49.055 31.3173 49.055C31.484 49.055 31.619 49.035 31.7223 48.995C31.829 48.9517 31.9223 48.86 32.0023 48.72H32.0123C32.0223 48.7667 32.0323 48.815 32.0423 48.865C32.0557 48.9117 32.074 48.9567 32.0973 49H32.7573C32.724 48.92 32.7007 48.845 32.6873 48.775C32.6773 48.705 32.6723 48.6067 32.6723 48.48V47.065C32.6723 46.945 32.659 46.835 32.6323 46.735C32.609 46.6317 32.5623 46.5433 32.4923 46.47C32.4223 46.3967 32.324 46.34 32.1973 46.3C32.0707 46.26 31.904 46.24 31.6973 46.24C31.5673 46.24 31.444 46.255 31.3273 46.285C31.214 46.3117 31.114 46.3583 31.0273 46.425C30.944 46.4883 30.8773 46.5733 30.8273 46.68C30.7773 46.7833 30.7523 46.9133 30.7523 47.07V47.135ZM33.6696 48.12H33.0496V48.215C33.0496 48.345 33.0646 48.4633 33.0946 48.57C33.1246 48.6733 33.1762 48.7617 33.2496 48.835C33.3262 48.9083 33.4279 48.9633 33.5546 49C33.6846 49.0367 33.8462 49.055 34.0396 49.055C34.1862 49.055 34.3196 49.04 34.4396 49.01C34.5629 48.98 34.6679 48.93 34.7546 48.86C34.8446 48.79 34.9146 48.7033 34.9646 48.6C35.0146 48.4933 35.0396 48.3683 35.0396 48.225C35.0396 48.0217 34.9946 47.8617 34.9046 47.745C34.8146 47.625 34.6612 47.5283 34.4446 47.455L34.0296 47.315C33.9129 47.2783 33.8329 47.2333 33.7896 47.18C33.7496 47.1267 33.7296 47.0667 33.7296 47C33.7296 46.9033 33.7612 46.8317 33.8246 46.785C33.8912 46.735 33.9679 46.71 34.0546 46.71C34.1679 46.71 34.2462 46.7433 34.2896 46.81C34.3362 46.8733 34.3596 46.975 34.3596 47.115H34.9796V47.005C34.9796 46.7617 34.9046 46.5733 34.7546 46.44C34.6046 46.3067 34.3729 46.24 34.0596 46.24C33.8829 46.24 33.7312 46.2617 33.6046 46.305C33.4812 46.3483 33.3796 46.4067 33.2996 46.48C33.2196 46.5533 33.1612 46.64 33.1246 46.74C33.0879 46.8367 33.0696 46.94 33.0696 47.05C33.0696 47.24 33.1179 47.3967 33.2146 47.52C33.3112 47.64 33.4546 47.7333 33.6446 47.8L34.1296 47.975C34.1962 48.0017 34.2546 48.0383 34.3046 48.085C34.3546 48.1283 34.3796 48.1933 34.3796 48.28C34.3796 48.3867 34.3479 48.4667 34.2846 48.52C34.2212 48.5733 34.1362 48.6 34.0296 48.6C33.9129 48.6 33.8229 48.565 33.7596 48.495C33.6996 48.4217 33.6696 48.3267 33.6696 48.21V48.12ZM0.97 51.43H0.25V55H0.97V53.94L1.235 53.535L1.97 55H2.78L1.7 52.96L2.67 51.43H1.89L0.98 52.86H0.97V51.43ZM2.91555 52.31V55H3.60555V53.215C3.60555 52.9183 3.72721 52.77 3.97055 52.77C4.07388 52.77 4.14888 52.7983 4.19555 52.855C4.24221 52.9083 4.26555 53.005 4.26555 53.145V55H4.95555V53.005C4.95555 52.735 4.89555 52.54 4.77555 52.42C4.65888 52.3 4.49055 52.24 4.27055 52.24C4.12055 52.24 3.98721 52.2717 3.87055 52.335C3.75388 52.395 3.65888 52.4917 3.58555 52.625H3.57555V52.31H2.91555ZM6.01555 53.655C6.01555 53.5183 6.01888 53.3917 6.02555 53.275C6.03221 53.1583 6.04721 53.0583 6.07055 52.975C6.09721 52.8917 6.13555 52.8267 6.18555 52.78C6.23555 52.7333 6.30221 52.71 6.38555 52.71C6.52555 52.71 6.62221 52.7833 6.67555 52.93C6.72888 53.0767 6.75555 53.3183 6.75555 53.655C6.75555 53.9917 6.72888 54.2333 6.67555 54.38C6.62221 54.5267 6.52555 54.6 6.38555 54.6C6.30221 54.6 6.23555 54.5767 6.18555 54.53C6.13555 54.4833 6.09721 54.4183 6.07055 54.335C6.04721 54.2517 6.03221 54.1517 6.02555 54.035C6.01888 53.9183 6.01555 53.7917 6.01555 53.655ZM5.32555 53.655C5.32555 53.8883 5.34221 54.095 5.37555 54.275C5.40888 54.4517 5.46555 54.6 5.54555 54.72C5.62555 54.8367 5.73388 54.9233 5.87055 54.98C6.00721 55.0333 6.17888 55.0583 6.38555 55.055C6.58221 55.055 6.74721 55.0267 6.88055 54.97C7.01721 54.9133 7.12721 54.8267 7.21055 54.71C7.29388 54.59 7.35388 54.4417 7.39055 54.265C7.42721 54.0883 7.44555 53.885 7.44555 53.655C7.44555 53.4183 7.42888 53.2117 7.39555 53.035C7.36221 52.8583 7.30555 52.71 7.22555 52.59C7.14555 52.47 7.03721 52.3817 6.90055 52.325C6.76388 52.265 6.59221 52.2367 6.38555 52.24C6.18888 52.24 6.02221 52.2717 5.88555 52.335C5.75221 52.395 5.64388 52.485 5.56055 52.605C5.47721 52.7217 5.41721 52.8683 5.38055 53.045C5.34388 53.2217 5.32555 53.425 5.32555 53.655ZM7.81789 52.31V55.865H8.50789V54.75H8.51789C8.59122 54.8567 8.67289 54.935 8.76289 54.985C8.85622 55.0317 8.96789 55.055 9.09789 55.055C9.38122 55.055 9.58956 54.9467 9.72289 54.73C9.85622 54.5133 9.92289 54.155 9.92289 53.655C9.92289 53.155 9.85622 52.795 9.72289 52.575C9.58956 52.3517 9.38122 52.24 9.09789 52.24C8.95789 52.24 8.83956 52.2683 8.74289 52.325C8.64956 52.3783 8.56456 52.4683 8.48789 52.595H8.47789V52.31H7.81789ZM8.50789 53.655C8.50789 53.3617 8.52956 53.1417 8.57289 52.995C8.61956 52.845 8.71956 52.77 8.87289 52.77C9.02289 52.77 9.11956 52.845 9.16289 52.995C9.20956 53.1417 9.23289 53.3617 9.23289 53.655C9.23289 53.9483 9.20956 54.17 9.16289 54.32C9.11956 54.4667 9.02289 54.54 8.87289 54.54C8.71956 54.54 8.61956 54.4667 8.57289 54.32C8.52956 54.17 8.50789 53.9483 8.50789 53.655ZM10.3179 52.31V55.865H11.0079V54.75H11.0179C11.0912 54.8567 11.1729 54.935 11.2629 54.985C11.3562 55.0317 11.4679 55.055 11.5979 55.055C11.8812 55.055 12.0896 54.9467 12.2229 54.73C12.3562 54.5133 12.4229 54.155 12.4229 53.655C12.4229 53.155 12.3562 52.795 12.2229 52.575C12.0896 52.3517 11.8812 52.24 11.5979 52.24C11.4579 52.24 11.3396 52.2683 11.2429 52.325C11.1496 52.3783 11.0646 52.4683 10.9879 52.595H10.9779V52.31H10.3179ZM11.0079 53.655C11.0079 53.3617 11.0296 53.1417 11.0729 52.995C11.1196 52.845 11.2196 52.77 11.3729 52.77C11.5229 52.77 11.6196 52.845 11.6629 52.995C11.7096 53.1417 11.7329 53.3617 11.7329 53.655C11.7329 53.9483 11.7096 54.17 11.6629 54.32C11.6196 54.4667 11.5229 54.54 11.3729 54.54C11.2196 54.54 11.1196 54.4667 11.0729 54.32C11.0296 54.17 11.0079 53.9483 11.0079 53.655Z" fill="black"/>
<path d="M0.38 48.78V51H1.07V48.78H1.47V48.31H1.07V48.075C1.07 47.9983 1.09 47.9433 1.13 47.91C1.17 47.8767 1.23833 47.86 1.335 47.86H1.4C1.43 47.86 1.45333 47.8617 1.47 47.865V47.375C1.34667 47.365 1.22333 47.36 1.1 47.36C0.99 47.36 0.89 47.3717 0.8 47.395C0.71 47.415 0.633333 47.45 0.57 47.5C0.51 47.55 0.463333 47.6167 0.43 47.7C0.396667 47.7833 0.38 47.885 0.38 48.005V48.31H0.03V48.78H0.38ZM1.70949 48.31V51H2.39949V49.385C2.39949 49.295 2.41449 49.22 2.44449 49.16C2.47449 49.0967 2.51449 49.0467 2.56449 49.01C2.61449 48.97 2.66949 48.9417 2.72949 48.925C2.78949 48.9083 2.84949 48.9 2.90949 48.9C2.94616 48.9 2.98116 48.9017 3.01449 48.905C3.05116 48.905 3.08783 48.9067 3.12449 48.91V48.25C3.10449 48.2467 3.08283 48.245 3.05949 48.245C3.03949 48.2417 3.01949 48.24 2.99949 48.24C2.85616 48.24 2.73449 48.28 2.63449 48.36C2.53449 48.4367 2.44949 48.54 2.37949 48.67H2.36949V48.31H1.70949ZM3.97453 49.655C3.97453 49.5183 3.97786 49.3917 3.98453 49.275C3.9912 49.1583 4.0062 49.0583 4.02953 48.975C4.0562 48.8917 4.09453 48.8267 4.14453 48.78C4.19453 48.7333 4.2612 48.71 4.34453 48.71C4.48453 48.71 4.5812 48.7833 4.63453 48.93C4.68786 49.0767 4.71453 49.3183 4.71453 49.655C4.71453 49.9917 4.68786 50.2333 4.63453 50.38C4.5812 50.5267 4.48453 50.6 4.34453 50.6C4.2612 50.6 4.19453 50.5767 4.14453 50.53C4.09453 50.4833 4.0562 50.4183 4.02953 50.335C4.0062 50.2517 3.9912 50.1517 3.98453 50.035C3.97786 49.9183 3.97453 49.7917 3.97453 49.655ZM3.28453 49.655C3.28453 49.8883 3.3012 50.095 3.33453 50.275C3.36786 50.4517 3.42453 50.6 3.50453 50.72C3.58453 50.8367 3.69286 50.9233 3.82953 50.98C3.9662 51.0333 4.13786 51.0583 4.34453 51.055C4.5412 51.055 4.7062 51.0267 4.83953 50.97C4.9762 50.9133 5.0862 50.8267 5.16953 50.71C5.25286 50.59 5.31286 50.4417 5.34953 50.265C5.3862 50.0883 5.40453 49.885 5.40453 49.655C5.40453 49.4183 5.38786 49.2117 5.35453 49.035C5.3212 48.8583 5.26453 48.71 5.18453 48.59C5.10453 48.47 4.9962 48.3817 4.85953 48.325C4.72286 48.265 4.5512 48.2367 4.34453 48.24C4.14786 48.24 3.9812 48.2717 3.84453 48.335C3.7112 48.395 3.60286 48.485 3.51953 48.605C3.4362 48.7217 3.3762 48.8683 3.33953 49.045C3.30286 49.2217 3.28453 49.425 3.28453 49.655ZM5.77688 48.31V51H6.46688V49.23C6.46688 49.07 6.49854 48.9533 6.56188 48.88C6.62854 48.8067 6.71688 48.77 6.82688 48.77C6.92354 48.77 6.99188 48.8 7.03188 48.86C7.07521 48.92 7.09688 49.0067 7.09688 49.12V51H7.78688V49.23C7.78688 49.07 7.81854 48.9533 7.88188 48.88C7.94854 48.8067 8.03688 48.77 8.14688 48.77C8.24354 48.77 8.31188 48.8 8.35188 48.86C8.39521 48.92 8.41688 49.0067 8.41688 49.12V51H9.10688V49.045C9.10688 48.785 9.05188 48.5867 8.94188 48.45C8.83521 48.31 8.66688 48.24 8.43688 48.24C8.27354 48.24 8.13188 48.2767 8.01188 48.35C7.89521 48.42 7.81021 48.5267 7.75688 48.67H7.74688C7.71021 48.53 7.63688 48.4233 7.52688 48.35C7.42021 48.2767 7.28688 48.24 7.12688 48.24C6.97688 48.24 6.84688 48.2667 6.73688 48.32C6.63021 48.3733 6.53354 48.4617 6.44688 48.585H6.43688V48.31H5.77688ZM10.9171 47.54V48.31H10.5671V48.78H10.9171V50.32C10.9171 50.4567 10.9254 50.57 10.9421 50.66C10.9588 50.75 10.9888 50.8233 11.0321 50.88C11.0788 50.9333 11.1438 50.97 11.2271 50.99C11.3138 51.0067 11.4238 51.015 11.5571 51.015C11.6371 51.015 11.7121 51.0117 11.7821 51.005C11.8554 51.0017 11.9304 51 12.0071 51V50.52C11.9838 50.5233 11.9588 50.5267 11.9321 50.53C11.9054 50.53 11.8788 50.53 11.8521 50.53C11.7521 50.53 11.6854 50.5083 11.6521 50.465C11.6221 50.4183 11.6071 50.3417 11.6071 50.235V48.78H12.0071V48.31H11.6071V47.54H10.9171ZM12.2466 47.43V51H12.9366V49.215C12.9366 48.9183 13.0583 48.77 13.3016 48.77C13.4049 48.77 13.4799 48.7983 13.5266 48.855C13.5733 48.9083 13.5966 49.005 13.5966 49.145V51H14.2866V49.005C14.2866 48.735 14.2266 48.54 14.1066 48.42C13.9899 48.3 13.8216 48.24 13.6016 48.24C13.2983 48.24 13.0799 48.355 12.9466 48.585H12.9366V47.43H12.2466ZM16.0416 49.35H15.3366V49.245C15.3366 49.1817 15.3416 49.1183 15.3516 49.055C15.3649 48.9917 15.3849 48.935 15.4116 48.885C15.4383 48.8317 15.4733 48.79 15.5166 48.76C15.5633 48.7267 15.6216 48.71 15.6916 48.71C15.7616 48.71 15.8183 48.725 15.8616 48.755C15.9083 48.7817 15.9433 48.8233 15.9666 48.88C15.9933 48.9333 16.0116 49 16.0216 49.08C16.0316 49.1567 16.0383 49.2467 16.0416 49.35ZM15.3366 49.76H16.7016V49.605C16.7016 49.3983 16.6883 49.2117 16.6616 49.045C16.6349 48.875 16.5849 48.7317 16.5116 48.615C16.4383 48.495 16.3366 48.4033 16.2066 48.34C16.0799 48.2733 15.9166 48.24 15.7166 48.24C15.4833 48.24 15.2966 48.2783 15.1566 48.355C15.0166 48.4317 14.9083 48.535 14.8316 48.665C14.7583 48.795 14.7083 48.9433 14.6816 49.11C14.6583 49.2767 14.6466 49.45 14.6466 49.63C14.6466 49.8 14.6533 49.97 14.6666 50.14C14.6833 50.31 14.7249 50.4633 14.7916 50.6C14.8583 50.7367 14.9616 50.8467 15.1016 50.93C15.2416 51.0133 15.4366 51.055 15.6866 51.055C16.0166 51.055 16.2583 50.9733 16.4116 50.81C16.5649 50.6467 16.6483 50.4083 16.6616 50.095H16.0416C16.0216 50.265 15.9849 50.3917 15.9316 50.475C15.8783 50.5583 15.7933 50.6 15.6766 50.6C15.6133 50.6 15.5599 50.5833 15.5166 50.55C15.4733 50.5133 15.4383 50.4667 15.4116 50.41C15.3849 50.35 15.3649 50.2833 15.3516 50.21C15.3416 50.1333 15.3366 50.055 15.3366 49.975V49.76ZM19.1122 47.43H18.2822V51H18.9422V48.5H18.9522L19.8322 51H20.6522V47.43H19.9922V49.875H19.9822L19.1122 47.43ZM21.7333 49.655C21.7333 49.5183 21.7367 49.3917 21.7433 49.275C21.75 49.1583 21.765 49.0583 21.7883 48.975C21.815 48.8917 21.8533 48.8267 21.9033 48.78C21.9533 48.7333 22.02 48.71 22.1033 48.71C22.2433 48.71 22.34 48.7833 22.3933 48.93C22.4467 49.0767 22.4733 49.3183 22.4733 49.655C22.4733 49.9917 22.4467 50.2333 22.3933 50.38C22.34 50.5267 22.2433 50.6 22.1033 50.6C22.02 50.6 21.9533 50.5767 21.9033 50.53C21.8533 50.4833 21.815 50.4183 21.7883 50.335C21.765 50.2517 21.75 50.1517 21.7433 50.035C21.7367 49.9183 21.7333 49.7917 21.7333 49.655ZM21.0433 49.655C21.0433 49.8883 21.06 50.095 21.0933 50.275C21.1267 50.4517 21.1833 50.6 21.2633 50.72C21.3433 50.8367 21.4517 50.9233 21.5883 50.98C21.725 51.0333 21.8967 51.0583 22.1033 51.055C22.3 51.055 22.465 51.0267 22.5983 50.97C22.735 50.9133 22.845 50.8267 22.9283 50.71C23.0117 50.59 23.0717 50.4417 23.1083 50.265C23.145 50.0883 23.1633 49.885 23.1633 49.655C23.1633 49.4183 23.1467 49.2117 23.1133 49.035C23.08 48.8583 23.0233 48.71 22.9433 48.59C22.8633 48.47 22.755 48.3817 22.6183 48.325C22.4817 48.265 22.31 48.2367 22.1033 48.24C21.9067 48.24 21.74 48.2717 21.6033 48.335C21.47 48.395 21.3617 48.485 21.2783 48.605C21.195 48.7217 21.135 48.8683 21.0983 49.045C21.0617 49.2217 21.0433 49.425 21.0433 49.655ZM24.9157 50.685V51H25.5757V48.31H24.8857V50.095C24.8857 50.3917 24.764 50.54 24.5207 50.54C24.4173 50.54 24.3423 50.5133 24.2957 50.46C24.249 50.4033 24.2257 50.305 24.2257 50.165V48.31H23.5357V50.305C23.5357 50.575 23.594 50.7683 23.7107 50.885C23.8307 50.9983 24.0007 51.055 24.2207 51.055C24.3707 51.055 24.504 51.0267 24.6207 50.97C24.7373 50.9133 24.8323 50.8183 24.9057 50.685H24.9157ZM26.0357 48.31V51H26.7257V49.215C26.7257 48.9183 26.8473 48.77 27.0907 48.77C27.194 48.77 27.269 48.7983 27.3157 48.855C27.3623 48.9083 27.3857 49.005 27.3857 49.145V51H28.0757V49.005C28.0757 48.735 28.0157 48.54 27.8957 48.42C27.779 48.3 27.6107 48.24 27.3907 48.24C27.2407 48.24 27.1073 48.2717 26.9907 48.335C26.874 48.395 26.779 48.4917 26.7057 48.625H26.6957V48.31H26.0357ZM0.97 55.045V53.96H1.27C1.45 53.96 1.57833 54.0067 1.655 54.1C1.73167 54.1933 1.77 54.33 1.77 54.51C1.77 54.6933 1.725 54.8283 1.635 54.915C1.54833 55.0017 1.43333 55.045 1.29 55.045H0.97ZM0.25 53.43V57H0.97V55.575H1.355C1.525 55.575 1.68 55.5533 1.82 55.51C1.96 55.4667 2.07833 55.4017 2.175 55.315C2.275 55.2283 2.35167 55.1167 2.405 54.98C2.46167 54.8433 2.49 54.6833 2.49 54.5C2.49 54.3667 2.47333 54.2367 2.44 54.11C2.40667 53.98 2.35167 53.865 2.275 53.765C2.19833 53.665 2.09667 53.585 1.97 53.525C1.84667 53.4617 1.69333 53.43 1.51 53.43H0.25ZM2.82277 54.31V57H3.51277V55.385C3.51277 55.295 3.52777 55.22 3.55777 55.16C3.58777 55.0967 3.62777 55.0467 3.67777 55.01C3.72777 54.97 3.78277 54.9417 3.84277 54.925C3.90277 54.9083 3.96277 54.9 4.02277 54.9C4.05944 54.9 4.09444 54.9017 4.12777 54.905C4.16444 54.905 4.20111 54.9067 4.23777 54.91V54.25C4.21777 54.2467 4.19611 54.245 4.17277 54.245C4.15277 54.2417 4.13277 54.24 4.11277 54.24C3.96944 54.24 3.84777 54.28 3.74777 54.36C3.64777 54.4367 3.56277 54.54 3.49277 54.67H3.48277V54.31H2.82277ZM5.08781 55.655C5.08781 55.5183 5.09115 55.3917 5.09781 55.275C5.10448 55.1583 5.11948 55.0583 5.14281 54.975C5.16948 54.8917 5.20781 54.8267 5.25781 54.78C5.30781 54.7333 5.37448 54.71 5.45781 54.71C5.59781 54.71 5.69448 54.7833 5.74781 54.93C5.80115 55.0767 5.82781 55.3183 5.82781 55.655C5.82781 55.9917 5.80115 56.2333 5.74781 56.38C5.69448 56.5267 5.59781 56.6 5.45781 56.6C5.37448 56.6 5.30781 56.5767 5.25781 56.53C5.20781 56.4833 5.16948 56.4183 5.14281 56.335C5.11948 56.2517 5.10448 56.1517 5.09781 56.035C5.09115 55.9183 5.08781 55.7917 5.08781 55.655ZM4.39781 55.655C4.39781 55.8883 4.41448 56.095 4.44781 56.275C4.48115 56.4517 4.53781 56.6 4.61781 56.72C4.69781 56.8367 4.80615 56.9233 4.94281 56.98C5.07948 57.0333 5.25115 57.0583 5.45781 57.055C5.65448 57.055 5.81948 57.0267 5.95281 56.97C6.08948 56.9133 6.19948 56.8267 6.28281 56.71C6.36615 56.59 6.42615 56.4417 6.46281 56.265C6.49948 56.0883 6.51781 55.885 6.51781 55.655C6.51781 55.4183 6.50115 55.2117 6.46781 55.035C6.43448 54.8583 6.37781 54.71 6.29781 54.59C6.21781 54.47 6.10948 54.3817 5.97281 54.325C5.83615 54.265 5.66448 54.2367 5.45781 54.24C5.26115 54.24 5.09448 54.2717 4.95781 54.335C4.82448 54.395 4.71615 54.485 4.63281 54.605C4.54948 54.7217 4.48948 54.8683 4.45281 55.045C4.41615 55.2217 4.39781 55.425 4.39781 55.655ZM6.91516 53.39V53.98H7.60516V53.39H6.91516ZM6.91516 54.31V56.95C6.91516 57.09 6.90016 57.1933 6.87016 57.26C6.84349 57.33 6.77349 57.365 6.66016 57.365H6.60516C6.58849 57.365 6.57016 57.3617 6.55016 57.355V57.855C6.60016 57.8583 6.64682 57.86 6.69016 57.86C6.73349 57.8633 6.77516 57.865 6.81516 57.865C6.96849 57.865 7.09516 57.85 7.19516 57.82C7.29849 57.79 7.38016 57.745 7.44016 57.685C7.50016 57.6283 7.54182 57.5567 7.56516 57.47C7.59182 57.3833 7.60516 57.2833 7.60516 57.17V54.31H6.91516ZM9.38633 55.35H8.68133V55.245C8.68133 55.1817 8.68633 55.1183 8.69633 55.055C8.70966 54.9917 8.72966 54.935 8.75633 54.885C8.78299 54.8317 8.81799 54.79 8.86133 54.76C8.90799 54.7267 8.96633 54.71 9.03633 54.71C9.10633 54.71 9.16299 54.725 9.20633 54.755C9.25299 54.7817 9.28799 54.8233 9.31133 54.88C9.33799 54.9333 9.35633 55 9.36633 55.08C9.37633 55.1567 9.38299 55.2467 9.38633 55.35ZM8.68133 55.76H10.0463V55.605C10.0463 55.3983 10.033 55.2117 10.0063 55.045C9.97966 54.875 9.92966 54.7317 9.85633 54.615C9.78299 54.495 9.68133 54.4033 9.55133 54.34C9.42466 54.2733 9.26133 54.24 9.06133 54.24C8.82799 54.24 8.64133 54.2783 8.50133 54.355C8.36133 54.4317 8.25299 54.535 8.17633 54.665C8.10299 54.795 8.05299 54.9433 8.02633 55.11C8.00299 55.2767 7.99133 55.45 7.99133 55.63C7.99133 55.8 7.99799 55.97 8.01133 56.14C8.02799 56.31 8.06966 56.4633 8.13633 56.6C8.20299 56.7367 8.30633 56.8467 8.44633 56.93C8.58633 57.0133 8.78133 57.055 9.03133 57.055C9.36133 57.055 9.60299 56.9733 9.75633 56.81C9.90966 56.6467 9.99299 56.4083 10.0063 56.095H9.38633C9.36633 56.265 9.32966 56.3917 9.27633 56.475C9.22299 56.5583 9.13799 56.6 9.02133 56.6C8.95799 56.6 8.90466 56.5833 8.86133 56.55C8.81799 56.5133 8.78299 56.4667 8.75633 56.41C8.72966 56.35 8.70966 56.2833 8.69633 56.21C8.68633 56.1333 8.68133 56.055 8.68133 55.975V55.76ZM11.7008 55.28H12.3608C12.3608 54.96 12.2791 54.7067 12.1158 54.52C11.9558 54.3333 11.7158 54.24 11.3958 54.24C11.2358 54.24 11.0891 54.2617 10.9558 54.305C10.8224 54.3483 10.7074 54.425 10.6108 54.535C10.5141 54.6417 10.4391 54.7867 10.3858 54.97C10.3324 55.15 10.3058 55.3783 10.3058 55.655C10.3058 55.925 10.3274 56.1517 10.3708 56.335C10.4141 56.515 10.4774 56.66 10.5608 56.77C10.6474 56.8767 10.7541 56.9517 10.8808 56.995C11.0108 57.035 11.1624 57.055 11.3358 57.055C11.7024 57.055 11.9641 56.9633 12.1208 56.78C12.2808 56.5933 12.3608 56.3233 12.3608 55.97H11.7008C11.7008 56.19 11.6741 56.35 11.6208 56.45C11.5674 56.55 11.4824 56.6 11.3658 56.6C11.2891 56.6 11.2258 56.5833 11.1758 56.55C11.1291 56.5133 11.0924 56.4567 11.0658 56.38C11.0391 56.3033 11.0208 56.2067 11.0108 56.09C11.0008 55.97 10.9958 55.8267 10.9958 55.66C10.9958 55.5033 11.0008 55.3683 11.0108 55.255C11.0208 55.1383 11.0391 55.0433 11.0658 54.97C11.0924 54.8933 11.1324 54.8367 11.1858 54.8C11.2391 54.76 11.3074 54.74 11.3908 54.74C11.4574 54.74 11.5108 54.7567 11.5508 54.79C11.5908 54.82 11.6208 54.8617 11.6408 54.915C11.6641 54.965 11.6791 55.0217 11.6858 55.085C11.6958 55.1483 11.7008 55.2133 11.7008 55.28ZM12.8702 53.54V54.31H12.5202V54.78H12.8702V56.32C12.8702 56.4567 12.8786 56.57 12.8952 56.66C12.9119 56.75 12.9419 56.8233 12.9852 56.88C13.0319 56.9333 13.0969 56.97 13.1802 56.99C13.2669 57.0067 13.3769 57.015 13.5102 57.015C13.5902 57.015 13.6652 57.0117 13.7352 57.005C13.8086 57.0017 13.8836 57 13.9602 57V56.52C13.9369 56.5233 13.9119 56.5267 13.8852 56.53C13.8586 56.53 13.8319 56.53 13.8052 56.53C13.7052 56.53 13.6386 56.5083 13.6052 56.465C13.5752 56.4183 13.5602 56.3417 13.5602 56.235V54.78H13.9602V54.31H13.5602V53.54H12.8702Z" fill="black"/>
</g>
<defs>
<clipPath id="clip0">
<rect width="40" height="50" fill="white"/>
</clipPath>
</defs>
</svg>
