<svg width="12" height="12" viewBox="0 0 12 12" fill="none" xmlns="http://www.w3.org/2000/svg">
<path fill-rule="evenodd" clip-rule="evenodd" d="M-2.29501e-07 6.24866C-2.38194e-07 6.04977 0.0790087 5.85903 0.219645 5.71839C0.360282 5.57775 0.551026 5.49875 0.749916 5.49875L9.43845 5.49875L6.21831 2.28011C6.14858 2.21038 6.09327 2.12761 6.05554 2.03651C6.0178 1.94541 5.99838 1.84777 5.99838 1.74916C5.99838 1.65056 6.0178 1.55292 6.05554 1.46182C6.09327 1.37072 6.14858 1.28795 6.21831 1.21822C6.28803 1.1485 6.3708 1.09319 6.4619 1.05546C6.553 1.01772 6.65064 0.998301 6.74925 0.998301C6.84785 0.998301 6.94549 1.01772 7.03659 1.05546C7.12769 1.09319 7.21046 1.1485 7.28019 1.21822L11.7797 5.71772C11.8495 5.78738 11.9049 5.87014 11.9427 5.96124C11.9805 6.05235 12 6.15002 12 6.24866C12 6.3473 11.9805 6.44497 11.9427 6.53608C11.9049 6.62719 11.8495 6.70994 11.7797 6.7796L7.28019 11.2791C7.21046 11.3488 7.12769 11.4041 7.03659 11.4419C6.94549 11.4796 6.84785 11.499 6.74925 11.499C6.65064 11.499 6.553 11.4796 6.4619 11.4419C6.3708 11.4041 6.28803 11.3488 6.21831 11.2791C6.07749 11.1383 5.99838 10.9473 5.99838 10.7482C5.99838 10.6496 6.0178 10.5519 6.05554 10.4608C6.09327 10.3697 6.14858 10.2869 6.21831 10.2172L9.43845 6.99858L0.749916 6.99858C0.551026 6.99858 0.360282 6.91957 0.219645 6.77893C0.0790087 6.6383 -2.20807e-07 6.44755 -2.29501e-07 6.24866Z" fill="#7B53C1"/>
</svg>
