<svg width="13" height="11" viewBox="0 0 13 11" fill="none" xmlns="http://www.w3.org/2000/svg">
<path fill-rule="evenodd" clip-rule="evenodd" d="M0.880859 5.50037C0.880859 5.29914 0.960656 5.10615 1.10269 4.96386C1.24473 4.82157 1.43738 4.74163 1.63825 4.74163L10.4134 4.74163L7.16116 1.48512C7.09074 1.41458 7.03488 1.33083 6.99677 1.23866C6.95866 1.14649 6.93905 1.0477 6.93905 0.947937C6.93905 0.848172 6.95866 0.749384 6.99677 0.657213C7.03488 0.565042 7.09074 0.481293 7.16116 0.410749C7.23158 0.340205 7.31518 0.284246 7.40719 0.246068C7.4992 0.207889 7.59781 0.18824 7.6974 0.18824C7.79698 0.18824 7.8956 0.207889 7.9876 0.246068C8.07961 0.284246 8.16321 0.340205 8.23363 0.410749L12.778 4.96318C12.8485 5.03366 12.9045 5.11739 12.9427 5.20957C12.9808 5.30175 13.0005 5.40057 13.0005 5.50037C13.0005 5.60017 12.9808 5.69899 12.9427 5.79117C12.9045 5.88335 12.8485 5.96708 12.778 6.03756L8.23363 10.59C8.16321 10.6605 8.07961 10.7165 7.98761 10.7547C7.8956 10.7928 7.79698 10.8125 7.6974 10.8125C7.59781 10.8125 7.4992 10.7928 7.40719 10.7547C7.31518 10.7165 7.23158 10.6605 7.16116 10.59C7.01894 10.4475 6.93905 10.2543 6.93905 10.0528C6.93905 9.95304 6.95866 9.85425 6.99677 9.76208C7.03488 9.66991 7.09074 9.58616 7.16116 9.51561L10.4134 6.25911L1.63825 6.25911C1.43738 6.25911 1.24473 6.17917 1.10269 6.03688C0.960656 5.89459 0.880859 5.7016 0.880859 5.50037Z" fill="#E35757"/>
</svg>
