<svg width="18" height="18" viewBox="0 0 18 18" fill="none" xmlns="http://www.w3.org/2000/svg">
<path d="M13.6408 13.3755C12.4889 13.3755 11.5391 14.3051 11.5391 15.4772C11.5391 16.6292 12.4687 17.579 13.6408 17.579C14.7928 17.579 15.7426 16.6494 15.7426 15.4772C15.7224 14.3253 14.7928 13.3755 13.6408 13.3755Z" fill="#CECECE"/>
<path d="M17.3395 3.35173C17.2991 3.35173 17.2385 3.33152 17.1779 3.33152H4.44603L4.24394 1.9775C4.12269 1.08829 3.35473 0.421387 2.44532 0.421387H0.80837C0.363766 0.421387 0 0.785153 0 1.22976C0 1.67436 0.363766 2.03813 0.80837 2.03813H2.44532C2.54636 2.03813 2.6272 2.11896 2.64741 2.22001L3.90038 10.7483C4.06206 11.8194 4.99168 12.6278 6.08298 12.6278H14.49C15.5409 12.6278 16.4503 11.88 16.6726 10.8494L17.9862 4.28135C18.0671 3.85696 17.7841 3.43256 17.3395 3.35173Z" fill="#CECECE"/>
<path d="M8.48759 15.3762C8.44717 14.2647 7.51755 13.3755 6.40604 13.3755C5.2339 13.4361 4.3447 14.4062 4.38511 15.5581C4.42553 16.6696 5.33495 17.5588 6.44646 17.5588H6.48688C7.6388 17.4982 8.54822 16.5281 8.48759 15.3762Z" fill="#CECECE"/>
</svg>
