<svg width="28" height="28" viewBox="0 0 28 28" fill="none" xmlns="http://www.w3.org/2000/svg">
<path d="M25.4484 22.3014H2.55187C1.63313 22.3014 0.882812 21.5511 0.882812 20.6323V7.3673C0.882812 6.44855 1.63313 5.69824 2.55187 5.69824H25.4484C26.3672 5.69824 27.1175 6.44855 27.1175 7.3673V20.6323C27.1175 21.5511 26.3672 22.3014 25.4484 22.3014Z" fill="#FFC107"/>
<path d="M0.882812 8.50488H27.1219V12.0202H0.882812V8.50488Z" fill="#424242"/>
<path d="M24.9823 16.2175H3.03512C2.82074 16.2175 2.64355 16.0425 2.64355 15.826V13.9863C2.64355 13.7719 2.81855 13.5947 3.03512 13.5947H24.9823C25.1967 13.5947 25.3739 13.7697 25.3739 13.9863V15.826C25.3717 16.0404 25.1967 16.2175 24.9823 16.2175Z" fill="white"/>
<path d="M5.24609 15.4196C5.36859 15.1834 5.40141 14.9078 5.51078 14.6649C5.62016 14.4221 5.85859 14.1968 6.12109 14.2384C6.36391 14.2778 6.51484 14.5206 6.60453 14.7481C6.72922 15.0653 6.79703 15.4043 6.80578 15.7456C6.80797 15.8156 6.80359 15.8921 6.75766 15.9468C6.67672 16.0387 6.51047 15.9928 6.44703 15.8878C6.38359 15.7828 6.39891 15.6493 6.42734 15.529C6.56297 14.9712 7.00047 14.4965 7.54516 14.3171C7.60203 14.2974 7.66109 14.2821 7.72016 14.2931C7.84703 14.3171 7.91703 14.4484 7.97391 14.5621C8.10734 14.8224 8.26922 15.0696 8.45516 15.2949C8.52953 15.3868 8.61484 15.4765 8.72859 15.5115C9.10266 15.6209 9.31922 15.0696 9.68016 14.9231C10.1133 14.7481 10.5355 15.2053 10.9948 15.2906C11.6664 15.4153 12.023 14.8924 12.6114 14.759C12.6902 14.7415 12.7755 14.7306 12.8542 14.7524C12.9986 14.794 13.0883 14.9318 13.1736 15.0565C13.3727 15.3496 13.657 15.6384 14.0114 15.6406C14.2367 15.6428 14.4445 15.5268 14.6502 15.4284C15.3786 15.0806 16.2383 14.9362 16.9995 15.2031" stroke="#424242" stroke-width="0.25" stroke-miterlimit="10" stroke-linecap="round" stroke-linejoin="round"/>
</svg>
