<svg width="21" height="23" viewBox="0 0 21 23" fill="none" xmlns="http://www.w3.org/2000/svg">
<path d="M10.5002 3.69761e-08C11.4298 -0.000130856 12.3259 0.347257 13.0125 0.973954C13.6991 1.60065 14.1266 2.46138 14.2111 3.38715H19.9842C20.2416 3.38723 20.4894 3.48503 20.6776 3.66079C20.8657 3.83655 20.9801 4.07717 20.9976 4.33403C21.0152 4.59089 20.9346 4.84483 20.7721 5.04454C20.6096 5.24426 20.3774 5.37486 20.1224 5.40995L19.9842 5.41944H19.1943L17.4777 20.2958C17.4012 20.9561 17.0847 21.5654 16.5883 22.0075C16.0919 22.4497 15.4503 22.694 14.7856 22.6939H6.21474C5.54997 22.694 4.90837 22.4497 4.41199 22.0075C3.9156 21.5654 3.59908 20.9561 3.52263 20.2958L1.80467 5.41944H1.01614C0.770593 5.41942 0.533351 5.3305 0.348293 5.1691C0.163234 5.0077 0.0428789 4.78476 0.00948397 4.54149L0 4.40329C1.0355e-05 4.15774 0.0889365 3.9205 0.250333 3.73544C0.41173 3.55038 0.634679 3.43003 0.877948 3.39663L1.01614 3.38715H6.7892C6.87371 2.46138 7.30124 1.60065 7.98785 0.973954C8.67446 0.347257 9.57054 -0.000130856 10.5002 3.69761e-08ZM8.46787 8.46787C8.13593 8.46787 7.85818 8.67787 7.80128 8.95426L7.79044 9.0613V17.3598L7.80128 17.4655C7.85818 17.7419 8.13593 17.9519 8.46787 17.9519C8.79981 17.9519 9.07755 17.7419 9.13446 17.4655L9.1453 17.3584V9.06265L9.13446 8.95426C9.07755 8.67923 8.79981 8.46787 8.46787 8.46787ZM12.5324 8.46787C12.2005 8.46787 11.9228 8.67787 11.8659 8.95426L11.855 9.0613V17.3598L11.8659 17.4655C11.9228 17.7419 12.2005 17.9519 12.5324 17.9519C12.8644 17.9519 13.1421 17.7419 13.199 17.4655L13.2099 17.3584V9.06265L13.199 8.95426C13.1421 8.67923 12.8644 8.46922 12.5324 8.46922V8.46787ZM10.5002 2.03229C9.68047 2.03229 8.99626 2.61488 8.84045 3.38715H12.1599C12.0027 2.61488 11.3198 2.03229 10.5002 2.03229Z" fill="#7B53C1"/>
</svg>
