<svg width="40" height="50" viewBox="0 0 40 50" fill="none" xmlns="http://www.w3.org/2000/svg">
<g clip-path="url(#clip0)">
<path d="M32.8008 10.2398V4.67583H25.0008L20.0008 0.923828L15.0008 4.67583H7.20078V10.2438L0.800781 15.3398V39.0758H39.2008V15.3398L32.8008 10.2398ZM38.0008 15.9198V15.9798V15.9478L32.8008 19.0558V11.7758L38.0008 15.9198ZM20.0008 2.42383L23.0008 4.67583H17.0008L20.0008 2.42383ZM31.6008 5.87583V19.7758L20.2528 26.5758L8.40078 19.5558V5.87583H31.6008ZM19.0848 27.2798L2.00078 37.5238V17.1598L19.0848 27.2798ZM7.20078 18.8438L2.11278 15.8318L7.20078 11.7758V18.8438ZM3.74878 37.8758L38.0008 17.3358V37.8758H3.74878Z" fill="black"/>
<path d="M25.2008 8.67578H14.8008V9.87578H25.2008V8.67578Z" fill="black"/>
<path d="M28.7992 11.4756H11.1992V12.6756H28.7992V11.4756Z" fill="black"/>
<path d="M28.7992 14.2764H11.1992V15.4764H28.7992V14.2764Z" fill="black"/>
<path d="M28.7992 17.0762H11.1992V18.2762H28.7992V17.0762Z" fill="black"/>
<path d="M1.775 46.635H2.495C2.495 46.505 2.485 46.3667 2.465 46.22C2.44833 46.07 2.40333 45.9317 2.33 45.805C2.25667 45.675 2.145 45.5683 1.995 45.485C1.84833 45.4017 1.64667 45.36 1.39 45.36C1.12 45.36 0.905 45.4067 0.745 45.5C0.585 45.59 0.461667 45.7167 0.375 45.88C0.291667 46.0433 0.236667 46.24 0.21 46.47C0.186667 46.6967 0.175 46.945 0.175 47.215C0.175 47.4883 0.186667 47.7383 0.21 47.965C0.236667 48.1917 0.291667 48.3867 0.375 48.55C0.461667 48.7133 0.585 48.8383 0.745 48.925C0.905 49.0117 1.12 49.055 1.39 49.055C1.62667 49.055 1.81833 49.0183 1.965 48.945C2.115 48.8717 2.23 48.77 2.31 48.64C2.39333 48.51 2.45 48.3583 2.48 48.185C2.51 48.0117 2.525 47.8283 2.525 47.635H1.805C1.805 47.8283 1.79333 47.985 1.77 48.105C1.74667 48.2217 1.715 48.3133 1.675 48.38C1.635 48.4433 1.58667 48.4867 1.53 48.51C1.47667 48.53 1.41833 48.54 1.355 48.54C1.27833 48.54 1.21 48.525 1.15 48.495C1.09333 48.4617 1.045 48.4 1.005 48.31C0.968333 48.2167 0.94 48.0867 0.92 47.92C0.903333 47.7533 0.895 47.535 0.895 47.265C0.895 47.0117 0.901667 46.7983 0.915 46.625C0.928333 46.4483 0.951667 46.3067 0.985 46.2C1.01833 46.09 1.06333 46.0117 1.12 45.965C1.18 45.915 1.255 45.89 1.345 45.89C1.50833 45.89 1.62 45.95 1.68 46.07C1.74333 46.1867 1.775 46.375 1.775 46.635ZM2.91555 46.31V49H3.60555V47.385C3.60555 47.295 3.62055 47.22 3.65055 47.16C3.68055 47.0967 3.72055 47.0467 3.77055 47.01C3.82055 46.97 3.87555 46.9417 3.93555 46.925C3.99555 46.9083 4.05555 46.9 4.11555 46.9C4.15221 46.9 4.18721 46.9017 4.22055 46.905C4.25721 46.905 4.29388 46.9067 4.33055 46.91V46.25C4.31055 46.2467 4.28888 46.245 4.26555 46.245C4.24555 46.2417 4.22555 46.24 4.20555 46.24C4.06221 46.24 3.94055 46.28 3.84055 46.36C3.74055 46.4367 3.65555 46.54 3.58555 46.67H3.57555V46.31H2.91555ZM5.87559 47.35H5.17059V47.245C5.17059 47.1817 5.17559 47.1183 5.18559 47.055C5.19892 46.9917 5.21892 46.935 5.24559 46.885C5.27225 46.8317 5.30725 46.79 5.35059 46.76C5.39725 46.7267 5.45559 46.71 5.52559 46.71C5.59559 46.71 5.65225 46.725 5.69559 46.755C5.74225 46.7817 5.77725 46.8233 5.80059 46.88C5.82725 46.9333 5.84559 47 5.85559 47.08C5.86559 47.1567 5.87225 47.2467 5.87559 47.35ZM5.17059 47.76H6.53559V47.605C6.53559 47.3983 6.52225 47.2117 6.49559 47.045C6.46892 46.875 6.41892 46.7317 6.34559 46.615C6.27225 46.495 6.17059 46.4033 6.04059 46.34C5.91392 46.2733 5.75059 46.24 5.55059 46.24C5.31725 46.24 5.13059 46.2783 4.99059 46.355C4.85059 46.4317 4.74225 46.535 4.66559 46.665C4.59225 46.795 4.54225 46.9433 4.51559 47.11C4.49225 47.2767 4.48059 47.45 4.48059 47.63C4.48059 47.8 4.48725 47.97 4.50059 48.14C4.51725 48.31 4.55892 48.4633 4.62559 48.6C4.69225 48.7367 4.79559 48.8467 4.93559 48.93C5.07559 49.0133 5.27059 49.055 5.52059 49.055C5.85059 49.055 6.09225 48.9733 6.24559 48.81C6.39892 48.6467 6.48225 48.4083 6.49559 48.095H5.87559C5.85559 48.265 5.81892 48.3917 5.76559 48.475C5.71225 48.5583 5.62725 48.6 5.51059 48.6C5.44725 48.6 5.39392 48.5833 5.35059 48.55C5.30725 48.5133 5.27225 48.4667 5.24559 48.41C5.21892 48.35 5.19892 48.2833 5.18559 48.21C5.17559 48.1333 5.17059 48.055 5.17059 47.975V47.76ZM8.15004 47.655V48.185C8.15004 48.2583 8.13671 48.3217 8.11004 48.375C8.08337 48.4283 8.04837 48.4717 8.00504 48.505C7.96504 48.5383 7.92004 48.5633 7.87004 48.58C7.82004 48.5933 7.77171 48.6 7.72504 48.6C7.63171 48.6 7.56504 48.5633 7.52504 48.49C7.48504 48.4167 7.46504 48.3283 7.46504 48.225C7.46504 48.105 7.49504 48.01 7.55504 47.94C7.61504 47.87 7.71504 47.82 7.85504 47.79C7.89837 47.78 7.94671 47.765 8.00004 47.745C8.05337 47.7217 8.10337 47.6917 8.15004 47.655ZM6.89004 47.135H7.51004V47.06C7.51004 46.9533 7.53671 46.8683 7.59004 46.805C7.64337 46.7417 7.72337 46.71 7.83004 46.71C7.94671 46.71 8.02837 46.74 8.07504 46.8C8.12504 46.8567 8.15004 46.9367 8.15004 47.04C8.15004 47.13 8.13004 47.1983 8.09004 47.245C8.05004 47.2917 7.97837 47.3283 7.87504 47.355L7.48504 47.46C7.36504 47.4933 7.26171 47.5317 7.17504 47.575C7.09171 47.6183 7.02171 47.6733 6.96504 47.74C6.91171 47.8033 6.87171 47.8817 6.84504 47.975C6.81837 48.065 6.80504 48.1733 6.80504 48.3C6.80504 48.39 6.81671 48.4817 6.84004 48.575C6.86337 48.665 6.90004 48.7467 6.95004 48.82C7.00004 48.8933 7.06671 48.9517 7.15004 48.995C7.23337 49.035 7.33504 49.055 7.45504 49.055C7.62171 49.055 7.75671 49.035 7.86004 48.995C7.96671 48.9517 8.06004 48.86 8.14004 48.72H8.15004C8.16004 48.7667 8.17004 48.815 8.18004 48.865C8.19337 48.9117 8.21171 48.9567 8.23504 49H8.89504C8.86171 48.92 8.83837 48.845 8.82504 48.775C8.81504 48.705 8.81004 48.6067 8.81004 48.48V47.065C8.81004 46.945 8.79671 46.835 8.77004 46.735C8.74671 46.6317 8.70004 46.5433 8.63004 46.47C8.56004 46.3967 8.46171 46.34 8.33504 46.3C8.20837 46.26 8.04171 46.24 7.83504 46.24C7.70504 46.24 7.58171 46.255 7.46504 46.285C7.35171 46.3117 7.25171 46.3583 7.16504 46.425C7.08171 46.4883 7.01504 46.5733 6.96504 46.68C6.91504 46.7833 6.89004 46.9133 6.89004 47.07V47.135ZM9.45227 45.54V46.31H9.10227V46.78H9.45227V48.32C9.45227 48.4567 9.4606 48.57 9.47727 48.66C9.49393 48.75 9.52393 48.8233 9.56727 48.88C9.61393 48.9333 9.67893 48.97 9.76227 48.99C9.84893 49.0067 9.95893 49.015 10.0923 49.015C10.1723 49.015 10.2473 49.0117 10.3173 49.005C10.3906 49.0017 10.4656 49 10.5423 49V48.52C10.5189 48.5233 10.4939 48.5267 10.4673 48.53C10.4406 48.53 10.4139 48.53 10.3873 48.53C10.2873 48.53 10.2206 48.5083 10.1873 48.465C10.1573 48.4183 10.1423 48.3417 10.1423 48.235V46.78H10.5423V46.31H10.1423V45.54H9.45227ZM12.0768 47.35H11.3718V47.245C11.3718 47.1817 11.3768 47.1183 11.3868 47.055C11.4001 46.9917 11.4201 46.935 11.4468 46.885C11.4734 46.8317 11.5084 46.79 11.5518 46.76C11.5984 46.7267 11.6568 46.71 11.7268 46.71C11.7968 46.71 11.8534 46.725 11.8968 46.755C11.9434 46.7817 11.9784 46.8233 12.0018 46.88C12.0284 46.9333 12.0468 47 12.0568 47.08C12.0668 47.1567 12.0734 47.2467 12.0768 47.35ZM11.3718 47.76H12.7368V47.605C12.7368 47.3983 12.7234 47.2117 12.6968 47.045C12.6701 46.875 12.6201 46.7317 12.5468 46.615C12.4734 46.495 12.3718 46.4033 12.2418 46.34C12.1151 46.2733 11.9518 46.24 11.7518 46.24C11.5184 46.24 11.3318 46.2783 11.1918 46.355C11.0518 46.4317 10.9434 46.535 10.8668 46.665C10.7934 46.795 10.7434 46.9433 10.7168 47.11C10.6934 47.2767 10.6818 47.45 10.6818 47.63C10.6818 47.8 10.6884 47.97 10.7018 48.14C10.7184 48.31 10.7601 48.4633 10.8268 48.6C10.8934 48.7367 10.9968 48.8467 11.1368 48.93C11.2768 49.0133 11.4718 49.055 11.7218 49.055C12.0518 49.055 12.2934 48.9733 12.4468 48.81C12.6001 48.6467 12.6834 48.4083 12.6968 48.095H12.0768C12.0568 48.265 12.0201 48.3917 11.9668 48.475C11.9134 48.5583 11.8284 48.6 11.7118 48.6C11.6484 48.6 11.5951 48.5833 11.5518 48.55C11.5084 48.5133 11.4734 48.4667 11.4468 48.41C11.4201 48.35 11.4001 48.2833 11.3868 48.21C11.3768 48.1333 11.3718 48.055 11.3718 47.975V47.76ZM14.4762 48.715V49H15.1362V45.43H14.4462V46.56H14.4362C14.3629 46.4533 14.2795 46.3733 14.1862 46.32C14.0962 46.2667 13.9862 46.24 13.8562 46.24C13.5729 46.24 13.3645 46.3517 13.2312 46.575C13.0979 46.795 13.0312 47.155 13.0312 47.655C13.0312 48.155 13.0979 48.5133 13.2312 48.73C13.3645 48.9467 13.5729 49.055 13.8562 49.055C13.9962 49.055 14.1129 49.03 14.2062 48.98C14.3029 48.93 14.3895 48.8417 14.4662 48.715H14.4762ZM13.7212 47.655C13.7212 47.3617 13.7429 47.1417 13.7862 46.995C13.8329 46.845 13.9312 46.77 14.0812 46.77C14.2345 46.77 14.3329 46.845 14.3762 46.995C14.4229 47.1417 14.4462 47.3617 14.4462 47.655C14.4462 47.9483 14.4229 48.17 14.3762 48.32C14.3329 48.4667 14.2345 48.54 14.0812 48.54C13.9312 48.54 13.8329 48.4667 13.7862 48.32C13.7429 48.17 13.7212 47.9483 13.7212 47.655ZM16.7974 45.43V49H17.4574V48.715H17.4674C17.544 48.8417 17.629 48.93 17.7224 48.98C17.819 49.03 17.9374 49.055 18.0774 49.055C18.3607 49.055 18.569 48.9467 18.7024 48.73C18.8357 48.5133 18.9024 48.155 18.9024 47.655C18.9024 47.155 18.8357 46.795 18.7024 46.575C18.569 46.3517 18.3607 46.24 18.0774 46.24C17.9474 46.24 17.8357 46.2667 17.7424 46.32C17.6524 46.3733 17.5707 46.4533 17.4974 46.56H17.4874V45.43H16.7974ZM17.4874 47.655C17.4874 47.3617 17.509 47.1417 17.5524 46.995C17.599 46.845 17.699 46.77 17.8524 46.77C18.0024 46.77 18.099 46.845 18.1424 46.995C18.189 47.1417 18.2124 47.3617 18.2124 47.655C18.2124 47.9483 18.189 48.17 18.1424 48.32C18.099 48.4667 18.0024 48.54 17.8524 48.54C17.699 48.54 17.599 48.4667 17.5524 48.32C17.509 48.17 17.4874 47.9483 17.4874 47.655ZM19.2974 49.35V49.865H19.5774C19.7374 49.865 19.869 49.8533 19.9724 49.83C20.079 49.8067 20.169 49.7567 20.2424 49.68C20.319 49.6067 20.384 49.5 20.4374 49.36C20.494 49.2233 20.5524 49.0433 20.6124 48.82L21.2624 46.31H20.5724L20.2224 48.17H20.2124L19.8124 46.31H19.0924L19.8474 49C19.8374 49.11 19.804 49.1983 19.7474 49.265C19.694 49.3317 19.604 49.365 19.4774 49.365C19.4174 49.365 19.3574 49.36 19.2974 49.35ZM23.5702 45.43H22.7402V49H23.4002V46.5H23.4102L24.2902 49H25.1102V45.43H24.4502V47.875H24.4402L23.5702 45.43ZM25.6163 45.39V45.98H26.3063V45.39H25.6163ZM25.6163 46.31V49H26.3063V46.31H25.6163ZM27.5075 45.43H26.8175V49H27.5075V48.215L27.7525 47.895L28.3275 49H29.0875L28.1975 47.37L28.9725 46.31H28.2125L27.5175 47.315H27.5075V45.43ZM29.3175 45.39V45.98H30.0075V45.39H29.3175ZM29.3175 46.31V49H30.0075V46.31H29.3175ZM30.6437 45.54V46.31H30.2937V46.78H30.6437V48.32C30.6437 48.4567 30.652 48.57 30.6687 48.66C30.6853 48.75 30.7153 48.8233 30.7587 48.88C30.8053 48.9333 30.8703 48.97 30.9537 48.99C31.0403 49.0067 31.1503 49.015 31.2837 49.015C31.3637 49.015 31.4387 49.0117 31.5087 49.005C31.582 49.0017 31.657 49 31.7337 49V48.52C31.7103 48.5233 31.6853 48.5267 31.6587 48.53C31.632 48.53 31.6053 48.53 31.5787 48.53C31.4787 48.53 31.412 48.5083 31.3787 48.465C31.3487 48.4183 31.3337 48.3417 31.3337 48.235V46.78H31.7337V46.31H31.3337V45.54H30.6437ZM33.2282 47.655V48.185C33.2282 48.2583 33.2148 48.3217 33.1882 48.375C33.1615 48.4283 33.1265 48.4717 33.0832 48.505C33.0432 48.5383 32.9982 48.5633 32.9482 48.58C32.8982 48.5933 32.8498 48.6 32.8032 48.6C32.7098 48.6 32.6432 48.5633 32.6032 48.49C32.5632 48.4167 32.5432 48.3283 32.5432 48.225C32.5432 48.105 32.5732 48.01 32.6332 47.94C32.6932 47.87 32.7932 47.82 32.9332 47.79C32.9765 47.78 33.0248 47.765 33.0782 47.745C33.1315 47.7217 33.1815 47.6917 33.2282 47.655ZM31.9682 47.135H32.5882V47.06C32.5882 46.9533 32.6148 46.8683 32.6682 46.805C32.7215 46.7417 32.8015 46.71 32.9082 46.71C33.0248 46.71 33.1065 46.74 33.1532 46.8C33.2032 46.8567 33.2282 46.9367 33.2282 47.04C33.2282 47.13 33.2082 47.1983 33.1682 47.245C33.1282 47.2917 33.0565 47.3283 32.9532 47.355L32.5632 47.46C32.4432 47.4933 32.3398 47.5317 32.2532 47.575C32.1698 47.6183 32.0998 47.6733 32.0432 47.74C31.9898 47.8033 31.9498 47.8817 31.9232 47.975C31.8965 48.065 31.8832 48.1733 31.8832 48.3C31.8832 48.39 31.8948 48.4817 31.9182 48.575C31.9415 48.665 31.9782 48.7467 32.0282 48.82C32.0782 48.8933 32.1448 48.9517 32.2282 48.995C32.3115 49.035 32.4132 49.055 32.5332 49.055C32.6998 49.055 32.8348 49.035 32.9382 48.995C33.0448 48.9517 33.1382 48.86 33.2182 48.72H33.2282C33.2382 48.7667 33.2482 48.815 33.2582 48.865C33.2715 48.9117 33.2898 48.9567 33.3132 49H33.9732C33.9398 48.92 33.9165 48.845 33.9032 48.775C33.8932 48.705 33.8882 48.6067 33.8882 48.48V47.065C33.8882 46.945 33.8748 46.835 33.8482 46.735C33.8248 46.6317 33.7782 46.5433 33.7082 46.47C33.6382 46.3967 33.5398 46.34 33.4132 46.3C33.2865 46.26 33.1198 46.24 32.9132 46.24C32.7832 46.24 32.6598 46.255 32.5432 46.285C32.4298 46.3117 32.3298 46.3583 32.2432 46.425C32.1598 46.4883 32.0932 46.5733 32.0432 46.68C31.9932 46.7833 31.9682 46.9133 31.9682 47.07V47.135ZM0.97 51.43H0.25V55H0.97V53.94L1.235 53.535L1.97 55H2.78L1.7 52.96L2.67 51.43H1.89L0.98 52.86H0.97V51.43ZM3.41789 53.655C3.41789 53.5183 3.42122 53.3917 3.42789 53.275C3.43456 53.1583 3.44956 53.0583 3.47289 52.975C3.49956 52.8917 3.53789 52.8267 3.58789 52.78C3.63789 52.7333 3.70456 52.71 3.78789 52.71C3.92789 52.71 4.02456 52.7833 4.07789 52.93C4.13122 53.0767 4.15789 53.3183 4.15789 53.655C4.15789 53.9917 4.13122 54.2333 4.07789 54.38C4.02456 54.5267 3.92789 54.6 3.78789 54.6C3.70456 54.6 3.63789 54.5767 3.58789 54.53C3.53789 54.4833 3.49956 54.4183 3.47289 54.335C3.44956 54.2517 3.43456 54.1517 3.42789 54.035C3.42122 53.9183 3.41789 53.7917 3.41789 53.655ZM2.72789 53.655C2.72789 53.8883 2.74456 54.095 2.77789 54.275C2.81122 54.4517 2.86789 54.6 2.94789 54.72C3.02789 54.8367 3.13622 54.9233 3.27289 54.98C3.40956 55.0333 3.58122 55.0583 3.78789 55.055C3.98456 55.055 4.14956 55.0267 4.28289 54.97C4.41956 54.9133 4.52956 54.8267 4.61289 54.71C4.69622 54.59 4.75622 54.4417 4.79289 54.265C4.82956 54.0883 4.84789 53.885 4.84789 53.655C4.84789 53.4183 4.83122 53.2117 4.79789 53.035C4.76456 52.8583 4.70789 52.71 4.62789 52.59C4.54789 52.47 4.43956 52.3817 4.30289 52.325C4.16622 52.265 3.99456 52.2367 3.78789 52.24C3.59122 52.24 3.42456 52.2717 3.28789 52.335C3.15456 52.395 3.04622 52.485 2.96289 52.605C2.87956 52.7217 2.81956 52.8683 2.78289 53.045C2.74622 53.2217 2.72789 53.425 2.72789 53.655ZM5.11023 54.47V55H7.00023V54.44H5.92523L7.00023 52.84V52.31H5.16023V52.87H6.18523L5.11023 54.47ZM7.37414 51.39V51.98H8.06414V51.39H7.37414ZM7.37414 52.31V55H8.06414V52.31H7.37414ZM8.55031 52.31V55H9.24031V53.215C9.24031 52.9183 9.36198 52.77 9.60531 52.77C9.70865 52.77 9.78365 52.7983 9.83031 52.855C9.87698 52.9083 9.90031 53.005 9.90031 53.145V55H10.5903V53.005C10.5903 52.735 10.5303 52.54 10.4103 52.42C10.2936 52.3 10.1253 52.24 9.90531 52.24C9.75531 52.24 9.62198 52.2717 9.50531 52.335C9.38865 52.395 9.29365 52.4917 9.22031 52.625H9.21031V52.31H8.55031Z" fill="black"/>
<path d="M0.38 48.78V51H1.07V48.78H1.47V48.31H1.07V48.075C1.07 47.9983 1.09 47.9433 1.13 47.91C1.17 47.8767 1.23833 47.86 1.335 47.86H1.4C1.43 47.86 1.45333 47.8617 1.47 47.865V47.375C1.34667 47.365 1.22333 47.36 1.1 47.36C0.99 47.36 0.89 47.3717 0.8 47.395C0.71 47.415 0.633333 47.45 0.57 47.5C0.51 47.55 0.463333 47.6167 0.43 47.7C0.396667 47.7833 0.38 47.885 0.38 48.005V48.31H0.03V48.78H0.38ZM1.70949 48.31V51H2.39949V49.385C2.39949 49.295 2.41449 49.22 2.44449 49.16C2.47449 49.0967 2.51449 49.0467 2.56449 49.01C2.61449 48.97 2.66949 48.9417 2.72949 48.925C2.78949 48.9083 2.84949 48.9 2.90949 48.9C2.94616 48.9 2.98116 48.9017 3.01449 48.905C3.05116 48.905 3.08783 48.9067 3.12449 48.91V48.25C3.10449 48.2467 3.08283 48.245 3.05949 48.245C3.03949 48.2417 3.01949 48.24 2.99949 48.24C2.85616 48.24 2.73449 48.28 2.63449 48.36C2.53449 48.4367 2.44949 48.54 2.37949 48.67H2.36949V48.31H1.70949ZM3.97453 49.655C3.97453 49.5183 3.97786 49.3917 3.98453 49.275C3.9912 49.1583 4.0062 49.0583 4.02953 48.975C4.0562 48.8917 4.09453 48.8267 4.14453 48.78C4.19453 48.7333 4.2612 48.71 4.34453 48.71C4.48453 48.71 4.5812 48.7833 4.63453 48.93C4.68786 49.0767 4.71453 49.3183 4.71453 49.655C4.71453 49.9917 4.68786 50.2333 4.63453 50.38C4.5812 50.5267 4.48453 50.6 4.34453 50.6C4.2612 50.6 4.19453 50.5767 4.14453 50.53C4.09453 50.4833 4.0562 50.4183 4.02953 50.335C4.0062 50.2517 3.9912 50.1517 3.98453 50.035C3.97786 49.9183 3.97453 49.7917 3.97453 49.655ZM3.28453 49.655C3.28453 49.8883 3.3012 50.095 3.33453 50.275C3.36786 50.4517 3.42453 50.6 3.50453 50.72C3.58453 50.8367 3.69286 50.9233 3.82953 50.98C3.9662 51.0333 4.13786 51.0583 4.34453 51.055C4.5412 51.055 4.7062 51.0267 4.83953 50.97C4.9762 50.9133 5.0862 50.8267 5.16953 50.71C5.25286 50.59 5.31286 50.4417 5.34953 50.265C5.3862 50.0883 5.40453 49.885 5.40453 49.655C5.40453 49.4183 5.38786 49.2117 5.35453 49.035C5.3212 48.8583 5.26453 48.71 5.18453 48.59C5.10453 48.47 4.9962 48.3817 4.85953 48.325C4.72286 48.265 4.5512 48.2367 4.34453 48.24C4.14786 48.24 3.9812 48.2717 3.84453 48.335C3.7112 48.395 3.60286 48.485 3.51953 48.605C3.4362 48.7217 3.3762 48.8683 3.33953 49.045C3.30286 49.2217 3.28453 49.425 3.28453 49.655ZM5.77688 48.31V51H6.46688V49.23C6.46688 49.07 6.49854 48.9533 6.56188 48.88C6.62854 48.8067 6.71688 48.77 6.82688 48.77C6.92354 48.77 6.99188 48.8 7.03188 48.86C7.07521 48.92 7.09688 49.0067 7.09688 49.12V51H7.78688V49.23C7.78688 49.07 7.81854 48.9533 7.88188 48.88C7.94854 48.8067 8.03688 48.77 8.14688 48.77C8.24354 48.77 8.31188 48.8 8.35188 48.86C8.39521 48.92 8.41688 49.0067 8.41688 49.12V51H9.10688V49.045C9.10688 48.785 9.05188 48.5867 8.94188 48.45C8.83521 48.31 8.66688 48.24 8.43688 48.24C8.27354 48.24 8.13188 48.2767 8.01188 48.35C7.89521 48.42 7.81021 48.5267 7.75688 48.67H7.74688C7.71021 48.53 7.63688 48.4233 7.52688 48.35C7.42021 48.2767 7.28688 48.24 7.12688 48.24C6.97688 48.24 6.84688 48.2667 6.73688 48.32C6.63021 48.3733 6.53354 48.4617 6.44688 48.585H6.43688V48.31H5.77688ZM10.9171 47.54V48.31H10.5671V48.78H10.9171V50.32C10.9171 50.4567 10.9254 50.57 10.9421 50.66C10.9588 50.75 10.9888 50.8233 11.0321 50.88C11.0788 50.9333 11.1438 50.97 11.2271 50.99C11.3138 51.0067 11.4238 51.015 11.5571 51.015C11.6371 51.015 11.7121 51.0117 11.7821 51.005C11.8554 51.0017 11.9304 51 12.0071 51V50.52C11.9838 50.5233 11.9588 50.5267 11.9321 50.53C11.9054 50.53 11.8788 50.53 11.8521 50.53C11.7521 50.53 11.6854 50.5083 11.6521 50.465C11.6221 50.4183 11.6071 50.3417 11.6071 50.235V48.78H12.0071V48.31H11.6071V47.54H10.9171ZM12.2466 47.43V51H12.9366V49.215C12.9366 48.9183 13.0583 48.77 13.3016 48.77C13.4049 48.77 13.4799 48.7983 13.5266 48.855C13.5733 48.9083 13.5966 49.005 13.5966 49.145V51H14.2866V49.005C14.2866 48.735 14.2266 48.54 14.1066 48.42C13.9899 48.3 13.8216 48.24 13.6016 48.24C13.2983 48.24 13.0799 48.355 12.9466 48.585H12.9366V47.43H12.2466ZM16.0416 49.35H15.3366V49.245C15.3366 49.1817 15.3416 49.1183 15.3516 49.055C15.3649 48.9917 15.3849 48.935 15.4116 48.885C15.4383 48.8317 15.4733 48.79 15.5166 48.76C15.5633 48.7267 15.6216 48.71 15.6916 48.71C15.7616 48.71 15.8183 48.725 15.8616 48.755C15.9083 48.7817 15.9433 48.8233 15.9666 48.88C15.9933 48.9333 16.0116 49 16.0216 49.08C16.0316 49.1567 16.0383 49.2467 16.0416 49.35ZM15.3366 49.76H16.7016V49.605C16.7016 49.3983 16.6883 49.2117 16.6616 49.045C16.6349 48.875 16.5849 48.7317 16.5116 48.615C16.4383 48.495 16.3366 48.4033 16.2066 48.34C16.0799 48.2733 15.9166 48.24 15.7166 48.24C15.4833 48.24 15.2966 48.2783 15.1566 48.355C15.0166 48.4317 14.9083 48.535 14.8316 48.665C14.7583 48.795 14.7083 48.9433 14.6816 49.11C14.6583 49.2767 14.6466 49.45 14.6466 49.63C14.6466 49.8 14.6533 49.97 14.6666 50.14C14.6833 50.31 14.7249 50.4633 14.7916 50.6C14.8583 50.7367 14.9616 50.8467 15.1016 50.93C15.2416 51.0133 15.4366 51.055 15.6866 51.055C16.0166 51.055 16.2583 50.9733 16.4116 50.81C16.5649 50.6467 16.6483 50.4083 16.6616 50.095H16.0416C16.0216 50.265 15.9849 50.3917 15.9316 50.475C15.8783 50.5583 15.7933 50.6 15.6766 50.6C15.6133 50.6 15.5599 50.5833 15.5166 50.55C15.4733 50.5133 15.4383 50.4667 15.4116 50.41C15.3849 50.35 15.3649 50.2833 15.3516 50.21C15.3416 50.1333 15.3366 50.055 15.3366 49.975V49.76ZM19.1122 47.43H18.2822V51H18.9422V48.5H18.9522L19.8322 51H20.6522V47.43H19.9922V49.875H19.9822L19.1122 47.43ZM21.7333 49.655C21.7333 49.5183 21.7367 49.3917 21.7433 49.275C21.75 49.1583 21.765 49.0583 21.7883 48.975C21.815 48.8917 21.8533 48.8267 21.9033 48.78C21.9533 48.7333 22.02 48.71 22.1033 48.71C22.2433 48.71 22.34 48.7833 22.3933 48.93C22.4467 49.0767 22.4733 49.3183 22.4733 49.655C22.4733 49.9917 22.4467 50.2333 22.3933 50.38C22.34 50.5267 22.2433 50.6 22.1033 50.6C22.02 50.6 21.9533 50.5767 21.9033 50.53C21.8533 50.4833 21.815 50.4183 21.7883 50.335C21.765 50.2517 21.75 50.1517 21.7433 50.035C21.7367 49.9183 21.7333 49.7917 21.7333 49.655ZM21.0433 49.655C21.0433 49.8883 21.06 50.095 21.0933 50.275C21.1267 50.4517 21.1833 50.6 21.2633 50.72C21.3433 50.8367 21.4517 50.9233 21.5883 50.98C21.725 51.0333 21.8967 51.0583 22.1033 51.055C22.3 51.055 22.465 51.0267 22.5983 50.97C22.735 50.9133 22.845 50.8267 22.9283 50.71C23.0117 50.59 23.0717 50.4417 23.1083 50.265C23.145 50.0883 23.1633 49.885 23.1633 49.655C23.1633 49.4183 23.1467 49.2117 23.1133 49.035C23.08 48.8583 23.0233 48.71 22.9433 48.59C22.8633 48.47 22.755 48.3817 22.6183 48.325C22.4817 48.265 22.31 48.2367 22.1033 48.24C21.9067 48.24 21.74 48.2717 21.6033 48.335C21.47 48.395 21.3617 48.485 21.2783 48.605C21.195 48.7217 21.135 48.8683 21.0983 49.045C21.0617 49.2217 21.0433 49.425 21.0433 49.655ZM24.9157 50.685V51H25.5757V48.31H24.8857V50.095C24.8857 50.3917 24.764 50.54 24.5207 50.54C24.4173 50.54 24.3423 50.5133 24.2957 50.46C24.249 50.4033 24.2257 50.305 24.2257 50.165V48.31H23.5357V50.305C23.5357 50.575 23.594 50.7683 23.7107 50.885C23.8307 50.9983 24.0007 51.055 24.2207 51.055C24.3707 51.055 24.504 51.0267 24.6207 50.97C24.7373 50.9133 24.8323 50.8183 24.9057 50.685H24.9157ZM26.0357 48.31V51H26.7257V49.215C26.7257 48.9183 26.8473 48.77 27.0907 48.77C27.194 48.77 27.269 48.7983 27.3157 48.855C27.3623 48.9083 27.3857 49.005 27.3857 49.145V51H28.0757V49.005C28.0757 48.735 28.0157 48.54 27.8957 48.42C27.779 48.3 27.6107 48.24 27.3907 48.24C27.2407 48.24 27.1073 48.2717 26.9907 48.335C26.874 48.395 26.779 48.4917 26.7057 48.625H26.6957V48.31H26.0357ZM0.97 55.045V53.96H1.27C1.45 53.96 1.57833 54.0067 1.655 54.1C1.73167 54.1933 1.77 54.33 1.77 54.51C1.77 54.6933 1.725 54.8283 1.635 54.915C1.54833 55.0017 1.43333 55.045 1.29 55.045H0.97ZM0.25 53.43V57H0.97V55.575H1.355C1.525 55.575 1.68 55.5533 1.82 55.51C1.96 55.4667 2.07833 55.4017 2.175 55.315C2.275 55.2283 2.35167 55.1167 2.405 54.98C2.46167 54.8433 2.49 54.6833 2.49 54.5C2.49 54.3667 2.47333 54.2367 2.44 54.11C2.40667 53.98 2.35167 53.865 2.275 53.765C2.19833 53.665 2.09667 53.585 1.97 53.525C1.84667 53.4617 1.69333 53.43 1.51 53.43H0.25ZM2.82277 54.31V57H3.51277V55.385C3.51277 55.295 3.52777 55.22 3.55777 55.16C3.58777 55.0967 3.62777 55.0467 3.67777 55.01C3.72777 54.97 3.78277 54.9417 3.84277 54.925C3.90277 54.9083 3.96277 54.9 4.02277 54.9C4.05944 54.9 4.09444 54.9017 4.12777 54.905C4.16444 54.905 4.20111 54.9067 4.23777 54.91V54.25C4.21777 54.2467 4.19611 54.245 4.17277 54.245C4.15277 54.2417 4.13277 54.24 4.11277 54.24C3.96944 54.24 3.84777 54.28 3.74777 54.36C3.64777 54.4367 3.56277 54.54 3.49277 54.67H3.48277V54.31H2.82277ZM5.08781 55.655C5.08781 55.5183 5.09115 55.3917 5.09781 55.275C5.10448 55.1583 5.11948 55.0583 5.14281 54.975C5.16948 54.8917 5.20781 54.8267 5.25781 54.78C5.30781 54.7333 5.37448 54.71 5.45781 54.71C5.59781 54.71 5.69448 54.7833 5.74781 54.93C5.80115 55.0767 5.82781 55.3183 5.82781 55.655C5.82781 55.9917 5.80115 56.2333 5.74781 56.38C5.69448 56.5267 5.59781 56.6 5.45781 56.6C5.37448 56.6 5.30781 56.5767 5.25781 56.53C5.20781 56.4833 5.16948 56.4183 5.14281 56.335C5.11948 56.2517 5.10448 56.1517 5.09781 56.035C5.09115 55.9183 5.08781 55.7917 5.08781 55.655ZM4.39781 55.655C4.39781 55.8883 4.41448 56.095 4.44781 56.275C4.48115 56.4517 4.53781 56.6 4.61781 56.72C4.69781 56.8367 4.80615 56.9233 4.94281 56.98C5.07948 57.0333 5.25115 57.0583 5.45781 57.055C5.65448 57.055 5.81948 57.0267 5.95281 56.97C6.08948 56.9133 6.19948 56.8267 6.28281 56.71C6.36615 56.59 6.42615 56.4417 6.46281 56.265C6.49948 56.0883 6.51781 55.885 6.51781 55.655C6.51781 55.4183 6.50115 55.2117 6.46781 55.035C6.43448 54.8583 6.37781 54.71 6.29781 54.59C6.21781 54.47 6.10948 54.3817 5.97281 54.325C5.83615 54.265 5.66448 54.2367 5.45781 54.24C5.26115 54.24 5.09448 54.2717 4.95781 54.335C4.82448 54.395 4.71615 54.485 4.63281 54.605C4.54948 54.7217 4.48948 54.8683 4.45281 55.045C4.41615 55.2217 4.39781 55.425 4.39781 55.655ZM6.91516 53.39V53.98H7.60516V53.39H6.91516ZM6.91516 54.31V56.95C6.91516 57.09 6.90016 57.1933 6.87016 57.26C6.84349 57.33 6.77349 57.365 6.66016 57.365H6.60516C6.58849 57.365 6.57016 57.3617 6.55016 57.355V57.855C6.60016 57.8583 6.64682 57.86 6.69016 57.86C6.73349 57.8633 6.77516 57.865 6.81516 57.865C6.96849 57.865 7.09516 57.85 7.19516 57.82C7.29849 57.79 7.38016 57.745 7.44016 57.685C7.50016 57.6283 7.54182 57.5567 7.56516 57.47C7.59182 57.3833 7.60516 57.2833 7.60516 57.17V54.31H6.91516ZM9.38633 55.35H8.68133V55.245C8.68133 55.1817 8.68633 55.1183 8.69633 55.055C8.70966 54.9917 8.72966 54.935 8.75633 54.885C8.78299 54.8317 8.81799 54.79 8.86133 54.76C8.90799 54.7267 8.96633 54.71 9.03633 54.71C9.10633 54.71 9.16299 54.725 9.20633 54.755C9.25299 54.7817 9.28799 54.8233 9.31133 54.88C9.33799 54.9333 9.35633 55 9.36633 55.08C9.37633 55.1567 9.38299 55.2467 9.38633 55.35ZM8.68133 55.76H10.0463V55.605C10.0463 55.3983 10.033 55.2117 10.0063 55.045C9.97966 54.875 9.92966 54.7317 9.85633 54.615C9.78299 54.495 9.68133 54.4033 9.55133 54.34C9.42466 54.2733 9.26133 54.24 9.06133 54.24C8.82799 54.24 8.64133 54.2783 8.50133 54.355C8.36133 54.4317 8.25299 54.535 8.17633 54.665C8.10299 54.795 8.05299 54.9433 8.02633 55.11C8.00299 55.2767 7.99133 55.45 7.99133 55.63C7.99133 55.8 7.99799 55.97 8.01133 56.14C8.02799 56.31 8.06966 56.4633 8.13633 56.6C8.20299 56.7367 8.30633 56.8467 8.44633 56.93C8.58633 57.0133 8.78133 57.055 9.03133 57.055C9.36133 57.055 9.60299 56.9733 9.75633 56.81C9.90966 56.6467 9.99299 56.4083 10.0063 56.095H9.38633C9.36633 56.265 9.32966 56.3917 9.27633 56.475C9.22299 56.5583 9.13799 56.6 9.02133 56.6C8.95799 56.6 8.90466 56.5833 8.86133 56.55C8.81799 56.5133 8.78299 56.4667 8.75633 56.41C8.72966 56.35 8.70966 56.2833 8.69633 56.21C8.68633 56.1333 8.68133 56.055 8.68133 55.975V55.76ZM11.7008 55.28H12.3608C12.3608 54.96 12.2791 54.7067 12.1158 54.52C11.9558 54.3333 11.7158 54.24 11.3958 54.24C11.2358 54.24 11.0891 54.2617 10.9558 54.305C10.8224 54.3483 10.7074 54.425 10.6108 54.535C10.5141 54.6417 10.4391 54.7867 10.3858 54.97C10.3324 55.15 10.3058 55.3783 10.3058 55.655C10.3058 55.925 10.3274 56.1517 10.3708 56.335C10.4141 56.515 10.4774 56.66 10.5608 56.77C10.6474 56.8767 10.7541 56.9517 10.8808 56.995C11.0108 57.035 11.1624 57.055 11.3358 57.055C11.7024 57.055 11.9641 56.9633 12.1208 56.78C12.2808 56.5933 12.3608 56.3233 12.3608 55.97H11.7008C11.7008 56.19 11.6741 56.35 11.6208 56.45C11.5674 56.55 11.4824 56.6 11.3658 56.6C11.2891 56.6 11.2258 56.5833 11.1758 56.55C11.1291 56.5133 11.0924 56.4567 11.0658 56.38C11.0391 56.3033 11.0208 56.2067 11.0108 56.09C11.0008 55.97 10.9958 55.8267 10.9958 55.66C10.9958 55.5033 11.0008 55.3683 11.0108 55.255C11.0208 55.1383 11.0391 55.0433 11.0658 54.97C11.0924 54.8933 11.1324 54.8367 11.1858 54.8C11.2391 54.76 11.3074 54.74 11.3908 54.74C11.4574 54.74 11.5108 54.7567 11.5508 54.79C11.5908 54.82 11.6208 54.8617 11.6408 54.915C11.6641 54.965 11.6791 55.0217 11.6858 55.085C11.6958 55.1483 11.7008 55.2133 11.7008 55.28ZM12.8702 53.54V54.31H12.5202V54.78H12.8702V56.32C12.8702 56.4567 12.8786 56.57 12.8952 56.66C12.9119 56.75 12.9419 56.8233 12.9852 56.88C13.0319 56.9333 13.0969 56.97 13.1802 56.99C13.2669 57.0067 13.3769 57.015 13.5102 57.015C13.5902 57.015 13.6652 57.0117 13.7352 57.005C13.8086 57.0017 13.8836 57 13.9602 57V56.52C13.9369 56.5233 13.9119 56.5267 13.8852 56.53C13.8586 56.53 13.8319 56.53 13.8052 56.53C13.7052 56.53 13.6386 56.5083 13.6052 56.465C13.5752 56.4183 13.5602 56.3417 13.5602 56.235V54.78H13.9602V54.31H13.5602V53.54H12.8702Z" fill="black"/>
</g>
<defs>
<clipPath id="clip0">
<rect width="40" height="50" fill="white"/>
</clipPath>
</defs>
</svg>
