<svg width="20" height="15" viewBox="0 0 20 15" fill="none" xmlns="http://www.w3.org/2000/svg">
<path d="M18.611 0H0.639C0.469544 0.000198607 0.30709 0.0676198 0.18729 0.187467C0.0674898 0.307313 0.000132323 0.469795 0 0.63925V1.92525C0 1.9845 0.06425 2.0525 0.11675 2.08L9.56325 7.47575C9.58745 7.48958 9.61488 7.49674 9.64275 7.4965C9.67124 7.49658 9.69922 7.48898 9.72375 7.4745L18.8848 2.08525C18.9363 2.0565 19.0728 1.9805 19.124 1.9455C19.186 1.90325 19.25 1.865 19.25 1.78925V0.639C19.2498 0.469588 19.1824 0.307171 19.0626 0.187378C18.9428 0.0675857 18.7804 0.000198492 18.611 0Z" fill="#021D3B"/>
<path d="M19.1707 3.86392C19.1461 3.84989 19.1182 3.8426 19.0899 3.84278C19.0616 3.84295 19.0338 3.85059 19.0094 3.86492L13.8252 6.91517C13.8045 6.92721 13.7868 6.94374 13.7734 6.96355C13.76 6.98335 13.7513 7.00592 13.7478 7.02957C13.7443 7.05323 13.7462 7.07736 13.7533 7.10019C13.7604 7.12301 13.7726 7.14394 13.7889 7.16142L18.9739 12.7507C18.9888 12.7668 19.0068 12.7797 19.0269 12.7885C19.047 12.7972 19.0687 12.8017 19.0907 12.8017C19.133 12.8016 19.1736 12.7848 19.2036 12.7548C19.2335 12.7249 19.2504 12.6843 19.2504 12.6419V4.00267C19.2505 3.97457 19.2432 3.94693 19.2292 3.92257C19.2152 3.8982 19.195 3.87797 19.1707 3.86392Z" fill="#021D3B"/>
<path d="M12.3317 7.94013C12.3071 7.91333 12.274 7.89578 12.238 7.89041C12.202 7.88504 12.1653 7.89218 12.1339 7.91063L10.0559 9.13338C9.93417 9.20373 9.79622 9.2412 9.65562 9.24212C9.51501 9.24304 9.37658 9.20738 9.25392 9.13863L7.42517 8.09388C7.39565 8.07707 7.36154 8.07009 7.32778 8.07395C7.29403 8.07782 7.26238 8.09233 7.23742 8.11538L0.292922 14.5569C0.274716 14.5739 0.260738 14.5949 0.252102 14.6183C0.243465 14.6417 0.240409 14.6668 0.243178 14.6915C0.245946 14.7163 0.254462 14.7401 0.268046 14.761C0.281631 14.7819 0.299908 14.7993 0.321422 14.8119C0.429422 14.8754 0.533672 14.9056 0.639672 14.9056H18.4279C18.4591 14.9057 18.4895 14.8966 18.5155 14.8795C18.5415 14.8624 18.5619 14.838 18.5742 14.8094C18.5866 14.7809 18.5905 14.7495 18.5853 14.7188C18.58 14.6882 18.5659 14.6598 18.5447 14.6371L12.3317 7.94013Z" fill="#021D3B"/>
<path d="M5.7085 7.3533C5.7269 7.33629 5.74103 7.3152 5.74977 7.29172C5.75851 7.26825 5.7616 7.24304 5.75881 7.21815C5.75601 7.19326 5.74739 7.16937 5.73366 7.14842C5.71993 7.12747 5.70146 7.11004 5.67975 7.09755L0.238253 3.98955C0.213968 3.97576 0.186489 3.96859 0.158564 3.96875C0.130639 3.96892 0.103246 3.97641 0.0791258 3.99048C0.0550052 4.00455 0.035002 4.02471 0.0211167 4.04894C0.00723134 4.07317 -4.93733e-05 4.10062 2.54918e-06 4.12855V12.2835C-0.000173643 12.3147 0.0087872 12.3452 0.0257758 12.3713C0.0427645 12.3974 0.0670351 12.418 0.0955838 12.4304C0.124133 12.4429 0.155706 12.4467 0.186396 12.4414C0.217086 12.4361 0.245546 12.4219 0.268253 12.4005L5.7085 7.3533Z" fill="#021D3B"/>
</svg>
