<svg width="50" height="50" viewBox="0 0 50 50" fill="none" xmlns="http://www.w3.org/2000/svg">
<path d="M14.5846 4.16683L8.33463 4.16683C7.22956 4.16683 6.16975 4.60582 5.38835 5.38722C4.60695 6.16862 4.16797 7.22843 4.16797 8.3335L4.16797 22.9168C4.16797 24.0219 4.60695 25.0817 5.38836 25.8631C6.16976 26.6445 7.22956 27.0835 8.33463 27.0835L14.5846 27.0835M29.168 31.2502L29.168 39.5835C29.168 41.2411 28.5095 42.8308 27.3374 44.0029C26.1653 45.175 24.5756 45.8335 22.918 45.8335L14.5846 27.0835L14.5846 4.16683L38.0846 4.16683C39.0895 4.15547 40.0646 4.50765 40.8303 5.15848C41.596 5.80931 42.1006 6.71494 42.2513 7.7085L45.1263 26.4585C45.2169 27.0557 45.1767 27.6654 45.0083 28.2455C44.8399 28.8255 44.5473 29.362 44.151 29.8178C43.7547 30.2736 43.264 30.6378 42.7129 30.8851C42.1618 31.1324 41.5636 31.257 40.9596 31.2502L29.168 31.2502Z" stroke="#E35757" stroke-width="3" stroke-linecap="round" stroke-linejoin="round"/>
</svg>
