<svg width="50" height="50" viewBox="0 0 50 50" fill="none" xmlns="http://www.w3.org/2000/svg">
<path d="M14.5846 45.8332H8.33464C7.22957 45.8332 6.16976 45.3942 5.38836 44.6128C4.60696 43.8314 4.16797 42.7716 4.16797 41.6665V27.0832C4.16797 25.9781 4.60696 24.9183 5.38836 24.1369C6.16976 23.3555 7.22957 22.9165 8.33464 22.9165H14.5846M29.168 18.7498V10.4165C29.168 8.7589 28.5095 7.16919 27.3374 5.99709C26.1653 4.82498 24.5756 4.1665 22.918 4.1665L14.5846 22.9165V45.8332H38.0846C39.0895 45.8445 40.0646 45.4923 40.8303 44.8415C41.596 44.1907 42.1006 43.2851 42.2513 42.2915L45.1263 23.5415C45.2169 22.9443 45.1767 22.3346 45.0083 21.7545C44.8399 21.1745 44.5473 20.638 44.151 20.1822C43.7547 19.7264 43.264 19.3622 42.7129 19.1149C42.1619 18.8676 41.5636 18.743 40.9596 18.7498H29.168Z" stroke="#7B53C1" stroke-width="3" stroke-linecap="round" stroke-linejoin="round"/>
</svg>
