<svg width="11" height="16" viewBox="0 0 11 16" fill="none" xmlns="http://www.w3.org/2000/svg">
<path d="M10.835 4.17143L6.985 0.171429C6.875 0.0571428 6.765 0 6.6 0H1.1C0.495 0 0 0.514286 0 1.14286V14.8571C0 15.4857 0.495 16 1.1 16H9.9C10.505 16 11 15.4857 11 14.8571V4.57143C11 4.4 10.945 4.28571 10.835 4.17143ZM6.6 1.37143L9.68 4.57143H6.6V1.37143ZM9.9 14.8571H1.1V1.14286H5.5V4.57143C5.5 5.2 5.995 5.71429 6.6 5.71429H9.9V14.8571Z" fill="#7B53C1"/>
<path d="M2.19922 11.4287H8.79922V12.5716H2.19922V11.4287Z" fill="#7B53C1"/>
<path d="M2.19922 8H8.79922V9.14286H2.19922V8Z" fill="#7B53C1"/>
</svg>
