<svg width="16" height="16" viewBox="0 0 16 16" fill="none" xmlns="http://www.w3.org/2000/svg">
<path d="M14.6667 0H1.33333C0.979711 0 0.640573 0.140476 0.390524 0.390524C0.140476 0.640573 0 0.979711 0 1.33333V14.6667C0 15.0203 0.140476 15.3594 0.390524 15.6095C0.640573 15.8595 0.979711 16 1.33333 16H14.6667C15.0203 16 15.3594 15.8595 15.6095 15.6095C15.8595 15.3594 16 15.0203 16 14.6667V1.33333C16 0.979711 15.8595 0.640573 15.6095 0.390524C15.3594 0.140476 15.0203 0 14.6667 0ZM14.6667 14.6667H1.33333V10.6667L4.66667 7.33333L8.39333 11.06C8.64315 11.3083 8.98109 11.4477 9.33333 11.4477C9.68558 11.4477 10.0235 11.3083 10.2733 11.06L11.3333 10L14.6667 13.3333V14.6667ZM14.6667 11.4467L12.2733 9.05333C12.0235 8.805 11.6856 8.66561 11.3333 8.66561C10.9811 8.66561 10.6432 8.805 10.3933 9.05333L9.33333 10.1133L5.60667 6.38667C5.35685 6.13833 5.01891 5.99894 4.66667 5.99894C4.31442 5.99894 3.97648 6.13833 3.72667 6.38667L1.33333 8.78V1.33333H14.6667V11.4467Z" fill="#7B53C1"/>
<path d="M10 6C10.3956 6 10.7822 5.8827 11.1111 5.66294C11.44 5.44318 11.6964 5.13082 11.8478 4.76537C11.9991 4.39992 12.0387 3.99778 11.9616 3.60982C11.8844 3.22186 11.6939 2.86549 11.4142 2.58579C11.1345 2.30608 10.7781 2.1156 10.3902 2.03843C10.0022 1.96126 9.60009 2.00087 9.23463 2.15224C8.86918 2.30362 8.55682 2.55996 8.33706 2.88886C8.1173 3.21776 8 3.60444 8 4C8 4.53043 8.21071 5.03914 8.58579 5.41421C8.96086 5.78929 9.46957 6 10 6ZM10 3.33333C10.1319 3.33333 10.2607 3.37243 10.3704 3.44569C10.48 3.51894 10.5655 3.62306 10.6159 3.74488C10.6664 3.8667 10.6796 4.00074 10.6539 4.13006C10.6281 4.25938 10.5646 4.37817 10.4714 4.47141C10.3782 4.56464 10.2594 4.62813 10.1301 4.65386C10.0007 4.67958 9.8667 4.66638 9.74488 4.61592C9.62306 4.56546 9.51894 4.48001 9.44569 4.37038C9.37243 4.26075 9.33333 4.13186 9.33333 4C9.33333 3.82319 9.40357 3.65362 9.52859 3.5286C9.65362 3.40357 9.82319 3.33333 10 3.33333Z" fill="#7B53C1"/>
</svg>
