<svg width="18" height="18" viewBox="0 0 18 18" fill="none" xmlns="http://www.w3.org/2000/svg">
<path d="M9.00051 0C4.03159 0 0.000488281 4.02602 0.000488281 8.99527C0.000488281 13.9693 4.03159 18 9.00047 18C13.9721 18 17.9998 13.9692 17.9998 8.99527C17.9998 4.02602 13.9721 0 9.00051 0ZM9.64185 14.0031C9.43282 14.1891 9.19057 14.2826 8.91615 14.2826C8.63222 14.2826 8.38455 14.1908 8.17315 14.0068C7.96141 13.8232 7.85533 13.5661 7.85533 13.2357C7.85533 12.9426 7.95799 12.696 8.16264 12.4961C8.3673 12.2962 8.61834 12.1962 8.91615 12.1962C9.2092 12.1962 9.45587 12.2962 9.6561 12.4961C9.856 12.696 9.95629 12.9426 9.95629 13.2357C9.95591 13.5613 9.85121 13.8171 9.64185 14.0031ZM12.2483 7.54145C12.0877 7.83926 11.8969 8.09605 11.6757 8.31258C11.4551 8.52907 11.0584 8.89294 10.4858 9.40453C10.3279 9.54887 10.2009 9.67558 10.1057 9.78466C10.0105 9.89411 9.93932 9.99402 9.89289 10.0848C9.84613 10.1756 9.81024 10.2664 9.78481 10.3572C9.75939 10.4477 9.72113 10.6073 9.66927 10.8353C9.5812 11.3191 9.3044 11.561 8.8392 11.561C8.59729 11.561 8.39401 11.482 8.22833 11.3238C8.06332 11.1656 7.981 10.9308 7.981 10.6191C7.981 10.2285 8.04165 9.88999 8.1626 9.60372C8.28289 9.31742 8.44382 9.06638 8.64372 8.84989C8.84396 8.6334 9.11363 8.37656 9.45345 8.07875C9.75126 7.81821 9.96642 7.62172 10.0989 7.48922C10.2317 7.35643 10.3432 7.20871 10.4336 7.04607C10.5248 6.8831 10.5695 6.70658 10.5695 6.51585C10.5695 6.14352 10.4316 5.82979 10.1545 5.574C9.87768 5.3182 9.52056 5.19012 9.08316 5.19012C8.57124 5.19012 8.19449 5.3192 7.95257 5.57737C7.71066 5.83554 7.50638 6.21567 7.33866 6.71813C7.18011 7.24397 6.87992 7.50685 6.43844 7.50685C6.17789 7.50685 5.95803 7.41503 5.7788 7.23139C5.59991 7.04774 5.51046 6.84888 5.51046 6.63477C5.51046 6.19295 5.65243 5.74505 5.93602 5.2914C6.21995 4.83775 6.63396 4.462 7.1784 4.16452C7.7225 3.86671 8.35779 3.71762 9.08316 3.71762C9.75772 3.71762 10.353 3.84229 10.8693 4.09133C11.3857 4.34 11.7848 4.67849 12.0663 5.10671C12.3475 5.53461 12.4885 5.99981 12.4885 6.50227C12.4891 6.89702 12.4089 7.24364 12.2483 7.54145Z" fill="#CECECE"/>
</svg>
