<svg width="28" height="28" viewBox="0 0 28 28" fill="none" xmlns="http://www.w3.org/2000/svg">
<path d="M3.42214 6.84428C5.31213 6.84428 6.84428 5.31213 6.84428 3.42214C6.84428 1.53214 5.31213 0 3.42214 0C1.53214 0 0 1.53214 0 3.42214C0 5.31213 1.53214 6.84428 3.42214 6.84428Z" fill="#7B53C1"/>
<path d="M6.27392 9.12988H0.570356C0.25552 9.12988 0 9.3854 0 9.70024V26.8109C0 27.1258 0.25552 27.3813 0.570356 27.3813H6.27392C6.58876 27.3813 6.84428 27.1258 6.84428 26.8109V9.70024C6.84428 9.3854 6.58876 9.12988 6.27392 9.12988Z" fill="#7B53C1"/>
<path d="M23.2703 8.181C20.8326 7.346 17.7835 8.07948 15.9549 9.39472C15.8922 9.14947 15.6686 8.96695 15.4028 8.96695H9.69926C9.38443 8.96695 9.12891 9.22247 9.12891 9.53731V26.648C9.12891 26.9628 9.38443 27.2184 9.69926 27.2184H15.4028C15.7177 27.2184 15.9732 26.9628 15.9732 26.648V14.3511C16.8949 13.5572 18.0824 13.3039 19.0543 13.7169C19.9965 14.115 20.536 15.0869 20.536 16.3816V26.648C20.536 26.9628 20.7916 27.2184 21.1064 27.2184H26.81C27.1248 27.2184 27.3803 26.9628 27.3803 26.648V15.2329C27.3153 10.5457 25.1103 8.81067 23.2703 8.181Z" fill="#7B53C1"/>
</svg>
