<svg width="17" height="16" viewBox="0 0 17 16" fill="none" xmlns="http://www.w3.org/2000/svg">
<path d="M16.9035 2.18112C16.7911 2.04646 16.61 2.0126 16.4615 2.09565C16.3691 2.14726 16.1954 2.21499 15.9892 2.28191C16.2493 1.90455 16.4585 1.48202 16.5509 1.10224C16.5908 0.938549 16.5324 0.765992 16.4053 0.668424C16.2782 0.571663 16.1089 0.571663 15.9818 0.668424C15.7815 0.820823 14.8147 1.27882 14.2034 1.42719C12.822 0.10721 11.2144 -0.0298677 9.54329 1.0345C8.18478 1.89971 7.88914 3.65915 7.94679 4.73158C4.83731 4.40501 2.9045 2.61332 1.81652 1.13046C1.74039 1.02644 1.6177 0.971609 1.50239 0.979672C1.38118 0.989348 1.27179 1.06273 1.2097 1.17642C0.695272 2.12387 0.552622 3.17131 0.798749 4.20585C0.933269 4.77028 1.16831 5.2678 1.44105 5.67097C1.31022 5.60082 1.18383 5.51293 1.06483 5.4081C0.955443 5.30973 0.802445 5.29118 0.673099 5.35649C0.544491 5.42342 0.462449 5.56534 0.462449 5.72096C0.462449 7.49733 1.48096 8.68265 2.43221 9.30193C2.27847 9.28177 2.11808 9.24467 1.95621 9.19065C1.81726 9.14469 1.66648 9.19065 1.57039 9.30999C1.47431 9.42852 1.45139 9.59785 1.51126 9.74219C2.04565 11.0315 3.05824 11.9185 4.31105 12.2402C3.21715 12.9409 1.75295 13.2844 0.412189 13.1159C0.238495 13.0893 0.0729322 13.2095 0.0182373 13.3917C-0.0364577 13.5739 0.0352371 13.7739 0.188235 13.8674C2.2223 15.1132 4.06123 15.5583 5.65034 15.5583C7.96305 15.5583 9.74803 14.6165 10.8345 13.8287C13.7637 11.708 15.5893 7.9005 15.335 4.49371C15.8044 4.11554 16.5065 3.41724 16.9419 2.66654C17.0321 2.51495 17.0158 2.31497 16.9035 2.18112Z" fill="white"/>
</svg>
