<svg width="40" height="35" viewBox="0 0 40 35" fill="none" xmlns="http://www.w3.org/2000/svg">
<path d="M11.44 18.84C13.04 19.4 14.28 20.32 15.16 21.6C16.04 22.88 16.48 24.44 16.48 26.28C16.48 28.68 15.72 30.64 14.2 32.16C12.68 33.68 10.8 34.44 8.56 34.44C6.24 34.44 4.32 33.68 2.8 32.16C1.28 30.56 0.52 28.6 0.52 26.28C0.52 25.16 0.64 24.04 0.88 22.92C1.2 21.72 1.8 20 2.68 17.76L8.32 0.959995H15.88L11.44 18.84ZM34.12 18.84C35.72 19.4 36.96 20.32 37.84 21.6C38.72 22.88 39.16 24.44 39.16 26.28C39.16 28.68 38.4 30.64 36.88 32.16C35.36 33.68 33.48 34.44 31.24 34.44C28.92 34.44 27 33.68 25.48 32.16C23.96 30.56 23.2 28.6 23.2 26.28C23.2 25.16 23.32 24.04 23.56 22.92C23.88 21.72 24.48 20 25.36 17.76L31 0.959995H38.56L34.12 18.84Z" fill="#758BFD"/>
</svg>
