<svg width="12" height="12" viewBox="0 0 12 12" fill="none" xmlns="http://www.w3.org/2000/svg">
<path d="M1.48355 2.9671C2.30289 2.9671 2.9671 2.30289 2.9671 1.48355C2.9671 0.664208 2.30289 0 1.48355 0C0.664208 0 0 0.664208 0 1.48355C0 2.30289 0.664208 2.9671 1.48355 2.9671Z" fill="#758BFD"/>
<path d="M2.71984 3.95801H0.247258C0.110772 3.95801 0 4.06878 0 4.20527V11.623C0 11.7595 0.110772 11.8703 0.247258 11.8703H2.71984C2.85633 11.8703 2.9671 11.7595 2.9671 11.623V4.20527C2.9671 4.06878 2.85633 3.95801 2.71984 3.95801Z" fill="#758BFD"/>
<path d="M10.0876 3.54689C9.03077 3.1849 7.70893 3.50288 6.91622 4.07306C6.88902 3.96673 6.7921 3.88761 6.67687 3.88761H4.20429C4.0678 3.88761 3.95703 3.99838 3.95703 4.13487V11.5526C3.95703 11.6891 4.0678 11.7999 4.20429 11.7999H6.67687C6.81336 11.7999 6.92413 11.6891 6.92413 11.5526V6.22173C7.3237 5.87755 7.83849 5.76776 8.25982 5.94678C8.66829 6.11936 8.9022 6.54069 8.9022 7.10197V11.5526C8.9022 11.6891 9.01297 11.7999 9.14946 11.7999H11.622C11.7585 11.7999 11.8693 11.6891 11.8693 11.5526V6.60399C11.8411 4.57202 10.8852 3.81986 10.0876 3.54689Z" fill="#758BFD"/>
</svg>
