<svg width="14" height="18" viewBox="0 0 14 18" fill="none" xmlns="http://www.w3.org/2000/svg">
<path d="M13.375 6.75H12.25V5.24999C12.25 2.35512 9.89491 0 7 0C4.10509 0 1.75001 2.35512 1.75001 5.24999V6.75H0.625012C0.41773 6.75 0.25 6.91773 0.25 7.12501V16.5C0.25 17.3273 0.922715 18 1.75001 18H12.25C13.0773 18 13.75 17.3273 13.75 16.5V7.12501C13.75 6.91773 13.5823 6.75 13.375 6.75ZM8.12282 14.5836C8.13453 14.6894 8.1005 14.7956 8.02945 14.8751C7.9584 14.9546 7.85658 15 7.75002 15H6.25001C6.14345 15 6.04164 14.9546 5.97059 14.8751C5.89954 14.7957 5.86547 14.6895 5.87721 14.5836L6.11378 12.4563C5.72963 12.1769 5.50002 11.7349 5.50002 11.25C5.50002 10.4227 6.17274 9.74999 7.00004 9.74999C7.82733 9.74999 8.50005 10.4227 8.50005 11.25C8.50005 11.7349 8.27044 12.1769 7.88629 12.4563L8.12282 14.5836ZM9.99999 6.75H4.00001V5.24999C4.00001 3.59582 5.34583 2.25 7 2.25C8.65417 2.25 9.99999 3.59582 9.99999 5.24999V6.75Z" fill="#CECECE"/>
</svg>
