<svg width="18" height="18" viewBox="0 0 18 18" fill="none" xmlns="http://www.w3.org/2000/svg">
<g clip-path="url(#clip0)">
<path d="M11.2499 9.74987C10.8352 9.74987 10.4999 10.0859 10.4999 10.4998V13.4999C10.4999 13.9131 10.1639 14.2498 9.74985 14.2498H7.49988V2.99993C7.49988 2.35943 7.09188 1.78719 6.47843 1.57419L6.25637 1.4999H9.74985C10.1639 1.4999 10.4999 1.83662 10.4999 2.24998V4.49996C10.4999 4.91387 10.8352 5.24991 11.2499 5.24991C11.6646 5.24991 11.9998 4.91387 11.9998 4.49996V2.24998C11.9998 1.0095 10.9903 0 9.74985 0H1.68748C1.65892 0 1.63502 0.0127715 1.60728 0.0164793C1.57117 0.0134581 1.5367 0 1.50003 0C0.672768 0 0 0.672632 0 1.4999V14.9998C0 15.6403 0.408 16.2125 1.02144 16.4255L5.53499 17.9301C5.68797 17.9773 5.84013 17.9998 5.99998 17.9998C6.82724 17.9998 7.49988 17.3271 7.49988 16.4998V15.7499H9.74985C10.9903 15.7499 11.9998 14.7404 11.9998 13.4999V10.4998C11.9998 10.0859 11.6646 9.74987 11.2499 9.74987Z" fill="#CECECE"/>
<path d="M17.7802 6.96987L14.7802 3.96995C14.5658 3.75545 14.2432 3.6909 13.9628 3.80708C13.6831 3.9234 13.5 4.19709 13.5 4.50017V6.75015H10.5001C10.086 6.75015 9.75 7.08605 9.75 7.5001C9.75 7.91414 10.086 8.25004 10.5001 8.25004H13.5V10.5C13.5 10.8031 13.6831 11.0768 13.9628 11.1931C14.2432 11.3093 14.5658 11.2447 14.7802 11.0304L17.7802 8.03032C18.0734 7.73712 18.0734 7.26307 17.7802 6.96987Z" fill="#CECECE"/>
</g>
<defs>
<clipPath id="clip0">
<rect width="18" height="18" fill="white"/>
</clipPath>
</defs>
</svg>
