<svg width="44" height="48" viewBox="0 0 44 48" fill="none" xmlns="http://www.w3.org/2000/svg">
<path d="M2.00003 48C1.46959 48 0.960873 47.7893 0.585795 47.4142C0.210717 47.0391 0 46.5304 0 46V1.99967C5.95027e-05 1.65213 0.0906826 1.3106 0.262937 1.00875C0.435192 0.706892 0.683133 0.455135 0.98232 0.278288C1.28151 0.101442 1.62162 0.00560972 1.96912 0.000238887C2.31663 -0.00513195 2.65953 0.0801438 2.96404 0.24766L42.9646 22.2478C43.2782 22.4205 43.5397 22.6741 43.7218 22.9823C43.9039 23.2905 44 23.6419 44 23.9998C44 24.3578 43.9039 24.7092 43.7218 25.0174C43.5397 25.3255 43.2782 25.5792 42.9646 25.7518L2.96404 47.752C2.66874 47.9146 2.33713 47.9999 2.00003 48Z" fill="#7B53C1" fill-opacity="0.7"/>
</svg>
