<svg width="16" height="18" viewBox="0 0 16 18" fill="none" xmlns="http://www.w3.org/2000/svg">
<path d="M13.1855 0.505723C13.0051 0.193781 12.6692 0 12.3091 0H8.54529V4.45208H15.468L13.1855 0.505723Z" fill="#CECECE"/>
<path d="M7.49033 0H3.69099C3.33015 0 2.9943 0.194133 2.81388 0.506777L0.539795 4.45208H7.49029V0H7.49033Z" fill="#CECECE"/>
<path d="M0.162109 5.50684V16.7593C0.162109 17.4433 0.718844 17.9997 1.40288 17.9997H14.597C15.2811 17.9997 15.8378 17.4433 15.8378 16.7593V5.50684H0.162109ZM10.3946 10.2389L7.66618 12.9673C7.56313 13.0704 7.42806 13.1221 7.29303 13.1221C7.15799 13.1221 7.02292 13.0704 6.92023 12.9673L5.64114 11.6885C5.43541 11.4828 5.43541 11.1487 5.64114 10.9426C5.84723 10.7365 6.18135 10.7365 6.38744 10.9426L7.29306 11.8486L9.64871 9.49292C9.85479 9.28684 10.1889 9.28684 10.3947 9.49292C10.6007 9.69901 10.6007 10.0328 10.3946 10.2389Z" fill="#CECECE"/>
</svg>
