<svg width="12" height="12" viewBox="0 0 12 12" fill="none" xmlns="http://www.w3.org/2000/svg">
<path d="M0.66108 11.9967C0.569725 11.9966 0.479402 11.9774 0.395855 11.9404C0.312308 11.9035 0.237366 11.8496 0.175793 11.7821C0.113106 11.7152 0.0652717 11.6357 0.035427 11.549C0.00558234 11.4623 -0.00559873 11.3703 0.0026168 11.279L0.16394 9.5051L7.61642 2.05525L9.94541 4.38358L2.4949 11.8328L0.721 11.9941C0.70108 11.9959 0.681084 11.9968 0.66108 11.9967ZM10.4103 3.91804L8.08196 1.58972L9.47856 0.193118C9.53971 0.131897 9.61233 0.0833293 9.69227 0.0501926C9.7722 0.0170559 9.85789 0 9.94442 0C10.031 0 10.1166 0.0170559 10.1966 0.0501926C10.2765 0.0833293 10.3491 0.131897 10.4103 0.193118L11.8069 1.58972C11.8681 1.65087 11.9167 1.72349 11.9498 1.80343C11.9829 1.88336 12 1.96905 12 2.05558C12 2.14211 11.9829 2.2278 11.9498 2.30773C11.9167 2.38767 11.8681 2.46029 11.8069 2.52144L10.4109 3.91738L10.4103 3.91804Z" fill="black"/>
</svg>
