<svg width="19" height="18" viewBox="0 0 19 18" fill="none" xmlns="http://www.w3.org/2000/svg">
<path d="M7.67782 5.11528L7.88782 4.91528C8.40782 4.37528 8.31782 4.12528 7.80782 3.61528L5.08782 0.865283C4.27782 0.0452829 4.12782 -0.344717 3.35782 0.385283L3.14782 0.585283L7.67782 5.11528ZM7.14782 5.56528L2.74782 1.16528C2.04782 2.10528 0.407818 4.63528 1.21782 6.50528C1.94782 8.17528 2.30782 8.25528 3.21782 9.50528C5.06782 11.6153 7.39782 13.8753 9.21782 15.5753C10.4778 16.4853 10.5278 16.9053 12.2178 17.5753C14.0178 18.2853 16.6178 16.6853 17.5978 16.0153L13.1978 11.6153L12.0178 13.2353C11.6778 13.6953 10.8178 13.1753 10.2178 12.5753C9.17782 11.5253 7.03782 9.39528 6.21782 8.50528C5.62782 7.91528 5.09782 7.05528 5.55782 6.70528L7.14782 5.56528ZM18.1678 15.6153L18.3778 15.4053C19.0578 14.6653 18.6678 14.5053 17.8578 13.7053L15.1178 10.9853C14.6078 10.4953 14.3678 10.3853 13.8478 10.8753L13.6478 11.0853L18.1678 15.6153Z" fill="#E35757"/>
</svg>
