<svg width="18" height="18" viewBox="0 0 18 18" fill="none" xmlns="http://www.w3.org/2000/svg">
<path d="M8.92151 9C7.68314 9 6.62791 8.60938 5.75581 7.82812C4.88372 7.04688 4.44767 6.10156 4.44767 4.99219C4.44767 3.88281 4.88372 2.9375 5.75581 2.15625C6.62791 1.375 7.68314 0.984375 8.92151 0.984375C10.1599 0.984375 11.2151 1.375 12.0872 2.15625C12.9593 2.9375 13.3953 3.88281 13.3953 4.99219C13.3953 6.10156 12.9593 7.04688 12.0872 7.82812C11.2151 8.60938 10.1599 9 8.92151 9ZM8.92151 11.0156C10.0203 11.0156 11.2326 11.1562 12.5581 11.4375C13.8837 11.7188 15.0959 12.1797 16.1948 12.8203C17.2936 13.4609 17.843 14.1875 17.843 15V17.0156H0V15C0 14.1875 0.549419 13.4609 1.64826 12.8203C2.74709 12.1797 3.9593 11.7188 5.28488 11.4375C6.61047 11.1562 7.82267 11.0156 8.92151 11.0156Z" fill="#E35757"/>
</svg>
