<svg width="29" height="28" viewBox="0 0 29 28" fill="none" xmlns="http://www.w3.org/2000/svg">
<path d="M23.8469 21.7812C21.9804 19.9146 21.7937 19.4479 20.6271 20.6145C19.4605 21.7812 19.9271 21.9212 21.7937 23.8344C23.1936 25.2343 24.9669 24.9543 24.9669 24.9543C24.9669 24.9543 25.2469 23.1811 23.8469 21.7812Z" fill="#FF9D27"/>
<path d="M20.2987 23.6945C19.5521 21.7346 19.3188 21.5012 20.392 20.8946C21.4653 20.288 21.4653 20.7079 22.1653 22.6678C22.7253 24.1144 22.072 25.421 22.072 25.421C22.072 25.421 20.812 25.1877 20.2987 23.6945Z" fill="#FF9D27"/>
<path d="M21.5409 21.9133C21.036 20.8186 21.036 20.5806 20.3627 20.9138C19.6333 21.247 19.8016 21.3898 20.3066 22.4845C20.6432 23.2937 21.4848 23.4841 21.4848 23.4841C21.4848 23.4841 21.8775 22.7701 21.5409 21.9133Z" fill="#FDF516"/>
<path d="M21.0169 20.5957C21.5897 19.5305 21.81 19.7621 23.6604 20.5031C25.0262 21.0589 25.2905 22.2631 25.2905 22.2631C25.2905 22.2631 24.0569 22.9115 22.6911 22.3557C20.8407 21.6147 20.4442 21.6147 21.0169 20.5957Z" fill="#FF9D27"/>
<path d="M21.9342 21.3617C20.8609 20.9417 20.6276 20.9417 20.9542 20.3818C21.2809 19.7751 21.4209 19.9151 22.4942 20.3351C23.2875 20.6151 23.4741 21.3151 23.4741 21.3151C23.4741 21.3151 22.7275 21.6417 21.9342 21.3617Z" fill="#FDF516"/>
<path d="M22.446 21.2684C21.4194 20.2418 21.326 19.9618 20.6727 20.6151C20.0194 21.2684 20.2994 21.3617 21.326 22.3884C22.1193 23.1817 23.0993 22.995 23.0993 22.995C23.0993 22.995 23.1926 22.0617 22.446 21.2684Z" fill="#FDF516"/>
<path d="M20.1258 17.1614C23.0851 11.916 28.0015 14.0848 28.0015 14.0848C28.0015 14.0848 20.9849 6.67069 16.2595 11.6638L20.1258 17.1614Z" fill="#3BAACF"/>
<path d="M17.7932 12.8458L16.2595 11.4404C20.9563 7.0927 28.0015 13.5484 28.0015 13.5484C28.0015 13.5484 21.819 9.50812 17.7932 12.8458Z" fill="#428BC1"/>
<path d="M17.1616 20.1241C11.9163 23.0834 14.085 27.9997 14.085 27.9997C14.085 27.9997 6.67096 20.9832 11.6641 16.2578L17.1616 20.1241Z" fill="#3BAACF"/>
<path d="M12.8457 17.7852L11.4403 16.2578C7.09259 20.9832 13.5483 27.9997 13.5483 27.9997C13.5483 27.9997 9.50801 21.7947 12.8457 17.7852Z" fill="#428BC1"/>
<path d="M6.20176 13.6878C11.7812 19.2194 17.933 22.2237 20.0789 20.0778C22.2249 17.9319 19.2206 11.7804 13.6888 6.20109C7.20321 -0.284236 0.00233269 0.00188098 0.00233269 0.00188098C0.00233269 0.00188098 -0.236107 7.2025 6.20176 13.6878Z" fill="#C5D0D8"/>
<path d="M7.55002 11.9284C12.9551 17.3334 18.3601 20.8747 19.6182 19.6166C20.8762 18.3585 17.335 12.9535 11.93 7.54843C5.59302 1.21148 0.00159073 0 0.00159073 0C0.00159073 0 1.21307 5.59143 7.55002 11.9284Z" fill="#DAE3EA"/>
<path d="M17.9761 21.4755C18.2024 21.7444 18.5646 21.7444 18.791 21.4755L21.5075 18.248C21.7338 17.9791 21.7338 17.495 21.5075 17.226L20.6925 16.2578L17.1611 20.4534L17.9761 21.4755Z" fill="#C94747"/>
<path d="M18.1267 20.4841C18.3947 20.7521 18.7163 20.8593 18.8771 20.6985L20.6994 18.8762C20.8601 18.7154 20.753 18.3938 20.485 18.1259L19.5202 17.1611L17.162 19.5194L18.1267 20.4841Z" fill="#F15744"/>
<path d="M19.4616 21.584C19.5852 21.7086 19.8734 21.7086 19.9969 21.584L21.6027 19.9644C21.7262 19.8399 21.685 19.5907 21.5615 19.4661L21.0674 18.9678L18.9676 21.0857L19.4616 21.584Z" fill="#3E4347"/>
<path d="M19.6051 21.5128C19.7645 21.6753 20.0833 21.7294 20.1896 21.6211L21.6241 20.1591C21.7304 20.0508 21.6772 19.78 21.4647 19.6176L20.8272 18.9678L18.9676 20.863L19.6051 21.5128Z" fill="#62727A"/>
<path d="M0.00465822 0.00155537C0.00465822 0.00155537 2.69234 -0.0979883 6.32568 1.29562L1.29873 6.32258C-0.0948863 2.68924 0.00465822 0.00155537 0.00465822 0.00155537Z" fill="#C94747"/>
<path d="M7.9155e-05 0C7.9155e-05 0 2.15778 0.451613 5.41943 2.30824L2.30832 5.41935C0.451691 2.15771 7.9155e-05 0 7.9155e-05 0Z" fill="#F15744"/>
<path d="M8.58324 10.8384C7.33615 10.8384 6.32518 9.82742 6.32518 8.58033C6.32518 7.33324 7.33615 6.32227 8.58324 6.32227C9.83034 6.32227 10.8413 7.33324 10.8413 8.58033C10.8413 9.82742 9.83034 10.8384 8.58324 10.8384Z" fill="#EDF4F9"/>
<path d="M8.58022 9.93526C7.83196 9.93526 7.22538 9.32868 7.22538 8.58042C7.22538 7.83217 7.83196 7.22559 8.58022 7.22559C9.32848 7.22559 9.93506 7.83217 9.93506 8.58042C9.93506 9.32868 9.32848 9.93526 8.58022 9.93526Z" fill="#3BAACF"/>
<path d="M13.0989 15.355C11.8518 15.355 10.8408 14.344 10.8408 13.0969C10.8408 11.8498 11.8518 10.8389 13.0989 10.8389C14.346 10.8389 15.3569 11.8498 15.3569 13.0969C15.3569 14.344 14.346 15.355 13.0989 15.355Z" fill="#EDF4F9"/>
<path d="M13.0998 14.4519C12.3515 14.4519 11.7449 13.8453 11.7449 13.097C11.7449 12.3488 12.3515 11.7422 13.0998 11.7422C13.848 11.7422 14.4546 12.3488 14.4546 13.097C14.4546 13.8453 13.848 14.4519 13.0998 14.4519Z" fill="#3BAACF"/>
<path d="M6.12165 2.27532C6.26164 2.41531 6.54163 2.41531 6.68163 2.27532C6.82162 2.13533 6.82162 1.85534 6.68163 1.71535C6.54163 1.57535 6.26164 1.57535 6.12165 1.71535C5.98166 1.85534 5.98166 2.13533 6.12165 2.27532Z" fill="white"/>
<path d="M5.32737 3.44097C5.12119 3.44097 4.95405 3.27383 4.95405 3.06765C4.95405 2.86148 5.12119 2.69434 5.32737 2.69434C5.53354 2.69434 5.70068 2.86148 5.70068 3.06765C5.70068 3.27383 5.53354 3.44097 5.32737 3.44097Z" fill="white"/>
<path d="M4.21018 4.56109C4.004 4.56109 3.83686 4.39395 3.83686 4.18777C3.83686 3.98159 4.004 3.81445 4.21018 3.81445C4.41636 3.81445 4.5835 3.98159 4.5835 4.18777C4.5835 4.39395 4.41636 4.56109 4.21018 4.56109Z" fill="white"/>
<path d="M3.13206 5.68218C2.92588 5.68218 2.75874 5.51504 2.75874 5.30886C2.75874 5.10269 2.92588 4.93555 3.13206 4.93555C3.33823 4.93555 3.50537 5.10269 3.50537 5.30886C3.50537 5.51504 3.33823 5.68218 3.13206 5.68218Z" fill="white"/>
<path d="M2.01487 6.75542C1.80869 6.75542 1.64155 6.58828 1.64155 6.38211C1.64155 6.17593 1.80869 6.00879 2.01487 6.00879C2.22104 6.00879 2.38818 6.17593 2.38818 6.38211C2.38818 6.58828 2.22104 6.75542 2.01487 6.75542Z" fill="white"/>
</svg>
