<svg width="19" height="19" viewBox="0 0 19 19" fill="none" xmlns="http://www.w3.org/2000/svg">
<path d="M17.71 17.1711L14.31 13.7285C15.407 12.3093 16.0022 10.5567 16 8.7525C16 7.14571 15.5308 5.575 14.6518 4.239C13.7727 2.90301 12.5233 1.86172 11.0615 1.24683C9.59966 0.631938 7.99113 0.471054 6.43928 0.784524C4.88743 1.09799 3.46197 1.87174 2.34315 3.00791C1.22433 4.14408 0.462403 5.59165 0.153721 7.16757C-0.15496 8.74349 0.00346625 10.377 0.608967 11.8615C1.21447 13.3459 2.23985 14.6147 3.55544 15.5074C4.87103 16.4001 6.41775 16.8766 8 16.8766C9.77666 16.8788 11.5025 16.2744 12.9 15.1604L16.29 18.6131C16.383 18.7083 16.4936 18.7838 16.6154 18.8354C16.7373 18.8869 16.868 18.9135 17 18.9135C17.132 18.9135 17.2627 18.8869 17.3846 18.8354C17.5064 18.7838 17.617 18.7083 17.71 18.6131C17.8037 18.5187 17.8781 18.4064 17.9289 18.2826C17.9797 18.1589 18.0058 18.0261 18.0058 17.8921C18.0058 17.758 17.9797 17.6253 17.9289 17.5015C17.8781 17.3778 17.8037 17.2655 17.71 17.1711ZM2 8.7525C2 7.54741 2.3519 6.36938 3.01119 5.36738C3.67047 4.36538 4.60755 3.58442 5.7039 3.12325C6.80026 2.66208 8.00666 2.54142 9.17055 2.77652C10.3344 3.01162 11.4035 3.59193 12.2426 4.44406C13.0818 5.29619 13.6532 6.38187 13.8847 7.5638C14.1162 8.74574 13.9974 9.97085 13.5433 11.0842C13.0892 12.1976 12.3201 13.1492 11.3334 13.8187C10.3467 14.4882 9.18669 14.8456 8 14.8456C6.4087 14.8456 4.88258 14.2036 3.75736 13.0609C2.63214 11.9183 2 10.3685 2 8.7525Z" fill="#E35757"/>
</svg>
