<svg width="18" height="18" viewBox="0 0 18 18" fill="none" xmlns="http://www.w3.org/2000/svg">
<path d="M14.1852 0.505723C14.0047 0.193781 13.6689 0 13.3087 0H9.54492V4.45208H16.4676L14.1852 0.505723Z" fill="#CECECE"/>
<path d="M8.49057 0H4.69123C4.33039 0 3.99454 0.194133 3.81412 0.506777L1.54004 4.45208H8.49054V0H8.49057Z" fill="#CECECE"/>
<path d="M1.16211 5.50732V16.7598C1.16211 17.4438 1.71884 18.0002 2.40288 18.0002H15.597C16.2811 18.0002 16.8378 17.4438 16.8378 16.7598V5.50732H1.16211ZM11.3946 10.2394L8.66618 12.9678C8.56313 13.0708 8.42806 13.1226 8.29303 13.1226C8.15799 13.1226 8.02292 13.0708 7.92023 12.9678L6.64114 11.689C6.43541 11.4833 6.43541 11.1492 6.64114 10.9431C6.84723 10.737 7.18135 10.737 7.38744 10.9431L8.29306 11.8491L10.6487 9.49341C10.8548 9.28732 11.1889 9.28732 11.3947 9.49341C11.6007 9.6995 11.6007 10.0333 11.3946 10.2394Z" fill="#CECECE"/>
</svg>
