<svg width="18" height="18" viewBox="0 0 18 18" fill="none" xmlns="http://www.w3.org/2000/svg">
<g clip-path="url(#clip0)">
<path d="M17.899 5.86121L15.0866 1.92375C14.9741 1.7775 14.8053 1.6875 14.6253 1.6875H3.37543C3.19543 1.6875 3.02668 1.7775 2.91418 1.92375L0.101708 5.86121C0.0679584 5.96246 0.0342087 6.06371 0.000459061 6.16496C-0.0107908 7.41369 1.0017 8.43743 2.25044 8.43743C2.92543 8.43743 3.52167 8.14494 3.93792 7.67244C4.35417 8.14494 4.95041 8.43743 5.6254 8.43743C6.3004 8.43743 6.89664 8.14494 7.31289 7.67244C7.72913 8.14494 8.32538 8.43743 9.00037 8.43743C9.67536 8.43743 10.2716 8.14494 10.6879 7.67244C11.1041 8.14494 11.7003 8.43743 12.3753 8.43743C13.0503 8.43743 13.6466 8.14494 14.0628 7.67244C14.4791 8.14494 15.0753 8.43743 15.7503 8.43743C16.999 8.43743 18.0115 7.41369 18.0003 6.16496C17.9665 6.06371 17.9328 5.96246 17.899 5.86121Z" fill="#CECECE"/>
<path d="M15.75 9.56192C15.1526 9.56192 14.571 9.40217 14.0625 9.10742C13.0455 9.69579 11.7045 9.69579 10.6875 9.10742C9.67054 9.69579 8.32843 9.69579 7.31256 9.10742C6.2967 9.69579 4.95346 9.69579 3.93759 9.10742C3.09273 9.59792 2.04649 9.66092 1.12512 9.34254V15.1869C1.12512 15.8079 1.62912 16.3119 2.25011 16.3119H11.25V10.6869H14.625V16.3119H15.75C16.371 16.3119 16.875 15.8079 16.875 15.1869V9.35604C16.5172 9.48317 16.1403 9.56192 15.75 9.56192ZM7.87506 14.0619H3.3751V10.6869H7.87506V14.0619Z" fill="#CECECE"/>
</g>
<defs>
<clipPath id="clip0">
<rect width="18" height="18" fill="white"/>
</clipPath>
</defs>
</svg>
