<svg width="18" height="18" viewBox="0 0 18 18" fill="none" xmlns="http://www.w3.org/2000/svg">
<g clip-path="url(#clip0)">
<path d="M16.9144 9.39788C16.6252 9.36327 16.3628 9.56981 16.3283 9.85903C15.8951 13.4902 12.8025 16.2287 9.13472 16.2287C7.39534 16.2287 5.71363 15.604 4.39954 14.4695C3.31123 13.5302 2.53134 12.2934 2.15191 10.9265L2.78183 11.2725C3.03712 11.4126 3.35778 11.3195 3.49785 11.0642C3.63806 10.8089 3.54482 10.4883 3.28953 10.3482L1.6714 9.45927C1.41625 9.31919 1.096 9.41216 0.955515 9.66704L0.0654978 11.2832C-0.0749879 11.5384 0.0179826 11.8591 0.272999 11.9995C0.508653 12.1205 0.828213 12.0567 0.989298 11.792L1.19639 11.4162C1.65067 12.9001 2.51926 14.2398 3.7103 15.2679C5.21595 16.5676 7.14224 17.2834 9.13472 17.2834C13.3362 17.2834 16.879 14.1453 17.3756 9.98399C17.4101 9.69478 17.2037 9.43235 16.9144 9.39788Z" fill="#CECECE"/>
<path d="M17.681 5.20622C17.4137 5.091 17.1034 5.21419 16.988 5.4817L16.8223 5.8658C16.2622 4.4994 15.3325 3.28405 14.1486 2.38634C12.6964 1.28512 10.9626 0.703125 9.13468 0.703125C7.21965 0.703125 5.35104 1.37012 3.87326 2.58135C2.41581 3.77596 1.40014 5.44311 1.01342 7.27561C0.953275 7.56056 1.13565 7.84029 1.4206 7.90044C1.45727 7.90827 1.49379 7.91184 1.52991 7.91184C1.77394 7.91184 1.99298 7.74156 2.0453 7.49341C2.38271 5.89478 3.2693 4.44007 4.54177 3.39707C5.83155 2.33993 7.46272 1.75766 9.13468 1.75766C10.7306 1.75766 12.244 2.26563 13.5113 3.22665C14.601 4.05295 15.4435 5.18672 15.9217 6.45782L15.2538 6.17053C14.9863 6.05559 14.6761 6.17905 14.561 6.44656C14.4459 6.71407 14.5695 7.0243 14.8371 7.13938L16.5333 7.86886C16.6013 7.89811 16.6719 7.91198 16.7415 7.91198C16.9457 7.91198 17.1399 7.79264 17.226 7.59338L17.9564 5.89931C18.0718 5.6318 17.9485 5.32158 17.681 5.20622Z" fill="#CECECE"/>
<path d="M7.28629 6.25979L5.72694 8.79952C5.69632 8.86132 5.63411 8.8973 5.56942 8.8973C5.5432 8.8973 5.51655 8.89139 5.49156 8.8789C5.40092 8.83399 5.3048 8.81271 5.21004 8.81271C4.97617 8.81271 4.75137 8.94234 4.64041 9.16605L4.54661 9.35529C4.39088 9.66963 4.51956 10.0507 4.83376 10.2064L10.6202 13.0736C10.7108 13.1185 10.8069 13.1397 10.9017 13.1397C11.1356 13.1397 11.3604 13.0101 11.4713 12.7864L11.5651 12.5972C11.7209 12.2828 11.5922 11.9017 11.278 11.746C11.1911 11.7029 11.1555 11.5976 11.1985 11.5106L12.2747 8.73155C12.7968 7.3834 12.2045 5.85962 10.9093 5.21775C10.5117 5.02083 10.088 4.92676 9.67002 4.92676C8.72603 4.92676 7.8106 5.40589 7.28629 6.25979Z" fill="#CECECE"/>
<path d="M8.34559 13.8575C8.75675 14.0412 9.14058 13.8645 9.34342 13.6179L7.93169 12.9185C7.82622 13.2835 7.99307 13.6828 8.34559 13.8575Z" fill="#CECECE"/>
<path d="M12.0142 4.67074C12.0198 4.66057 12.0256 4.65041 12.0308 4.63998C12.2143 4.2696 12.0628 3.82067 11.6926 3.6372C11.2567 3.47818 10.8627 3.58543 10.6898 3.97544C10.6846 3.98615 10.6805 3.997 10.6758 4.00772C10.9175 4.07322 11.153 4.16194 11.3774 4.27317C11.6041 4.38551 11.8169 4.51913 12.0142 4.67074Z" fill="#CECECE"/>
</g>
<defs>
<clipPath id="clip0">
<rect width="18" height="18" fill="white"/>
</clipPath>
</defs>
</svg>
