<svg width="18" height="18" viewBox="0 0 18 18" fill="none" xmlns="http://www.w3.org/2000/svg">
<g clip-path="url(#clip0)">
<path d="M16.7726 14.7273H13.909C12.1045 14.7273 10.6363 13.2592 10.6363 11.4546C10.6363 9.65012 12.1045 8.18198 13.909 8.18198H16.7726C16.9987 8.18198 17.1817 7.999 17.1817 7.77288V6.54563C17.1817 5.68778 16.5163 4.99012 15.6756 4.92247L13.3262 0.818844C13.1084 0.439316 12.7569 0.168054 12.3362 0.0554156C11.9175 -0.0564561 11.4797 0.00229861 11.105 0.220404L3.051 4.90928H1.63647C0.734019 4.90928 0.00012207 5.64314 0.00012207 6.54563V16.3636C0.00012207 17.2661 0.733981 18 1.63647 18H15.5453C16.4478 18 17.1817 17.2661 17.1817 16.3636V15.1364C17.1817 14.9103 16.9987 14.7273 16.7726 14.7273ZM13.8335 3.35235L14.7249 4.90928H11.1593L13.8335 3.35235ZM4.67711 4.90928L11.5168 0.927494C11.7018 0.819227 11.9179 0.790463 12.1245 0.845613C12.3334 0.90153 12.5076 1.03657 12.6159 1.22552L12.6167 1.22702L6.29213 4.90928H4.67711Z" fill="#CECECE"/>
<path d="M16.7726 9H13.909C12.5555 9 11.4545 10.101 11.4545 11.4545C11.4545 12.808 12.5555 13.909 13.909 13.909H16.7726C17.4493 13.909 17.9998 13.3585 17.9998 12.6818V10.2273C17.9998 9.5505 17.4493 9 16.7726 9ZM13.909 12.2727C13.458 12.2727 13.0908 11.9055 13.0908 11.4545C13.0908 11.0035 13.458 10.6364 13.909 10.6364C14.36 10.6364 14.7271 11.0035 14.7271 11.4545C14.7272 11.9055 14.36 12.2727 13.909 12.2727Z" fill="#CECECE"/>
</g>
<defs>
<clipPath id="clip0">
<rect width="18" height="18" fill="white"/>
</clipPath>
</defs>
</svg>
