<svg width="23" height="20" viewBox="0 0 23 20" fill="none" xmlns="http://www.w3.org/2000/svg">
<path d="M17.8885 19.9439C19.0489 19.9535 20.1795 19.5671 21.1024 18.8456C22.0253 18.1242 22.6882 17.1085 22.9868 15.9584C23.0038 15.8835 23.004 15.8057 22.9874 15.7307C22.9708 15.6557 22.9378 15.5856 22.8909 15.5256C22.8441 15.4656 22.7845 15.4173 22.7168 15.3843C22.6491 15.3513 22.575 15.3345 22.5 15.3352H22.3128L18.3728 4.31861C18.3364 4.21687 18.2705 4.12904 18.1838 4.067C18.0972 4.00495 17.9941 3.97168 17.8885 3.97168C17.7828 3.97168 17.6797 4.00495 17.5931 4.067C17.5065 4.12904 17.4405 4.21687 17.4041 4.31861L13.4642 15.3352H13.277C13.202 15.3345 13.1279 15.3513 13.0602 15.3843C12.9925 15.4173 12.933 15.4656 12.8861 15.5256C12.8392 15.5856 12.8063 15.6557 12.7896 15.7307C12.773 15.8056 12.7732 15.8835 12.7902 15.9584C13.0886 17.1086 13.7515 18.1244 14.6744 18.8459C15.5974 19.5674 16.7281 19.9537 17.8885 19.9439ZM17.8885 6.03696L21.2138 15.3352H14.5631L17.8885 6.03696Z" fill="#BCBCBC"/>
<path d="M9.72268 15.3352H9.53544L5.59547 4.31861C5.5591 4.21687 5.49314 4.12904 5.40652 4.067C5.3199 4.00495 5.21679 3.97168 5.11114 3.97168C5.00549 3.97168 4.90238 4.00495 4.81576 4.067C4.72914 4.12904 4.66318 4.21687 4.6268 4.31861L0.686831 15.3352H0.499664C0.424705 15.3345 0.350575 15.3513 0.282859 15.3843C0.215144 15.4173 0.15561 15.4656 0.108743 15.5256C0.0618764 15.5856 0.0289 15.6557 0.012299 15.7307C-0.00430196 15.8057 -0.00409461 15.8835 0.0129055 15.9584C0.311511 17.1085 0.974399 18.1242 1.89731 18.8456C2.82021 19.5671 3.95077 19.9535 5.11115 19.9439C6.2716 19.9537 7.40228 19.5674 8.32525 18.8459C9.24821 18.1244 9.91105 17.1086 10.2094 15.9584C10.2264 15.8835 10.2266 15.8056 10.21 15.7307C10.1934 15.6557 10.1605 15.5856 10.1136 15.5256C10.0667 15.4656 10.0072 15.4173 9.93948 15.3843C9.87177 15.3513 9.79764 15.3345 9.72268 15.3352ZM1.78576 15.3352L5.11113 6.03697L8.43651 15.3352H1.78576Z" fill="#BCBCBC"/>
<path d="M19.9233 1.84699H13.6359C13.52 1.36004 13.2463 0.926817 12.8588 0.616975C12.4712 0.307134 11.9924 0.138672 11.4992 0.138672C11.0061 0.138672 10.5272 0.307134 10.1397 0.616975C9.75213 0.926817 9.47841 1.36004 9.36252 1.84699H3.07517C2.93713 1.84699 2.80474 1.9027 2.70713 2.00185C2.60952 2.10101 2.55469 2.23549 2.55469 2.37572C2.55469 2.51595 2.60952 2.65043 2.70713 2.74959C2.80474 2.84875 2.93713 2.90445 3.07517 2.90445H9.36291C9.47914 3.39099 9.75295 3.82375 10.1404 4.13322C10.5278 4.4427 11.0064 4.61095 11.4992 4.61095C11.9921 4.61095 12.4706 4.4427 12.8581 4.13322C13.2455 3.82375 13.5193 3.39099 13.6355 2.90445H19.9233C20.0613 2.90445 20.1937 2.84875 20.2913 2.74959C20.3889 2.65043 20.4438 2.51595 20.4438 2.37572C20.4438 2.23549 20.3889 2.10101 20.2913 2.00185C20.1937 1.9027 20.0613 1.84699 19.9233 1.84699ZM11.4991 3.55349C11.2696 3.55346 11.0453 3.48431 10.8545 3.35477C10.6637 3.22524 10.515 3.04114 10.4272 2.82575C10.3394 2.61037 10.3165 2.37337 10.3613 2.14474C10.4061 1.91611 10.5166 1.7061 10.6789 1.54128C10.8412 1.37646 11.0479 1.26422 11.273 1.21877C11.4981 1.17331 11.7314 1.19668 11.9434 1.28592C12.1554 1.37515 12.3366 1.52625 12.4641 1.72009C12.5915 1.91394 12.6596 2.14183 12.6595 2.37495C12.6592 2.68745 12.5368 2.98704 12.3192 3.20799C12.1017 3.42894 11.8067 3.55319 11.4991 3.55349Z" fill="#BCBCBC"/>
</svg>
