<svg width="38" height="38" viewBox="0 0 38 38" fill="none" xmlns="http://www.w3.org/2000/svg">
<path d="M18.7486 0C12.8795 0 8.13018 4.75996 8.13018 10.616C8.13018 13.7544 9.75175 17.1683 11.6794 20.1932L9.04311 21.3003C8.91688 21.353 8.8114 21.4456 8.74287 21.564L0.0845999 36.5621C-0.208309 37.0761 0.310403 37.6717 0.859623 37.452L9.99389 33.7986L18.5045 37.4483C18.6608 37.5149 18.8375 37.5149 18.9939 37.4483L27.5045 33.7986L36.6375 37.452C37.1806 37.6724 37.7011 37.0912 37.4223 36.5756L29.2986 21.5774C29.226 21.4454 29.1081 21.3438 28.9667 21.2918L25.8617 20.1249C27.77 17.1169 29.3682 13.7306 29.3682 10.616C29.3682 4.75996 24.6176 0 18.7486 0ZM18.7486 1.25117C23.918 1.25117 28.1172 5.43569 28.1172 10.616C28.1172 14.0197 25.7164 18.3651 23.2376 21.7715C21.0279 24.8082 19.0973 26.8444 18.7486 27.2254C18.3841 26.8384 16.4522 24.7784 14.2608 21.7715C11.7795 18.3669 9.37997 14.0197 9.37997 10.616C9.37997 5.43569 13.5792 1.25117 18.7486 1.25117ZM18.7486 3.75593C14.9475 3.75593 11.8759 6.84028 11.8759 10.6294C11.8759 14.4186 14.9475 17.5041 18.7486 17.5041C22.5497 17.5041 25.6225 14.4186 25.6225 10.6294C25.6225 6.84028 22.5497 3.75593 18.7486 3.75593ZM18.7486 5.00589C21.8499 5.00589 24.3715 7.51585 24.3715 10.6294C24.3715 13.743 21.8448 16.2542 18.7486 16.2542C15.6523 16.2542 13.1257 13.743 13.1257 10.6294C13.1257 7.51585 15.6473 5.00589 18.7486 5.00589ZM18.4032 6.98447L14.6526 9.48558C13.9816 9.94623 14.6282 10.9816 15.3446 10.5231L15.6266 10.3351V13.1304C15.6279 13.4736 15.9058 13.7516 16.249 13.7529H21.2494C21.5926 13.7515 21.8705 13.4736 21.8719 13.1304V10.3351L22.1538 10.5231C22.8759 10.9828 23.5208 9.92251 22.8446 9.48558L19.0952 6.98447C18.9902 6.91432 18.8664 6.8777 18.7401 6.87959C18.6201 6.88147 18.5031 6.91786 18.4032 6.98447ZM18.7486 8.25404L20.6221 9.50275V12.5031H16.8763V9.50154L18.7486 8.25404ZM25.1636 21.2002L28.3064 22.3806L35.4988 35.6528L28.0147 32.6573L24.8658 21.6348C24.9664 21.4895 25.0635 21.3481 25.1636 21.2002ZM12.3714 21.2553C12.4578 21.3824 12.5434 21.5096 12.6302 21.6349L9.48127 32.6586L2.06792 35.626L9.72172 22.371L12.3714 21.2553ZM23.9357 22.93L26.7441 32.766L18.7486 36.1936L10.7543 32.766L13.5602 22.9361C15.9786 26.211 18.3019 28.5719 18.3019 28.5719C18.5466 28.8199 18.9469 28.8199 19.1916 28.5719C19.1916 28.5719 21.5264 26.2032 23.9357 22.93Z" fill="black"/>
</svg>
