<svg width="19" height="20" viewBox="0 0 19 20" fill="none" xmlns="http://www.w3.org/2000/svg">
<path d="M0.775362 0.628418C0.569723 0.628418 0.372507 0.711375 0.227098 0.859039C0.0816898 1.0067 0 1.20698 0 1.41581C0 1.62463 0.0816898 1.82491 0.227098 1.97257C0.372507 2.12024 0.569723 2.20319 0.775362 2.20319H1.15684C1.3252 2.20349 1.4889 2.25943 1.62319 2.36256C1.75747 2.46569 1.85506 2.6104 1.90119 2.77484L4.36063 11.5148C4.49974 12.0081 4.7932 12.4419 5.19663 12.7507C5.60007 13.0596 6.09156 13.2266 6.59678 13.2266H13.682C14.147 13.2267 14.6013 13.0853 14.9864 12.8206C15.3714 12.5559 15.6695 12.18 15.8422 11.7416L18.128 5.93699C18.2219 5.69813 18.2569 5.43954 18.2297 5.18382C18.2025 4.92809 18.1141 4.68302 17.9721 4.47002C17.8301 4.25702 17.6389 4.08257 17.4152 3.96193C17.1916 3.84129 16.9422 3.77813 16.6889 3.77797H3.79617L3.39143 2.34177C3.25268 1.84851 2.95958 1.41452 2.55643 1.10541C2.15328 0.7963 1.662 0.628866 1.15684 0.628418H0.775362Z" fill="#ED6C4E"/>
<path d="M6.97843 19.5261C7.2839 19.5261 7.58637 19.465 7.86858 19.3463C8.1508 19.2276 8.40722 19.0536 8.62322 18.8342C8.83922 18.6149 9.01056 18.3545 9.12745 18.0679C9.24435 17.7813 9.30451 17.4741 9.30451 17.1639C9.30451 16.8537 9.24435 16.5466 9.12745 16.26C9.01056 15.9734 8.83922 15.713 8.62322 15.4936C8.40722 15.2743 8.1508 15.1003 7.86858 14.9816C7.58637 14.8629 7.2839 14.8018 6.97843 14.8018C6.36151 14.8018 5.76986 15.0506 5.33364 15.4936C4.89741 15.9366 4.65234 16.5374 4.65234 17.1639C4.65234 17.7904 4.89741 18.3912 5.33364 18.8342C5.76986 19.2772 6.36151 19.5261 6.97843 19.5261Z" fill="#ED6C4E"/>
<path d="M13.1816 19.5261C13.487 19.5261 13.7895 19.465 14.0717 19.3463C14.3539 19.2276 14.6103 19.0536 14.8263 18.8342C15.0423 18.6149 15.2137 18.3545 15.3306 18.0679C15.4475 17.7813 15.5076 17.4741 15.5076 17.1639C15.5076 16.8537 15.4475 16.5466 15.3306 16.26C15.2137 15.9734 15.0423 15.713 14.8263 15.4936C14.6103 15.2743 14.3539 15.1003 14.0717 14.9816C13.7895 14.8629 13.487 14.8018 13.1816 14.8018C12.5646 14.8018 11.973 15.0506 11.5368 15.4936C11.1005 15.9366 10.8555 16.5374 10.8555 17.1639C10.8555 17.7904 11.1005 18.3912 11.5368 18.8342C11.973 19.2772 12.5646 19.5261 13.1816 19.5261Z" fill="#ED6C4E"/>
</svg>
