<svg width="19" height="14" viewBox="0 0 19 14" fill="none" xmlns="http://www.w3.org/2000/svg">
<path d="M0.775362 0.628418C0.569723 0.628418 0.372507 0.711375 0.227098 0.859039C0.0816898 1.0067 0 1.20698 0 1.41581C0 1.62463 0.0816898 1.82491 0.227098 1.97257C0.372507 2.12024 0.569723 2.20319 0.775362 2.20319H1.15684C1.3252 2.20349 1.4889 2.25943 1.62319 2.36256C1.75747 2.46569 1.85506 2.6104 1.90119 2.77484L4.36063 11.5148C4.49974 12.0081 4.7932 12.4419 5.19663 12.7507C5.60007 13.0596 6.09156 13.2266 6.59678 13.2266H13.682C14.147 13.2267 14.6013 13.0853 14.9864 12.8206C15.3714 12.5559 15.6695 12.18 15.8422 11.7416L18.128 5.93699C18.2219 5.69813 18.2569 5.43954 18.2297 5.18382C18.2025 4.92809 18.1141 4.68302 17.9721 4.47002C17.8301 4.25702 17.6389 4.08257 17.4152 3.96193C17.1916 3.84129 16.9422 3.77813 16.6889 3.77797H3.79617L3.39143 2.34177C3.25268 1.84851 2.95958 1.41452 2.55643 1.10541C2.15328 0.7963 1.662 0.628866 1.15684 0.628418H0.775362Z" fill="#E35757"/>
</svg>
