<svg width="14" height="16" viewBox="0 0 14 16" fill="none" xmlns="http://www.w3.org/2000/svg">
<path d="M10.2766 4.33028V3.44954C10.2766 3.36881 10.2096 3.30275 10.1277 3.30275H2.97872C2.89681 3.30275 2.82979 3.36881 2.82979 3.44954V4.33028C2.82979 4.41101 2.89681 4.47706 2.97872 4.47706H10.1277C10.2096 4.47706 10.2766 4.41101 10.2766 4.33028ZM2.97872 5.94495C2.89681 5.94495 2.82979 6.01101 2.82979 6.09174V6.97248C2.82979 7.05321 2.89681 7.11927 2.97872 7.11927H6.40426C6.48617 7.11927 6.55319 7.05321 6.55319 6.97248V6.09174C6.55319 6.01101 6.48617 5.94495 6.40426 5.94495H2.97872ZM9.97872 8.07339C7.75771 8.07339 5.95745 9.84771 5.95745 12.0367C5.95745 14.2257 7.75771 16 9.97872 16C12.1997 16 14 14.2257 14 12.0367C14 9.84771 12.1997 8.07339 9.97872 8.07339ZM11.9801 14.0092C11.4457 14.5358 10.7346 14.8257 9.97872 14.8257C9.22287 14.8257 8.5117 14.5358 7.97739 14.0092C7.44308 13.4826 7.14894 12.7817 7.14894 12.0367C7.14894 11.2917 7.44308 10.5908 7.97739 10.0642C8.5117 9.53761 9.22287 9.24771 9.97872 9.24771C10.7346 9.24771 11.4457 9.53761 11.9801 10.0642C12.5144 10.5908 12.8085 11.2917 12.8085 12.0367C12.8085 12.7817 12.5144 13.4826 11.9801 14.0092ZM11.6356 10.6422H10.8109C10.7625 10.6422 10.7178 10.6642 10.6899 10.7028L9.50771 12.3138L9.07766 11.7284C9.06388 11.7095 9.0457 11.6942 9.02464 11.6836C9.00358 11.6731 8.98026 11.6677 8.95665 11.6679H8.13564C8.01463 11.6679 7.94388 11.8037 8.01463 11.9009L9.38856 13.7743C9.44814 13.855 9.56915 13.855 9.62872 13.7743L11.7548 10.8752C11.8274 10.778 11.7566 10.6422 11.6356 10.6422ZM5.65957 14.2385H1.34043V1.3211H11.766V7.63303C11.766 7.71376 11.833 7.77982 11.9149 7.77982H12.9574C13.0394 7.77982 13.1064 7.71376 13.1064 7.63303V0.587156C13.1064 0.262385 12.8402 0 12.5106 0H0.595745C0.266223 0 0 0.262385 0 0.587156V14.9725C0 15.2972 0.266223 15.5596 0.595745 15.5596H5.65957C5.74149 15.5596 5.80851 15.4936 5.80851 15.4128V14.3853C5.80851 14.3046 5.74149 14.2385 5.65957 14.2385Z" fill="#7B53C1"/>
</svg>
