<svg width="14" height="16" viewBox="0 0 14 16" fill="none" xmlns="http://www.w3.org/2000/svg">
<path d="M1.45271 6.86336C1.40034 6.9152 1.33787 6.95638 1.26894 6.98449C1.20001 7.01259 1.126 7.02707 1.05124 7.02707C0.976475 7.02707 0.902465 7.01259 0.833532 6.98449C0.764599 6.95638 0.702126 6.9152 0.649765 6.86336C0.543189 6.75804 0.483469 6.61625 0.483469 6.46856C0.483469 6.32087 0.543189 6.17909 0.649765 6.07376L5.61647 1.20016C6.73647 0.355364 7.86306 -0.050236 8.98471 0.00496403C10.3979 0.075364 11.4981 0.598564 12.432 1.45696C13.384 2.33216 14 3.58096 14 5.09456C14 6.25616 13.6525 7.27856 12.9187 8.18576L5.91624 15.1938C5.208 15.7578 4.42071 16.0306 3.57741 15.9978C2.50682 15.9546 1.71047 15.6186 1.11835 15.0498C0.424941 14.385 0 13.5682 0 12.4698C0 11.5962 0.310471 10.7898 0.951176 10.033L7.11447 3.92016C7.60859 3.40816 8.092 3.10416 8.58612 3.03056C8.91592 2.9801 9.25342 3.00876 9.5692 3.11403C9.88499 3.21931 10.1695 3.39801 10.3979 3.63456C10.836 4.08496 11.0238 4.64656 10.9579 5.28576C10.9126 5.72176 10.7289 6.12336 10.3913 6.50816L4.72541 12.1466C4.67339 12.1986 4.61123 12.24 4.54255 12.2685C4.47387 12.2969 4.40005 12.3118 4.32539 12.3123C4.25073 12.3127 4.17672 12.2987 4.10769 12.2711C4.03865 12.2435 3.97597 12.2028 3.92329 12.1514C3.81606 12.0467 3.75545 11.9052 3.75452 11.7575C3.7536 11.6099 3.81243 11.4677 3.91835 11.3618L9.55706 5.75216C9.72176 5.56416 9.80824 5.37456 9.82882 5.17296C9.86176 4.85296 9.78271 4.61696 9.57765 4.40656C9.47409 4.29881 9.34471 4.21759 9.20103 4.17014C9.05736 4.12268 8.90383 4.11046 8.75412 4.13456C8.554 4.16416 8.274 4.34096 7.92894 4.69776L1.79118 10.7834C1.34894 11.3074 1.13482 11.8634 1.13482 12.4706C1.13482 13.2338 1.41894 13.7802 1.91059 14.2514C2.30176 14.6274 2.83294 14.8514 3.62353 14.8834C4.18353 14.905 4.70235 14.725 5.15365 14.3698L12.0688 7.44976C12.6 6.78816 12.8652 6.00976 12.8652 5.09536C12.8652 3.90976 12.39 2.94816 11.6562 2.27296C10.9068 1.58336 10.0504 1.17696 8.92788 1.12096C8.09776 1.07936 7.22729 1.39296 6.36094 2.03776L1.45271 6.86416V6.86336Z" fill="#7B53C1"/>
</svg>
