<svg width="12" height="13" viewBox="0 0 12 13" fill="none" xmlns="http://www.w3.org/2000/svg">
<g clip-path="url(#clip0)">
<path d="M6 0.326172C2.69147 0.326172 0 3.05938 0 6.41923C0 9.77908 2.69147 12.5123 6 12.5123C9.30853 12.5123 12 9.77908 12 6.41923C12 3.05938 9.30853 0.326172 6 0.326172ZM8.85352 9.57082C8.75601 9.66984 8.62802 9.71967 8.50003 9.71967C8.37204 9.71967 8.24396 9.66984 8.14655 9.57082L5.64651 7.03211C5.55249 6.93718 5.50003 6.80814 5.50003 6.67314V3.3727C5.50003 3.09192 5.72397 2.86498 6 2.86498C6.27603 2.86498 6.49997 3.09192 6.49997 3.3727V6.46293L8.85352 8.85288C9.04898 9.05147 9.04898 9.37232 8.85352 9.57082Z" fill="#E35757"/>
</g>
<defs>
<clipPath id="clip0">
<rect width="12" height="12.1861" fill="white" transform="translate(0 0.326172)"/>
</clipPath>
</defs>
</svg>
