<svg width="18" height="18" viewBox="0 0 18 18" fill="none" xmlns="http://www.w3.org/2000/svg">
<g clip-path="url(#clip0)">
<path d="M15.9519 7.38968V0.541351C15.9519 0.242386 15.7095 0 15.4105 0H10.6841V5.56526C10.6841 5.99277 10.2112 6.25067 9.85172 6.02174L7.99338 4.83687L6.13531 6.02174C5.77538 6.25081 5.30255 5.99222 5.30255 5.56526V0H0.576508C0.277542 0 0.0351562 0.242386 0.0351562 0.541351V13.545C0.0351562 13.844 0.277542 14.0864 0.576508 14.0864H11.8376C11.2547 12.8723 10.9689 11.9638 10.9689 11.3332C10.9689 8.73331 13.4024 6.78694 15.9519 7.38968Z" fill="#7B53C1"/>
<path d="M8.28464 3.7381L9.60121 4.57773V0H6.38538V4.57773L7.70236 3.7381C7.87993 3.6248 8.10707 3.6248 8.28464 3.7381Z" fill="#7B53C1"/>
<path d="M15.0203 8.36426C13.3835 8.36426 12.0516 9.69621 12.0516 11.3333C12.0516 12.5597 13.7965 16.3596 14.714 17.8301C14.8555 18.0568 15.1852 18.0568 15.3267 17.8301C16.2443 16.3594 17.9893 12.558 17.9893 11.3333C17.9893 9.69553 16.6568 8.36426 15.0203 8.36426ZM15.0203 12.8582C14.0562 12.8582 13.2717 12.0739 13.2717 11.1096C13.2717 10.1456 14.0562 9.36086 15.0203 9.36086C15.985 9.36086 16.769 10.1457 16.769 11.1096C16.769 12.0726 15.9861 12.8582 15.0203 12.8582Z" fill="#7B53C1"/>
<path d="M15.0203 10.4434C14.6533 10.4434 14.3544 10.7422 14.3544 11.1093C14.3544 11.4766 14.6533 11.7752 15.0203 11.7752C15.3878 11.7752 15.6863 11.4766 15.6863 11.1093C15.6863 10.7422 15.3878 10.4434 15.0203 10.4434Z" fill="#7B53C1"/>
</g>
<defs>
<clipPath id="clip0">
<rect width="18" height="18" fill="white"/>
</clipPath>
</defs>
</svg>
