<svg width="12" height="16" viewBox="0 0 12 16" fill="none" xmlns="http://www.w3.org/2000/svg">
<path d="M11.2438 14.497C11.4338 14.4971 11.6167 14.5693 11.7556 14.699C11.8944 14.8287 11.9788 15.0063 11.9918 15.1959C12.0047 15.3855 11.9453 15.5729 11.8253 15.7203C11.7054 15.8677 11.534 15.9641 11.3458 15.99L11.2438 15.997H0.749771C0.559748 15.997 0.37683 15.9248 0.23798 15.7951C0.0991288 15.6653 0.0146974 15.4877 0.00174538 15.2981C-0.0112066 15.1086 0.0482868 14.9211 0.168204 14.7737C0.288121 14.6263 0.459521 14.5299 0.647771 14.504L0.749771 14.497H11.2438ZM6.00377 2.34842e-05C6.18484 0.000272564 6.3597 0.0660165 6.49608 0.185119C6.63246 0.304221 6.72115 0.46864 6.74577 0.648023L6.75277 0.750023V10.943L9.71877 7.97302C9.84563 7.84586 10.0139 7.76844 10.193 7.75486C10.3721 7.74128 10.5502 7.79244 10.6948 7.89902L10.7798 7.97102C10.9071 8.09807 10.9844 8.26662 10.9978 8.44596C11.0112 8.62529 10.9598 8.80347 10.8528 8.94802L10.7808 9.03202L6.53777 13.282L6.46777 13.345L6.37577 13.404L6.33977 13.425L6.24877 13.463L6.12877 13.493L6.05877 13.501L5.99877 13.503C5.94802 13.5029 5.89741 13.4976 5.84777 13.487L5.76777 13.464C5.67272 13.4334 5.58493 13.3838 5.50977 13.318L1.21977 9.03302C1.08523 8.89937 1.00632 8.71971 0.998925 8.53021C0.991528 8.34071 1.05619 8.15544 1.1799 8.0117C1.30361 7.86797 1.47718 7.77643 1.66567 7.75552C1.85416 7.73462 2.04357 7.78589 2.19577 7.89902L2.27977 7.97202L5.25277 10.939V0.749024C5.25277 0.550111 5.33179 0.359346 5.47244 0.218693C5.61309 0.0780411 5.80386 -0.000976562 6.00277 -0.000976562L6.00377 2.34842e-05Z" fill="#7B53C1"/>
</svg>
