<svg width="12" height="16" viewBox="0 0 12 16" fill="none" xmlns="http://www.w3.org/2000/svg">
<path d="M11.244 14.497C11.434 14.4971 11.617 14.5693 11.7558 14.699C11.8947 14.8287 11.9791 15.0063 11.992 15.1959C12.005 15.3855 11.9455 15.5729 11.8256 15.7203C11.7057 15.8677 11.5343 15.9641 11.346 15.99L11.244 15.997H0.750015C0.559992 15.997 0.377074 15.9248 0.238224 15.7951C0.0993729 15.6653 0.0149415 15.4877 0.00198952 15.2981C-0.0109625 15.1086 0.0485309 14.9211 0.168448 14.7737C0.288365 14.6263 0.459765 14.5299 0.648015 14.504L0.750015 14.497H11.244ZM6.00401 2.34842e-05C6.18508 0.000272564 6.35994 0.0660165 6.49632 0.185119C6.6327 0.304221 6.72139 0.46864 6.74602 0.648023L6.75302 0.750023V10.943L9.71902 7.97302C9.84588 7.84586 10.0142 7.76844 10.1933 7.75486C10.3724 7.74128 10.5504 7.79244 10.695 7.89902L10.78 7.97102C10.9073 8.09807 10.9847 8.26662 10.9981 8.44596C11.0115 8.62529 10.96 8.80347 10.853 8.94802L10.781 9.03202L6.53802 13.282L6.46802 13.345L6.37602 13.404L6.34002 13.425L6.24901 13.463L6.12901 13.493L6.05902 13.501L5.99901 13.503C5.94826 13.5029 5.89766 13.4976 5.84801 13.487L5.76801 13.464C5.67297 13.4334 5.58517 13.3838 5.51002 13.318L1.22002 9.03302C1.08548 8.89937 1.00657 8.71971 0.99917 8.53021C0.991772 8.34071 1.05644 8.15544 1.18015 8.0117C1.30386 7.86797 1.47743 7.77643 1.66592 7.75552C1.8544 7.73462 2.04381 7.78589 2.19602 7.89902L2.28002 7.97202L5.25302 10.939V0.749024C5.25302 0.550111 5.33203 0.359346 5.47268 0.218693C5.61334 0.0780411 5.8041 -0.000976562 6.00302 -0.000976562L6.00401 2.34842e-05Z" fill="white"/>
</svg>
