<svg width="7" height="13" viewBox="0 0 7 13" fill="none" xmlns="http://www.w3.org/2000/svg">
<path d="M5.0932 2.02078H6.70158C6.84955 2.02078 6.96964 1.90762 6.96964 1.76819V0.252598C6.96964 0.113164 6.84955 0 6.70158 0H5.0932C3.46766 0 2.1445 1.24632 2.1445 2.77858V4.54676H0.268063C0.120092 4.54676 0 4.65993 0 4.79936V6.31495C0 6.45438 0.120092 6.56755 0.268063 6.56755H2.1445V11.8721C2.1445 12.0115 2.2646 12.1247 2.41257 12.1247H4.02095C4.16892 12.1247 4.28901 12.0115 4.28901 11.8721V6.56755H6.16545C6.28072 6.56755 6.38312 6.49783 6.42011 6.39477L6.95624 4.87918C6.98358 4.80239 6.96964 4.71752 6.91924 4.65134C6.86831 4.58566 6.78789 4.54676 6.70158 4.54676H4.28901V2.77858C4.28901 2.36078 4.64982 2.02078 5.0932 2.02078Z" fill="#758BFD"/>
</svg>
