<svg width="142" height="116" viewBox="0 0 142 116" fill="none" xmlns="http://www.w3.org/2000/svg">
<path d="M139.977 39.0671C139.261 38.0265 138.297 37.1809 137.172 36.6066C136.046 36.0324 134.796 35.7477 133.533 35.7782H32.644C30.5152 35.8685 28.4533 36.5478 26.6878 37.7405C24.9222 38.9332 23.5223 40.5926 22.644 42.5338C22.6295 42.7409 22.6295 42.9489 22.644 43.156L9.66623 89.1116V9.11157H38.5107L50.1107 25.0671C50.5244 25.6333 51.0663 26.0936 51.692 26.4103C52.3177 26.727 53.0094 26.8912 53.7107 26.8894H125.222C125.222 24.5319 124.285 22.2709 122.618 20.604C120.951 18.937 118.69 18.0005 116.333 18.0005H55.9773L45.7107 3.86713C44.8832 2.73471 43.7994 1.81417 42.5481 1.18076C41.2967 0.54735 39.9132 0.219048 38.5107 0.222686H9.66623C7.30875 0.222686 5.04783 1.15919 3.38084 2.82618C1.71385 4.49317 0.777344 6.75409 0.777344 9.11157V109.956C0.846731 111.555 1.54325 113.063 2.71611 114.153C3.88897 115.243 5.4438 115.826 7.04401 115.778H117.844C118.836 115.818 119.812 115.524 120.618 114.944C121.423 114.364 122.011 113.531 122.288 112.578L140.911 45.4671C141.258 44.4005 141.355 43.268 141.193 42.1579C141.031 41.0479 140.615 39.9901 139.977 39.0671Z" fill="#7B53C1"/>
</svg>
