<svg width="20" height="19" viewBox="0 0 20 19" fill="none" xmlns="http://www.w3.org/2000/svg">
<path d="M0.5 6.12874V6.12865C0.499888 5.46526 0.629996 4.80869 0.882526 4.19737C1.13505 3.58606 1.50482 3.03251 1.96984 2.56886C2.43485 2.10523 2.98576 1.74079 3.59018 1.49645C4.19458 1.25212 4.84062 1.13267 5.4906 1.14489L5.49059 1.14504L5.5027 1.14498C6.27963 1.14079 7.0488 1.30432 7.7593 1.62499C8.46983 1.94568 9.10572 2.41633 9.62456 3.00622L10 3.43308L10.3754 3.00622C10.8943 2.41633 11.5302 1.94568 12.2407 1.62499C12.9512 1.30432 13.7204 1.14079 14.4973 1.14498L14.4973 1.14512L14.5094 1.14489C15.1594 1.13267 15.8054 1.25212 16.4098 1.49645C17.0142 1.74079 17.5652 2.10523 18.0302 2.56886C18.4952 3.03251 18.865 3.58606 19.1175 4.19737C19.37 4.80869 19.5001 5.46526 19.5 6.12865V6.12874C19.5 8.64793 18.021 10.9128 15.9988 12.9995C14.9938 14.0367 13.8731 15.0112 12.7691 15.9354C12.453 16.2001 12.1371 16.4615 11.8257 16.7193C11.1867 17.2482 10.5664 17.7615 10.0016 18.255C9.41176 17.7348 8.76116 17.1946 8.09149 16.6385C7.80819 16.4033 7.52147 16.1652 7.23449 15.9246C6.13047 14.9991 5.00946 14.0257 4.00378 12.9904C1.98048 10.9073 0.5 8.64946 0.5 6.12874Z" stroke="#E35757"/>
</svg>
