<svg width="16" height="27" viewBox="0 0 16 27" fill="none" xmlns="http://www.w3.org/2000/svg">
<path d="M11.6917 4.5H15.3838C15.7235 4.5 15.9992 4.248 15.9992 3.9375V0.5625C15.9992 0.252 15.7235 0 15.3838 0H11.6917C7.9602 0 4.92282 2.77537 4.92282 6.1875V10.125H0.615353C0.275678 10.125 0 10.377 0 10.6875V14.0625C0 14.373 0.275678 14.625 0.615353 14.625H4.92282V26.4375C4.92282 26.748 5.1985 27 5.53818 27H9.23029C9.56997 27 9.84564 26.748 9.84564 26.4375V14.625H14.1531C14.4177 14.625 14.6528 14.4698 14.7377 14.2403L15.9684 10.8653C16.0312 10.6943 15.9992 10.5052 15.8835 10.3579C15.7666 10.2116 15.582 10.125 15.3838 10.125H9.84564V6.1875C9.84564 5.25712 10.6739 4.5 11.6917 4.5Z" fill="#7B53C1"/>
</svg>
