<svg width="10" height="18" viewBox="0 0 10 18" fill="none" xmlns="http://www.w3.org/2000/svg">
<path d="M7.30731 3.1722H9.61489C9.82718 3.1722 9.99948 3.01107 9.99948 2.81254V0.654582C9.99948 0.456049 9.82718 0.294922 9.61489 0.294922H7.30731C4.97513 0.294922 3.07676 2.06948 3.07676 4.25118V6.7688H0.384596C0.172299 6.7688 0 6.92992 0 7.12846V9.28642C0 9.48495 0.172299 9.64607 0.384596 9.64607H3.07676V17.1989C3.07676 17.3975 3.24906 17.5586 3.46136 17.5586H5.76893C5.98123 17.5586 6.15353 17.3975 6.15353 17.1989V9.64607H8.8457C9.01107 9.64607 9.15799 9.54681 9.21106 9.40007L9.98025 7.24211C10.0195 7.13277 9.99948 7.01193 9.92718 6.9177C9.85411 6.82418 9.73873 6.7688 9.61489 6.7688H6.15353V4.25118C6.15353 3.6563 6.67119 3.1722 7.30731 3.1722Z" fill="white"/>
</svg>
