<svg width="17" height="19" viewBox="0 0 17 19" fill="none" xmlns="http://www.w3.org/2000/svg">
<path d="M2.12308 5.22999C3.29563 5.22999 4.24616 4.26471 4.24616 3.07398C4.24616 1.88325 3.29563 0.917969 2.12308 0.917969C0.950536 0.917969 0 1.88325 0 3.07398C0 4.26471 0.950536 5.22999 2.12308 5.22999Z" fill="white"/>
<path d="M3.89232 6.66992H0.353847C0.158523 6.66992 0 6.8309 0 7.02926V17.8093C0 18.0077 0.158523 18.1686 0.353847 18.1686H3.89232C4.08764 18.1686 4.24616 18.0077 4.24616 17.8093V7.02926C4.24616 6.8309 4.08764 6.66992 3.89232 6.66992Z" fill="white"/>
<path d="M14.4373 6.07267C12.925 5.5466 11.0333 6.00871 9.8989 6.83733C9.85998 6.68282 9.72127 6.56783 9.55638 6.56783H6.01791C5.82259 6.56783 5.66406 6.72882 5.66406 6.92717V17.7072C5.66406 17.9056 5.82259 18.0666 6.01791 18.0666H9.55638C9.7517 18.0666 9.91023 17.9056 9.91023 17.7072V9.95996C10.482 9.45976 11.2188 9.30022 11.8217 9.56038C12.4063 9.81119 12.741 10.4235 12.741 11.2392V17.7072C12.741 17.9056 12.8995 18.0666 13.0949 18.0666H16.6333C16.8286 18.0666 16.9872 17.9056 16.9872 17.7072V10.5155C16.9468 7.56247 15.5789 6.46938 14.4373 6.07267Z" fill="white"/>
</svg>
