<svg width="27" height="24" viewBox="0 0 27 24" fill="none" xmlns="http://www.w3.org/2000/svg">
<path d="M26.8467 2.92336C26.6682 2.7112 26.3806 2.65784 26.1447 2.78869C25.9979 2.87 25.7221 2.97672 25.3946 3.08217C25.8078 2.4876 26.14 1.82189 26.2867 1.22351C26.3501 0.965608 26.2574 0.693733 26.0555 0.540009C25.8535 0.387556 25.5847 0.387556 25.3828 0.540009C25.0647 0.780123 23.5292 1.50173 22.5584 1.7355C20.3644 -0.344218 17.8112 -0.560194 15.157 1.11679C12.9994 2.47998 12.5298 5.25208 12.6214 6.94177C7.68278 6.42724 4.61304 3.60432 2.88506 1.26797C2.76415 1.10409 2.56928 1.0177 2.38615 1.0304C2.19363 1.04565 2.0199 1.16126 1.92129 1.34039C1.10426 2.83316 0.877693 4.48346 1.2686 6.11344C1.48225 7.00275 1.85555 7.78661 2.28872 8.42183C2.08094 8.31131 1.8802 8.17283 1.6912 8.00767C1.51747 7.85268 1.27447 7.82346 1.06904 7.92636C0.864781 8.03181 0.734478 8.25541 0.734478 8.5006C0.734478 11.2994 2.35211 13.1669 3.86292 14.1426C3.61875 14.1109 3.36401 14.0524 3.10693 13.9673C2.88623 13.8949 2.64676 13.9673 2.49415 14.1553C2.34154 14.3421 2.30515 14.6089 2.40024 14.8363C3.24897 16.8677 4.85721 18.2652 6.84697 18.7721C5.1096 19.8761 2.7841 20.4174 0.654653 20.1518C0.378787 20.1099 0.115834 20.2992 0.0289651 20.5863C-0.0579034 20.8734 0.0559648 21.1885 0.298962 21.3359C3.52953 23.2987 6.45019 24 8.97407 24C12.6472 24 15.4822 22.5161 17.2078 21.2749C21.8599 17.9336 24.7595 11.9346 24.3557 6.56699C25.1011 5.97115 26.2163 4.87095 26.9077 3.68817C27.0509 3.44932 27.0251 3.13425 26.8467 2.92336Z" fill="#7B53C1"/>
</svg>
