<svg width="28" height="28" viewBox="0 0 28 28" fill="none" xmlns="http://www.w3.org/2000/svg">
<path d="M9.14201 4.6875L6.49219 5.41025V21.8164L9.14201 21.0938V4.6875Z" fill="#419B46"/>
<path d="M1.92578 6.65634V23.0626L4.57583 22.3398V5.93359L1.92578 6.65634Z" fill="#A4D4A0"/>
<path d="M4.57812 5.93341V22.3397L6.497 21.8163V5.41016L4.57812 5.93341Z" fill="#65BC49"/>
<path d="M9.14453 4.6875V21.0937L11.6985 21.7902V5.38411L9.14453 4.6875Z" fill="#A4D4A0"/>
<path d="M16.3624 6.65601L13.6167 5.90723V22.3134L16.3624 23.0623V6.65601Z" fill="#419B46"/>
<path d="M11.6992 5.38477V21.7909L13.6182 22.3143V5.90813L11.6992 5.38477Z" fill="#65BC49"/>
<path d="M1.92578 23.445C1.84277 23.445 1.76095 23.418 1.69336 23.3664C1.59853 23.294 1.54297 23.1815 1.54297 23.0622V6.65605C1.54297 6.48345 1.65847 6.33219 1.82505 6.28669L9.0438 4.31794C9.15886 4.28709 9.28202 4.31061 9.37684 4.38313C9.47167 4.45553 9.52723 4.56797 9.52723 4.6873V21.0934C9.52723 21.266 9.41173 21.4173 9.24516 21.4628L2.02641 23.4315C1.99327 23.4405 1.95947 23.445 1.92578 23.445ZM2.30859 6.94841V22.561L8.76172 20.8011V5.18845L2.30859 6.94841ZM9.14453 21.0934H9.14562H9.14453Z" fill="#1C2D6B"/>
<path d="M16.3633 23.445C16.3296 23.445 16.2958 23.4405 16.2625 23.4315L9.0438 21.4628C8.87722 21.4173 8.76172 21.266 8.76172 21.0934V4.6873C8.76172 4.56797 8.81739 4.45553 8.91211 4.38313C9.00705 4.31061 9.13009 4.28709 9.24516 4.31794L16.4639 6.28669C16.6304 6.33219 16.746 6.48345 16.746 6.65605V23.0622C16.746 23.1815 16.6903 23.294 16.5955 23.3664C16.5282 23.418 16.4463 23.445 16.3633 23.445ZM9.52734 20.8012L15.9805 22.5611V6.94841L9.52734 5.18845V20.8012Z" fill="#1C2D6B"/>
<path d="M16.3633 6.65623V23.0625L19.0131 22.3397V5.93359L16.3633 6.65623Z" fill="#A4D4A0"/>
<path d="M23.583 4.6875L20.9331 5.41025V21.8164L23.583 21.0938V4.6875Z" fill="#419B46"/>
<path d="M19.0156 5.93352V22.3397L20.9346 21.8163V5.41016L19.0156 5.93352Z" fill="#65BC49"/>
<path d="M16.3633 23.4451C16.2802 23.4451 16.1983 23.4181 16.131 23.3664C16.0361 23.294 15.9805 23.1816 15.9805 23.0623V6.65612C15.9805 6.48353 16.0961 6.33226 16.2625 6.28676L23.4813 4.31801C23.5967 4.28695 23.7197 4.3108 23.8143 4.3832C23.9092 4.45561 23.9648 4.56805 23.9648 4.68737V21.0935C23.9648 21.2661 23.8492 21.4174 23.6828 21.4629L16.464 23.4316C16.4308 23.4406 16.3969 23.4451 16.3633 23.4451ZM16.7461 6.94848V22.5611L23.1992 20.8012V5.18853L16.7461 6.94848ZM23.582 21.0935H23.5831H23.582Z" fill="#1C2D6B"/>
<path d="M2.80078 16.5545H1.92578C1.71436 16.5545 1.54297 16.3831 1.54297 16.1717C1.54297 15.9603 1.71436 15.7889 1.92578 15.7889H2.80078C3.0122 15.7889 3.18359 15.9603 3.18359 16.1717C3.18359 16.3831 3.0122 16.5545 2.80078 16.5545ZM15.9805 16.5305C15.9652 16.5305 15.9497 16.5296 15.934 16.5277C15.6112 16.4887 15.2945 16.4074 14.9927 16.2866C14.7965 16.2078 14.7012 15.985 14.7799 15.7887C14.8587 15.5925 15.0812 15.4974 15.2777 15.5759C15.5176 15.6721 15.7695 15.7366 16.0262 15.7677C16.2361 15.7931 16.3856 15.9839 16.3602 16.1938C16.3366 16.388 16.1713 16.5305 15.9805 16.5305ZM4.7435 16.2944C4.57955 16.2944 4.42784 16.1882 4.37753 16.0233C4.31573 15.8211 4.42959 15.6071 4.63183 15.5453C4.89192 15.4658 5.14852 15.3664 5.39461 15.2496C5.58569 15.1591 5.81395 15.2403 5.90463 15.4313C5.9953 15.6222 5.91392 15.8506 5.72295 15.9413C5.44317 16.0741 5.15136 16.1871 4.8555 16.2776C4.81831 16.289 4.78058 16.2944 4.7435 16.2944ZM17.8916 16.1963C17.7516 16.1963 17.6166 16.1192 17.5493 15.9856C17.4543 15.7967 17.5302 15.5666 17.7191 15.4715C17.9502 15.3552 18.1652 15.2091 18.3583 15.0372C18.5161 14.8967 18.758 14.9106 18.8987 15.0686C19.0392 15.2264 19.0251 15.4684 18.8673 15.609C18.6245 15.8252 18.3541 16.0089 18.0634 16.1552C18.0083 16.1831 17.9495 16.1963 17.8916 16.1963ZM13.62 15.1019C13.4982 15.1019 13.3785 15.044 13.3043 14.9359C13.1749 14.7478 13.0622 14.5464 12.9693 14.3377L12.864 14.1015C12.778 13.9083 12.8649 13.682 13.058 13.5961C13.2511 13.5098 13.4773 13.5969 13.5634 13.79L13.6686 14.0262C13.7425 14.1924 13.8322 14.3524 13.9352 14.5022C14.0549 14.6765 14.0107 14.9147 13.8366 15.0344C13.7703 15.0802 13.6949 15.1019 13.62 15.1019ZM7.16725 14.859C7.06761 14.859 6.96819 14.8203 6.89316 14.7434C6.7455 14.592 6.74856 14.3496 6.90005 14.2021C7.09484 14.0121 7.27728 13.8062 7.44211 13.5898C7.57041 13.4217 7.81048 13.3893 7.97859 13.5175C8.14681 13.6457 8.17919 13.8858 8.051 14.054C7.86353 14.2999 7.65616 14.5343 7.43456 14.7502C7.35997 14.8229 7.26361 14.859 7.16725 14.859ZM19.8055 14.1464C19.7304 14.1464 19.6547 14.1244 19.5883 14.0786C19.4143 13.9584 19.3708 13.7201 19.4909 13.5461L19.9882 12.8262C20.1086 12.6522 20.3467 12.6089 20.5207 12.7287C20.6947 12.8489 20.7383 13.0872 20.6182 13.2613L20.1209 13.9812C20.0466 14.0888 19.927 14.1464 19.8055 14.1464ZM12.0804 12.749C11.998 12.749 11.915 12.7225 11.845 12.6678C11.6411 12.5087 11.4171 12.3765 11.1792 12.2752C10.9847 12.1923 10.8941 11.9676 10.9769 11.773C11.0597 11.5785 11.2847 11.488 11.479 11.5707C11.7783 11.6981 12.06 11.8642 12.3163 12.0645C12.4829 12.1945 12.5124 12.4352 12.3824 12.6017C12.3068 12.6985 12.1941 12.749 12.0804 12.749ZM8.80405 12.5454C8.73547 12.5454 8.66602 12.527 8.60334 12.4884C8.42342 12.3773 8.36764 12.1415 8.47866 11.9617L8.79169 11.4544C8.86147 11.3414 8.98473 11.2726 9.11752 11.2726H9.39642C9.60784 11.2726 9.77923 11.444 9.77923 11.6554C9.77923 11.8668 9.60784 12.0382 9.39642 12.0382H9.33102L9.1302 12.3637C9.05791 12.4809 8.93245 12.5454 8.80405 12.5454ZM21.4219 11.8067C21.3467 11.8067 21.271 11.7847 21.2047 11.7389C21.0306 11.6187 20.9871 11.3803 21.1072 11.2063L21.6045 10.4864C21.7248 10.3123 21.9632 10.2691 22.1371 10.389C22.3111 10.5092 22.3546 10.7475 22.2345 10.9215L21.7372 11.6414C21.6628 11.749 21.5433 11.8067 21.4219 11.8067ZM23.0381 9.46694C22.963 9.46694 22.8873 9.44495 22.8209 9.39913C22.6469 9.27892 22.6033 9.0406 22.7234 8.86658L23.2208 8.14668C23.3411 7.97255 23.5794 7.92935 23.7533 8.04922C23.9273 8.16943 23.9709 8.40775 23.8508 8.58177L23.3534 9.30167C23.2791 9.40919 23.1595 9.46694 23.0381 9.46694Z" fill="#1C2D6B"/>
<path d="M8.07374 9.41392C7.71958 8.71841 7.49427 7.67595 7.49427 6.51012C7.49427 4.41625 8.22041 2.71875 9.11608 2.71875C7.02221 2.71875 5.32471 4.41614 5.32471 6.51012C5.32471 7.67595 5.85135 8.71841 6.67921 9.41392L6.67866 9.41414L9.11597 11.6555L8.07341 9.41414L8.07374 9.41392Z" fill="#89AADB"/>
<path d="M12.9091 6.51012C12.9091 4.41625 11.2117 2.71875 9.11768 2.71875C10.0133 2.71875 10.7395 4.41614 10.7395 6.51012C10.7395 7.67595 10.5142 8.71841 10.16 9.41392L10.1602 9.41414L9.11768 11.6555L11.555 9.41414L11.5544 9.41392C12.3824 8.71841 12.9091 7.67595 12.9091 6.51012Z" fill="#4B67B0"/>
<path d="M10.1568 9.41392C10.511 8.71841 10.7363 7.67595 10.7363 6.51012C10.7363 4.41625 10.0102 2.71875 9.11449 2.71875C8.21882 2.71875 7.49268 4.41614 7.49268 6.51012C7.49268 7.67595 7.71799 8.71841 8.07214 9.41392L8.07193 9.41414L9.11449 11.6555L10.1571 9.41414L10.1568 9.41392Z" fill="#6287C5"/>
<path d="M9.11608 12.0382C9.02311 12.0382 8.93025 12.0045 8.85697 11.9371L6.41966 9.69589C6.419 9.69523 6.41824 9.69458 6.41758 9.69392C5.47947 8.89822 4.94189 7.73884 4.94189 6.51002C4.94189 4.20844 6.81439 2.33594 9.11608 2.33594C11.4178 2.33594 13.2903 4.20844 13.2903 6.51002C13.2903 7.73884 12.7527 8.89822 11.8146 9.69392C11.8139 9.69458 11.8132 9.69523 11.8125 9.69589L9.37519 11.9371C9.30191 12.0046 9.20905 12.0382 9.11608 12.0382ZM6.95232 9.14551L9.11608 11.1353L11.28 9.14551C11.2884 9.13687 11.2972 9.12867 11.3066 9.1208C12.0807 8.47056 12.5246 7.51889 12.5246 6.51002C12.5246 4.63052 10.9956 3.10156 9.11608 3.10156C7.23658 3.10156 5.70763 4.63063 5.70763 6.51002C5.70763 7.51889 6.15158 8.47056 6.92563 9.1208C6.93493 9.12867 6.94379 9.13698 6.95232 9.14551Z" fill="#1C2D6B"/>
<path d="M8.3663 6.50995C8.3663 5.47002 8.70252 4.62695 9.11738 4.62695C8.07744 4.62695 7.23438 5.47002 7.23438 6.50995C7.23438 7.54989 8.07744 8.39295 9.11738 8.39295C8.70263 8.39295 8.3663 7.54989 8.3663 6.50995Z" fill="#EF7F72"/>
<path d="M9.11719 4.62695C9.53205 4.62695 9.86827 5.47002 9.86827 6.50995C9.86827 7.54989 9.53205 8.39295 9.11719 8.39295C10.1571 8.39295 11.0002 7.54989 11.0002 6.50995C11.0002 5.47002 10.1571 4.62695 9.11719 4.62695Z" fill="#E8383B"/>
<path d="M9.11436 8.39295C9.52917 8.39295 9.86544 7.54991 9.86544 6.50995C9.86544 5.47 9.52917 4.62695 9.11436 4.62695C8.69955 4.62695 8.36328 5.47 8.36328 6.50995C8.36328 7.54991 8.69955 8.39295 9.11436 8.39295Z" fill="#E95947"/>
<path d="M9.11738 8.77588C7.86799 8.77588 6.85156 7.75934 6.85156 6.50995C6.85156 5.26056 7.86799 4.24414 9.11738 4.24414C10.3668 4.24414 11.3832 5.26056 11.3832 6.50995C11.3832 7.75934 10.3668 8.77588 9.11738 8.77588ZM9.11738 5.00987C8.29017 5.00987 7.61719 5.68286 7.61719 6.51006C7.61719 7.33727 8.29017 8.01036 9.11738 8.01036C9.94458 8.01036 10.6176 7.33738 10.6176 6.51006C10.6177 5.68286 9.94458 5.00987 9.11738 5.00987Z" fill="#1C2D6B"/>
<path d="M20.3081 19.6483C18.6964 17.9979 17.5606 15.3534 17.7712 13.7418C17.8407 13.2101 18.0487 12.8585 18.3532 12.6836C17.665 13.0801 17.0682 13.6563 16.6425 14.3936C15.3521 16.6286 16.1178 19.4867 18.353 20.7771C19.8368 21.6339 21.5947 21.5833 22.9867 20.7993C22.3647 21.1167 21.3653 20.7309 20.3081 19.6483Z" fill="#EF7F72"/>
<path d="M23.0243 12.683C21.5405 11.8264 19.7826 11.8768 18.3906 12.6608C19.0125 12.3433 20.0119 12.7293 21.0691 13.8118C22.6807 15.4621 23.8166 18.1066 23.606 19.7182C23.5365 20.2499 23.3285 20.6016 23.024 20.7766C23.7122 20.3801 24.309 19.8039 24.7347 19.0666C26.0252 16.8315 25.2594 13.9734 23.0243 12.683Z" fill="#E8383B"/>
<path d="M18.3516 12.6839C18.3646 12.6763 18.3776 12.6686 18.3907 12.6611C18.3773 12.6681 18.3646 12.6764 18.3516 12.6839Z" fill="#E95947"/>
<path d="M23.0235 20.7773C23.0104 20.7849 22.9975 20.7927 22.9844 20.8C22.9978 20.7932 23.0104 20.7849 23.0235 20.7773Z" fill="#E95947"/>
<path d="M23.6077 19.7177C23.8184 18.1061 22.6826 15.4616 21.0709 13.8113C20.0137 12.7287 19.0143 12.3428 18.3924 12.6603C18.3793 12.6677 18.3664 12.6755 18.3532 12.6831C18.0487 12.8579 17.8408 13.2097 17.7712 13.7413C17.5606 15.3529 18.6963 17.9974 20.3081 19.6477C21.3653 20.7303 22.3647 21.1162 22.9866 20.7988C22.9997 20.7914 23.0126 20.7836 23.0257 20.7762C23.3302 20.601 23.5382 20.2494 23.6077 19.7177Z" fill="#E95947"/>
<path d="M20.6961 21.7856C18.9474 21.7856 17.2445 20.8789 16.3091 19.2586C14.9153 16.8442 15.7455 13.746 18.1597 12.352C20.5741 10.9584 23.6722 11.7883 25.0663 14.2026C26.4602 16.6171 25.63 19.7152 23.2157 21.1092C22.4214 21.5676 21.5532 21.7856 20.6961 21.7856ZM20.6804 12.4412C19.9529 12.4412 19.2164 12.626 18.5424 13.0151C16.4938 14.1979 15.7892 16.8271 16.9721 18.8758C18.1549 20.9244 20.7843 21.6288 22.8328 20.4461C24.8815 19.2634 25.586 16.6342 24.4031 14.5854C23.6093 13.2108 22.164 12.4412 20.6804 12.4412Z" fill="#1C2D6B"/>
<path d="M22.1706 19.2891C22.1645 19.2926 22.1585 19.2962 22.1523 19.2997C22.1586 19.2966 22.1645 19.2926 22.1706 19.2891Z" fill="#EEE045"/>
<path d="M19.2119 14.1717C19.218 14.1682 19.2241 14.1646 19.2302 14.1611C19.2238 14.1642 19.218 14.1682 19.2119 14.1717Z" fill="#EEE045"/>
<path d="M20.7081 18.4266C19.7715 17.3352 19.0042 15.6912 18.9943 14.7546C18.991 14.4456 19.071 14.253 19.2126 14.1719C18.7774 14.4226 18.3999 14.787 18.1308 15.2533C17.3147 16.6667 17.799 18.474 19.2125 19.2901C20.1531 19.8331 21.2679 19.7997 22.1492 19.3004C21.8569 19.4428 21.3223 19.1424 20.7081 18.4266Z" fill="#EDE49D"/>
<path d="M22.1672 14.1715C21.2266 13.6284 20.1117 13.6619 19.2305 14.1612C19.5227 14.0189 20.0572 14.3191 20.6715 15.035C21.6081 16.1263 22.3753 17.7703 22.3853 18.7069C22.3886 19.0159 22.3086 19.2085 22.167 19.2897C22.6022 19.039 22.9796 18.6745 23.2488 18.2083C24.065 16.7949 23.5806 14.9875 22.1672 14.1715Z" fill="#D3BA2A"/>
<path d="M22.3837 18.7071C22.3737 17.7705 21.6063 16.1266 20.6699 15.0352C20.0556 14.3193 19.5211 14.0191 19.2289 14.1614C19.2227 14.1649 19.2167 14.1685 19.2106 14.172C19.069 14.2533 18.989 14.4459 18.9923 14.7547C19.0022 15.6912 19.7696 17.3352 20.7061 18.4267C21.3203 19.1425 21.8548 19.4428 22.1471 19.3005C22.1532 19.297 22.1592 19.2934 22.1653 19.2899C22.307 19.2087 22.3869 19.0161 22.3837 18.7071Z" fill="#EEE045"/>
<path d="M20.6905 20.0683C19.536 20.0683 18.4117 19.4695 17.7942 18.3998C16.8739 16.8059 17.4221 14.7604 19.016 13.8401C20.6101 12.9198 22.6555 13.4679 23.5757 15.0619C24.496 16.6559 23.9478 18.7014 22.3539 19.6217C21.8296 19.9244 21.2564 20.0683 20.6905 20.0683ZM20.6806 14.159C20.2445 14.159 19.8029 14.2699 19.3987 14.5031C18.1704 15.2123 17.7479 16.7886 18.4572 18.017C19.1663 19.2453 20.7427 19.6676 21.9711 18.9585C23.1994 18.2493 23.6219 16.673 22.9126 15.4446C22.4368 14.6205 21.5702 14.159 20.6806 14.159Z" fill="#1C2D6B"/>
<path d="M24.7476 24.3489L22.7656 20.916C22.5247 21.0355 22.2777 21.1324 22.0273 21.2075L24.0676 24.7414C24.3655 25.2572 25.025 25.434 25.5408 25.1361C25.4005 25.2171 25.0453 24.8646 24.7476 24.3489Z" fill="#89AADB"/>
<path d="M25.9353 23.6628L23.895 20.1289C23.7048 20.3082 23.4974 20.4735 23.2734 20.6225L25.2554 24.0554C25.5533 24.5712 25.6809 25.0549 25.5407 25.1359C26.0564 24.8382 26.233 24.1786 25.9353 23.6628Z" fill="#4B67B0"/>
<path d="M23.2737 20.623C23.1927 20.6769 23.1099 20.7288 23.0245 20.7781C22.9391 20.8275 22.8527 20.8732 22.7656 20.9164L24.7476 24.3492C25.0454 24.8651 25.4006 25.2175 25.5408 25.1365C25.6811 25.0556 25.5534 24.5717 25.2555 24.056L23.2737 20.623Z" fill="#6287C5"/>
<path d="M25.0043 25.664C24.8773 25.664 24.7497 25.6473 24.6238 25.6136C24.2468 25.5125 23.9317 25.2707 23.7366 24.9326L21.6963 21.3987C21.6378 21.2973 21.6289 21.1748 21.672 21.0661C21.7151 20.9574 21.8057 20.8743 21.9177 20.8406C22.2389 20.7442 22.547 20.6114 22.8336 20.446C23.12 20.2807 23.389 20.0802 23.6332 19.8503C23.7183 19.7701 23.8354 19.7333 23.9514 19.7501C24.0671 19.7671 24.1687 19.8361 24.2272 19.9375L26.2675 23.4715C26.4626 23.8095 26.5145 24.2032 26.4134 24.5803C26.3123 24.9574 26.0706 25.2724 25.7325 25.4676C25.5075 25.5976 25.2575 25.664 25.0043 25.664ZM22.5897 21.4151L24.3996 24.5499C24.4926 24.7109 24.6425 24.826 24.8219 24.8741C25.0017 24.9221 25.1888 24.8976 25.3497 24.8045C25.6819 24.6128 25.7962 24.1866 25.6044 23.8543L23.7944 20.7195C23.6102 20.8631 23.417 20.9934 23.2163 21.1092C23.0156 21.2252 22.806 21.3274 22.5897 21.4151Z" fill="#1C2D6B"/>
</svg>
