<svg width="8" height="11" viewBox="0 0 8 11" fill="none" xmlns="http://www.w3.org/2000/svg">
<path d="M8 3.85C8 3.34441 7.89654 2.84377 7.69552 2.37667C7.4945 1.90957 7.19986 1.48514 6.82843 1.12764C6.45699 0.770133 6.01604 0.486544 5.53073 0.293064C5.04543 0.0995832 4.52529 0 4 0C3.47471 0 2.95457 0.0995832 2.46927 0.293064C1.98396 0.486544 1.54301 0.770133 1.17157 1.12764C0.800139 1.48514 0.505501 1.90957 0.304482 2.37667C0.103463 2.84377 -7.82739e-09 3.34441 0 3.85C0 4.61285 0.234286 5.32235 0.631429 5.92075H0.626857C1.97543 7.953 4 11 4 11L7.37314 5.92075H7.36914C7.78081 5.30275 7.99974 4.58411 8 3.85ZM4 5.5C3.54534 5.5 3.10931 5.32616 2.78782 5.01673C2.46633 4.70729 2.28571 4.28761 2.28571 3.85C2.28571 3.41239 2.46633 2.99271 2.78782 2.68327C3.10931 2.37384 3.54534 2.2 4 2.2C4.45466 2.2 4.89069 2.37384 5.21218 2.68327C5.53367 2.99271 5.71429 3.41239 5.71429 3.85C5.71429 4.28761 5.53367 4.70729 5.21218 5.01673C4.89069 5.32616 4.45466 5.5 4 5.5Z" fill="#7B53C1"/>
</svg>
