<svg width="110" height="126" viewBox="0 0 110 126" fill="none" xmlns="http://www.w3.org/2000/svg">
<path fill-rule="evenodd" clip-rule="evenodd" d="M0.390625 12.6C0.390625 9.25827 1.71812 6.05341 4.08108 3.69045C6.44404 1.3275 9.6489 0 12.9906 0L81.9294 0L109.591 27.6612V113.4C109.591 116.742 108.263 119.947 105.9 122.31C103.537 124.673 100.332 126 96.9906 126H12.9906C9.6489 126 6.44404 124.673 4.08108 122.31C1.71812 119.947 0.390625 116.742 0.390625 113.4V12.6ZM54.9906 50.4H42.3906V92.4H50.7906V75.6H54.9906C58.3324 75.6 61.5372 74.2725 63.9002 71.9095C66.2631 69.5466 67.5906 66.3417 67.5906 63C67.5906 59.6583 66.2631 56.4534 63.9002 54.0905C61.5372 51.7275 58.3324 50.4 54.9906 50.4ZM15.9642 51.6264C15.3768 51.0375 14.6278 50.6363 13.8121 50.4736C12.9964 50.3109 12.1507 50.3941 11.3823 50.7126C10.614 51.0311 9.95745 51.5706 9.49606 52.2627C9.03466 52.9547 8.78914 53.7682 8.79062 54.6V92.4H17.1906V64.7388L21.3906 68.9388L25.5906 64.7388V92.4H33.9906V54.6C33.9921 53.7682 33.7466 52.9547 33.2852 52.2627C32.8238 51.5706 32.1673 51.0311 31.3989 50.7126C30.6305 50.3941 29.7849 50.3109 28.9692 50.4736C28.1535 50.6363 27.4044 51.0375 26.817 51.6264L21.3906 57.0612L15.9642 51.6264ZM88.5906 58.8H75.9906V50.4H96.9906C97.7706 50.4 98.5352 50.6172 99.1987 51.0273C99.8622 51.4373 100.398 52.0241 100.747 52.7217C101.096 53.4193 101.244 54.2003 101.174 54.9772C101.104 55.754 100.819 56.496 100.351 57.12L92.3622 67.7712C95.2404 68.6686 97.7013 70.5683 99.2984 73.1253C100.895 75.6823 101.523 78.7273 101.066 81.7073C100.61 84.6874 99.1002 87.405 96.8112 89.367C94.5221 91.3289 91.6054 92.405 88.5906 92.4H75.9906V84H88.5906C89.7045 84 90.7728 83.5575 91.5605 82.7699C92.3481 81.9822 92.7906 80.9139 92.7906 79.8C92.7906 78.6861 92.3481 77.6178 91.5605 76.8301C90.7728 76.0425 89.7045 75.6 88.5906 75.6H84.3906C83.6106 75.6 82.846 75.3828 82.1825 74.9727C81.5191 74.5627 80.9828 73.9759 80.634 73.2783C80.2852 72.5807 80.1375 71.7997 80.2076 71.0228C80.2776 70.246 80.5626 69.504 81.0306 68.88L88.5906 58.8Z" fill="#E35757"/>
</svg>
