<svg width="101" height="127" viewBox="0 0 101 127" fill="none" xmlns="http://www.w3.org/2000/svg">
<path d="M26.9303 80.043C25.7688 80.043 24.986 80.1566 24.582 80.2702V87.7063C25.0618 87.82 25.6615 87.8515 26.4884 87.8515C29.5121 87.8515 31.3743 86.3239 31.3743 83.7421C31.3743 81.4317 29.7709 80.043 26.9303 80.043ZM48.942 80.1187C47.6795 80.1187 46.8588 80.2323 46.3728 80.346V96.8216C46.8588 96.9352 47.6416 96.9352 48.3486 96.9352C53.5059 96.9731 56.8642 94.1325 56.8642 88.123C56.902 82.8836 53.8405 80.1187 48.942 80.1187Z" fill="#E35757"/>
<path d="M63.125 0H12.625C9.27664 0 6.06542 1.33013 3.69778 3.69778C1.33013 6.06542 0 9.27664 0 12.625V113.625C0 116.973 1.33013 120.185 3.69778 122.552C6.06542 124.92 9.27664 126.25 12.625 126.25H88.375C91.7234 126.25 94.9346 124.92 97.3022 122.552C99.6699 120.185 101 116.973 101 113.625V37.875L63.125 0ZM34.7061 89.5744C32.7556 91.405 29.8771 92.2256 26.5251 92.2256C25.8752 92.2327 25.2256 92.1947 24.5809 92.112V101.114H18.9375V76.2676C21.4843 75.8877 24.0577 75.7146 26.6324 75.75C30.1485 75.75 32.6483 76.4191 34.3337 77.7637C35.9371 79.0388 37.0228 81.1283 37.0228 83.5901C37.0165 86.0646 36.1959 88.1541 34.7061 89.5744ZM58.7378 98.1278C56.0866 100.331 52.0529 101.379 47.1228 101.379C44.1686 101.379 42.0791 101.189 40.6588 101V76.2739C43.2065 75.9021 45.7791 75.7269 48.3537 75.75C53.1323 75.75 56.2381 76.6085 58.6621 78.4391C61.2817 80.3834 62.923 83.4828 62.923 87.9331C62.923 92.7496 61.1618 96.0763 58.7378 98.1278ZM82.0625 80.6106H72.3918V86.3613H81.4312V90.9947H72.3918V101.12H66.6726V75.9394H82.0625V80.6106ZM63.125 44.1875H56.8125V12.625L88.375 44.1875H63.125Z" fill="#E35757"/>
</svg>
