<svg width="40" height="35" viewBox="0 0 40 35" fill="none" xmlns="http://www.w3.org/2000/svg">
<path d="M21.6223 34.4425C22.7893 34.6665 23.9494 34.7795 25.072 34.7795C26.0855 34.7795 27.0856 34.6868 28.0509 34.5028C28.12 34.4888 29.7453 34.1518 30.7594 33.1447C30.9345 32.9918 31.7468 32.2226 31.8204 31.0626C31.8756 30.1894 31.5133 29.3384 30.7333 28.5229L24.8956 22.6845C24.8112 22.5995 24.0357 21.8582 22.856 21.8582C22.2036 21.8582 21.5696 22.0867 20.9376 22.5633C20.8887 22.6052 19.8759 23.4879 19.24 24.78C15.1208 23.4175 11.362 19.6543 10.0046 15.5299C11.2915 14.8934 12.173 13.8819 12.2384 13.8045C13.5203 12.098 12.7016 10.4905 12.0905 9.87878L6.24198 4.03025C5.49061 3.31251 4.69608 2.94824 3.88188 2.94824C2.62599 2.94824 1.79085 3.83098 1.6303 4.01502C0.623176 5.02912 0.286834 6.65371 0.270969 6.72923C-0.0672761 8.50866 -0.0888529 10.4068 0.206239 12.3721C1.74453 22.5734 11.3518 32.4739 21.6223 34.4425ZM1.51607 6.97419C1.59032 6.60611 1.91904 5.51586 2.54223 4.89839C2.55555 4.88443 2.57269 4.86602 2.58538 4.85079C2.59046 4.84445 3.12289 4.21809 3.88061 4.21809C4.35783 4.21809 4.85664 4.46368 5.35353 4.93837L11.1875 10.7729C11.2871 10.8764 12.1387 11.8219 11.249 13.008C11.2395 13.0194 10.2755 14.1186 9.00506 14.5793C8.80135 14.6529 8.65729 14.8344 8.61033 15.0464C8.58304 15.1682 8.59574 15.2964 8.64079 15.4119C10.0439 20.3682 14.4722 24.785 19.4278 26.164C19.7458 26.2516 20.0815 26.0803 20.1944 25.7687C20.6507 24.5103 21.7346 23.5514 21.7321 23.5514C22.1065 23.2702 22.4841 23.1275 22.8553 23.1275C23.5185 23.1275 23.997 23.5812 23.9976 23.5818L29.8259 29.4101C30.3374 29.9457 30.5817 30.4705 30.5538 30.9718C30.5138 31.687 29.9299 32.1846 29.9274 32.1865C29.9096 32.2004 29.8925 32.2163 29.876 32.2322C29.1392 32.9772 27.8123 33.2558 27.8072 33.257C25.9427 33.6112 23.9253 33.5908 21.8615 33.1949C12.0778 31.3196 2.92616 21.8931 1.46149 12.183C1.18607 10.3611 1.20574 8.60576 1.51607 6.97419Z" fill="black"/>
<path d="M24.712 13.2919C22.0606 11.1177 18.7454 10.037 15.8338 10.393C15.4861 10.4362 15.2386 10.7528 15.2824 11.1006C15.3249 11.4484 15.6396 11.6908 15.9899 11.6527C18.5525 11.3354 21.5186 12.314 23.9079 14.273C26.2395 16.1851 27.7746 18.8377 28.0151 21.3698C28.0462 21.6985 28.3223 21.9441 28.6459 21.9441C28.6656 21.9441 28.6859 21.9435 28.7068 21.9409C29.0559 21.9079 29.3116 21.5982 29.278 21.2492C29.0026 18.3465 27.338 15.4457 24.712 13.2919Z" fill="black"/>
<path d="M33.9302 22.0825C33.9537 22.0825 33.9778 22.0812 34.0019 22.078C34.3503 22.0387 34.6004 21.7245 34.561 21.3768C34.0762 17.0964 31.5771 12.8197 27.7047 9.64417C23.7169 6.37341 18.7257 4.73549 14.3672 5.26792C14.0188 5.30981 13.7713 5.62648 13.8132 5.97424C13.8557 6.322 14.1711 6.57077 14.5202 6.52762C18.5391 6.03834 23.1737 7.57028 26.9001 10.6259C30.5186 13.594 32.8514 17.5647 33.3001 21.5196C33.3375 21.8432 33.6117 22.0825 33.9302 22.0825Z" fill="black"/>
<path d="M30.5731 6.1476C25.2367 1.77135 18.7942 -0.442791 12.8879 0.0737781C12.5382 0.104239 12.2806 0.412023 12.311 0.761056C12.3421 1.11009 12.6626 1.37409 12.9983 1.33791C18.574 0.851171 24.6852 2.9606 29.7691 7.1287C34.8675 11.3101 38.1357 16.9073 38.7354 22.4849C38.7703 22.8111 39.0451 23.0522 39.3656 23.0522C39.3878 23.0522 39.4106 23.051 39.4335 23.0484C39.7825 23.011 40.0345 22.6981 39.997 22.3497C39.3624 16.4441 35.9273 10.5384 30.5731 6.1476Z" fill="black"/>
</svg>
