<svg width="18" height="19" viewBox="0 0 18 19" fill="none" xmlns="http://www.w3.org/2000/svg">
<path d="M0.930465 0.0709767C0.822846 0.0147172 0.70228 -0.00884413 0.582483 0.00297297C0.462686 0.0147901 0.348467 0.0615112 0.252817 0.137822C0.157168 0.214132 0.083929 0.316969 0.041431 0.434633C-0.00106702 0.552298 -0.0111179 0.680067 0.0124218 0.803407L1.81636 7.32136C1.85 7.44283 1.91575 7.55191 2.00604 7.63606C2.09634 7.72022 2.20752 7.77604 2.32682 7.7971L9.64287 9.07785C9.98746 9.14907 9.98746 9.66513 9.64287 9.73636L2.32682 11.0171C2.20752 11.0382 2.09634 11.094 2.00604 11.1781C1.91575 11.2623 1.85 11.3714 1.81636 11.4929L0.0124218 18.0108C-0.0111179 18.1341 -0.00106702 18.2619 0.041431 18.3796C0.083929 18.4972 0.157168 18.6001 0.252817 18.6764C0.348467 18.7527 0.462686 18.7994 0.582483 18.8112C0.70228 18.8231 0.822846 18.7995 0.930465 18.7432L17.6455 10.0078C17.7522 9.95197 17.8418 9.86619 17.9045 9.7601C17.9672 9.65401 18.0004 9.53179 18.0004 9.4071C18.0004 9.28242 17.9672 9.1602 17.9045 9.05411C17.8418 8.94802 17.7522 8.86224 17.6455 8.80638L0.930465 0.0709767Z" fill="#7B53C1"/>
</svg>
