<svg width="8" height="12" viewBox="0 0 8 12" fill="none" xmlns="http://www.w3.org/2000/svg">
<path d="M7.77118 5.97843L0.836913 1.03309C0.756888 0.976054 0.663241 0.942652 0.566111 0.936506C0.46898 0.93036 0.372068 0.951703 0.285868 0.998224C0.199667 1.04475 0.127465 1.11467 0.077076 1.20043C0.0266872 1.2862 3.34099e-05 1.38452 5.16927e-07 1.48477L1.3824e-06 11.3754C-6.29818e-05 11.4757 0.0265193 11.5741 0.076869 11.66C0.127219 11.7458 0.199415 11.8158 0.285633 11.8624C0.37185 11.909 0.468801 11.9304 0.565978 11.9243C0.663155 11.9181 0.756852 11.8847 0.836914 11.8277L7.77118 6.88233C7.84183 6.83154 7.89952 6.76393 7.93936 6.68525C7.9792 6.60656 8 6.51913 8 6.43038C8 6.34164 7.9792 6.25421 7.93936 6.17552C7.89952 6.09683 7.84183 6.02922 7.77118 5.97843Z" fill="#7B53C1"/>
</svg>
