<svg width="18" height="18" viewBox="0 0 18 18" fill="none" xmlns="http://www.w3.org/2000/svg">
<path d="M8.92151 8.5C7.79851 8.5 6.86421 8.14977 6.08944 7.45571C5.31658 6.76336 4.94767 5.95074 4.94767 4.99219C4.94767 4.03363 5.31658 3.22102 6.08944 2.52867C6.86421 1.8346 7.79851 1.48438 8.92151 1.48438C10.0445 1.48438 10.9788 1.8346 11.7536 2.52867C12.5264 3.22102 12.8953 4.03363 12.8953 4.99219C12.8953 5.95074 12.5264 6.76336 11.7536 7.45571C10.9788 8.14977 10.0445 8.5 8.92151 8.5ZM8.92151 11.5156C9.97851 11.5156 11.1553 11.651 12.4544 11.9266C13.7313 12.1975 14.893 12.6402 15.9429 13.2523C16.9807 13.8573 17.343 14.4514 17.343 15V16.5156H0.5V15C0.5 14.4514 0.862308 13.8573 1.90008 13.2523C2.95001 12.6402 4.11174 12.1975 5.38866 11.9266C6.68768 11.651 7.86451 11.5156 8.92151 11.5156Z" fill="#E35757" stroke="black"/>
</svg>
