<svg width="11" height="8" viewBox="0 0 11 8" fill="none" xmlns="http://www.w3.org/2000/svg">
<path d="M5.95237 7.77118L10.9023 0.836914C10.9594 0.756889 10.9928 0.663242 10.999 0.566111C11.0051 0.468981 10.9838 0.372069 10.9372 0.285868C10.8906 0.199668 10.8206 0.127465 10.7348 0.0770766C10.649 0.0266877 10.5505 3.39813e-05 10.4502 1.07829e-06L0.550356 9.60237e-07C0.44997 -6.38908e-05 0.35148 0.0265188 0.26556 0.0768685C0.179641 0.127218 0.109569 0.199414 0.0629378 0.285632C0.0163072 0.37185 -0.00510339 0.468801 0.00102663 0.565978C0.00715665 0.663155 0.0405934 0.756852 0.0977131 0.836914L5.04763 7.77118C5.09847 7.84183 5.16614 7.89952 5.2449 7.93936C5.32366 7.9792 5.41117 8 5.5 8C5.58883 8 5.67634 7.9792 5.7551 7.93936C5.83386 7.89952 5.90153 7.84183 5.95237 7.77118Z" fill="white"/>
</svg>
