<svg width="93" height="121" viewBox="0 0 93 121" fill="none" xmlns="http://www.w3.org/2000/svg">
<g opacity="0.5">
<path d="M1.31535 120.66H2.19225V115.75H3.5076V114.924H0V115.75H1.31535V120.66Z" fill="#7B53C1"/>
<path d="M8.03683 120.659L8.67015 119.249H11.106L11.6906 120.659H12.6162L9.88806 114.582L7.0625 120.659H8.03683ZM9.93678 116.527L10.765 118.471H9.01116L9.93678 116.527Z" fill="#7B53C1"/>
<path d="M19.6824 115.653C20.3645 115.653 20.9491 115.944 21.3875 116.576L22.0208 115.993C21.6798 115.604 21.2901 115.264 20.9003 115.118C20.5106 114.923 20.0722 114.826 19.6337 114.826C18.8055 114.826 18.0748 115.118 17.4902 115.701C16.9056 116.285 16.6133 116.965 16.6133 117.84C16.6133 118.667 16.9056 119.347 17.4902 119.931C18.0748 120.514 18.7568 120.806 19.5363 120.806C20.3645 120.806 21.0465 120.514 21.5824 119.931C21.826 119.688 21.9721 119.396 22.0695 119.056C22.167 118.715 22.2157 118.326 22.2157 117.889V117.694H19.8286V118.521H21.2414C21.1926 118.91 20.9978 119.25 20.6568 119.542C20.3157 119.833 19.926 119.979 19.4876 119.979C19.0004 119.979 18.5132 119.785 18.0748 119.396C17.6363 118.958 17.3927 118.472 17.3927 117.84C17.3927 117.208 17.5876 116.722 18.0261 116.285C18.5619 115.847 19.0978 115.653 19.6824 115.653Z" fill="#7B53C1"/>
<path d="M27.3789 114.924V120.66H29.9609V119.834H28.2558V114.924H27.3789Z" fill="#7B53C1"/>
<path d="M35.4667 114.924H34.5898V120.66H35.4667V114.924Z" fill="#7B53C1"/>
<path d="M40.6289 120.66H41.5058V116.626L45.6954 121.001V114.924H44.8185V118.91L40.6289 114.535V120.66Z" fill="#7B53C1"/>
<path d="M50.9102 120.66H54.0767V119.834H51.7383V117.938H53.9793V117.111H51.7383V115.75H54.0767V114.924H50.9102V120.66Z" fill="#7B53C1"/>
<path d="M67.2794 117.16H64.7949V114.924H63.918V120.66H64.7949V117.987H67.2794V120.66H68.1563V114.924H67.2794V117.16Z" fill="#7B53C1"/>
<path d="M76.4869 115.75V114.924H73.3203V120.66H76.4869V119.834H74.1972V117.938H76.4382V117.111H74.1972V115.75H76.4869Z" fill="#7B53C1"/>
<path d="M82.2831 118.327H82.4293L84.0857 120.66H85.1574L83.3549 118.229C83.7446 118.132 84.0369 117.938 84.2805 117.646C84.5241 117.354 84.6215 117.014 84.6215 116.576C84.6215 116.042 84.4267 115.653 84.0857 115.313C83.7446 115.021 83.2088 114.875 82.4293 114.875H81.4062V120.611H82.2831V118.327ZM82.2831 115.75H82.5754C83.3549 115.75 83.7934 116.042 83.7934 116.625C83.7934 117.257 83.4036 117.549 82.5754 117.549H82.2831V115.75Z" fill="#7B53C1"/>
<path d="M92.9986 115.75V114.924H89.832V120.66H92.9986V119.834H90.7089V117.938H92.9499V117.111H90.7089V115.75H92.9986Z" fill="#7B53C1"/>
<path d="M19.1953 53.2808L57.2917 15.2162V0L19.1953 38.0647V53.2808Z" fill="white"/>
<path d="M19.1953 86.3386L57.2917 48.2739V35.9746L19.1953 74.0393V86.3386Z" fill="white"/>
<path d="M35.7109 53.2798L73.8561 15.2151V2.42969L35.7109 40.4944V53.2798Z" fill="#7B53C1"/>
<path d="M73.8561 35.4883L35.7109 73.553V86.3384L73.8561 48.2737V35.4883Z" fill="#7B53C1"/>
<path d="M1.55915 107.63C2.04632 108.116 2.63092 108.457 3.31295 108.748C3.99499 108.992 4.72573 109.137 5.55392 109.137C6.33338 109.137 7.06413 108.992 7.74616 108.7C8.4282 108.408 9.01279 107.922 9.45124 107.29L7.94103 106.221C7.60001 106.658 7.21028 106.998 6.82055 107.193C6.43082 107.387 5.99237 107.484 5.60263 107.484C5.06675 107.484 4.57958 107.387 4.14113 107.193C3.70269 106.998 3.31295 106.707 3.02065 106.366C2.72835 106.026 2.48477 105.637 2.2899 105.151C2.09504 104.665 2.04632 104.179 2.04632 103.595C2.04632 103.061 2.14375 102.574 2.2899 102.137C2.48477 101.699 2.72835 101.311 3.02065 100.97C3.31295 100.63 3.70269 100.387 4.14113 100.192C4.57958 99.9979 5.06675 99.9007 5.60263 99.9007C5.94365 99.9007 6.33338 99.9493 6.6744 100.095C7.01541 100.241 7.40515 100.484 7.79488 100.922L9.25638 99.8521C8.7205 99.2687 8.18461 98.8312 7.5513 98.5881C6.9667 98.3451 6.28467 98.1992 5.60263 98.1992C4.77445 98.1992 4.0437 98.3451 3.36167 98.5881C2.67964 98.8312 2.09504 99.2201 1.60787 99.7063C1.12071 100.192 0.730972 100.776 0.487389 101.456C0.195089 102.137 0.0976562 102.915 0.0976562 103.741C0.0976562 104.568 0.243806 105.297 0.487389 105.977C0.682256 106.561 1.07199 107.144 1.55915 107.63Z" fill="#7B53C1"/>
<path d="M14.6157 107.632C15.1029 108.118 15.6874 108.458 16.3695 108.75C17.0515 108.993 17.7823 109.139 18.6104 109.139C19.4386 109.139 20.1694 108.993 20.8514 108.701C21.5334 108.409 22.118 108.069 22.6052 107.583C23.0924 107.097 23.4821 106.513 23.7744 105.881C24.0667 105.201 24.1641 104.472 24.1641 103.645C24.1641 102.819 24.018 102.041 23.7744 101.36C23.4821 100.68 23.0924 100.096 22.6052 99.6103C22.118 99.1242 21.5334 98.7839 20.8514 98.4922C20.1694 98.2491 19.4386 98.1033 18.6104 98.1519C17.7823 98.1519 17.0515 98.2977 16.3695 98.5408C15.6874 98.7839 15.1029 99.1728 14.6157 99.6589C14.1285 100.145 13.7388 100.728 13.4952 101.409C13.2029 102.09 13.1055 102.867 13.1055 103.694C13.1055 104.52 13.2516 105.25 13.4952 105.93C13.7388 106.562 14.1285 107.145 14.6157 107.632ZM15.2977 102.09C15.4926 101.652 15.7362 101.263 16.0285 100.923C16.3208 100.583 16.7105 100.34 17.1489 100.145C17.5874 99.9506 18.0746 99.8534 18.6104 99.8534C19.1463 99.8534 19.6335 99.9506 20.0719 100.145C20.5104 100.34 20.9001 100.583 21.1924 100.923C21.4847 101.263 21.7283 101.652 21.9232 102.09C22.118 102.527 22.1668 103.013 22.1668 103.548C22.1668 104.131 22.0693 104.618 21.9232 105.104C21.7283 105.59 21.4847 105.979 21.1924 106.319C20.9001 106.659 20.5104 106.951 20.0719 107.145C19.6335 107.34 19.1463 107.437 18.6104 107.437C18.0746 107.437 17.5874 107.34 17.1489 107.145C16.7105 106.951 16.3208 106.659 16.0285 106.319C15.7362 105.979 15.4926 105.59 15.2977 105.104C15.1028 104.618 15.0541 104.131 15.0541 103.548C15.0054 103.013 15.1028 102.527 15.2977 102.09Z" fill="#7B53C1"/>
<path d="M31.7631 98.3945H28.9375V108.847H30.6913V100.193H30.74L33.9066 108.847H35.1732L38.3398 100.193H38.3885V108.847H40.1423V98.3945H37.3655L34.5399 105.735L31.7631 98.3945Z" fill="#7B53C1"/>
<path d="M47.3512 104.52H48.6666C49.2025 104.52 49.7383 104.471 50.2742 104.423C50.7614 104.326 51.2486 104.18 51.5896 103.985C51.9793 103.742 52.2716 103.451 52.5152 103.062C52.7588 102.673 52.8562 102.138 52.8562 101.457C52.8562 100.874 52.7588 100.388 52.5152 99.999C52.3203 99.6101 52.028 99.3184 51.687 99.0753C51.346 98.8323 50.9075 98.6864 50.4691 98.5892C49.9819 98.492 49.4948 98.4434 49.0076 98.4434H45.5V108.847H47.3512V104.52ZM47.3512 99.999H48.6666C48.9102 99.999 49.1537 99.999 49.446 100.048C49.6896 100.096 49.9332 100.145 50.1768 100.242C50.3717 100.339 50.5665 100.485 50.7127 100.68C50.8588 100.874 50.9075 101.117 50.9075 101.457C50.9075 101.798 50.8101 102.089 50.664 102.284C50.5178 102.478 50.3229 102.624 50.0794 102.721C49.8358 102.819 49.5922 102.867 49.2999 102.916C49.0076 102.916 48.7153 102.964 48.4717 102.964H47.3512V99.999Z" fill="#7B53C1"/>
<path d="M58.2178 106.465H62.7485L63.7228 108.847H65.8663L61.3844 98.4434H59.7767L55.2461 108.847H57.3409L58.2178 106.465ZM60.5075 100.631L62.1151 104.86H58.8511L60.5075 100.631Z" fill="#7B53C1"/>
<path d="M69.957 98.3945V108.847H71.8083V100.825H71.857L77.0209 108.847H79.3593V98.3945H77.5081V106.173L72.4416 98.3945H69.957Z" fill="#7B53C1"/>
<path d="M87.202 108.847H89.0532V104.374L92.9993 98.3945H90.7583L88.1763 102.575L85.5944 98.3945H83.3047L87.202 104.374V108.847Z" fill="#7B53C1"/>
</g>
</svg>
