<svg width="104" height="120" viewBox="0 0 104 120" fill="none" xmlns="http://www.w3.org/2000/svg">
<g opacity="0.5">
<path d="M1.28197 118.84H1.97637V114.872H3.20493V114.229H0V114.872H1.28197V118.84Z" fill="#7B53C1"/>
<path d="M11.8039 118.84H12.5517L10.8958 114.229H10.3082L8.65234 118.84H9.40016L9.77407 117.821H11.5368L11.8039 118.84ZM9.8809 117.178L10.5753 115.14L11.2697 117.178H9.8809Z" fill="#7B53C1"/>
<path d="M19.5487 115.246C19.6021 115.139 19.7089 115.086 19.8158 115.032C19.9226 114.978 20.0828 114.925 20.2431 114.925C20.4568 114.925 20.6704 114.978 20.8307 115.139C20.9909 115.246 21.0977 115.407 21.1512 115.622H21.899C21.8456 115.246 21.6319 114.925 21.3648 114.657C21.0977 114.388 20.7238 114.281 20.2965 114.281C19.9226 114.281 19.6555 114.388 19.3884 114.549C19.1214 114.71 18.9611 114.925 18.8543 115.139C18.8009 115.246 18.7475 115.407 18.694 115.568C18.6406 115.729 18.6406 116.104 18.6406 116.641C18.6406 117.177 18.6406 117.552 18.694 117.713C18.694 117.82 18.7475 117.874 18.7475 117.981C18.8009 118.035 18.8009 118.088 18.8543 118.195C18.9611 118.41 19.1214 118.624 19.3884 118.785C19.6555 118.946 19.9226 119.053 20.2965 119.053C20.7772 119.053 21.1512 118.893 21.4716 118.571C21.7921 118.249 21.9524 117.874 21.9524 117.391V116.319H20.2965V116.962H21.258V117.23C21.258 117.498 21.1512 117.767 20.9909 117.927C20.8307 118.088 20.5636 118.195 20.2965 118.195C20.1363 118.195 19.976 118.142 19.8692 118.088C19.7623 118.035 19.6555 117.927 19.6021 117.874C19.4953 117.767 19.4419 117.659 19.4419 117.498C19.3884 117.338 19.3884 117.016 19.3884 116.587C19.3884 116.104 19.3884 115.836 19.4419 115.675C19.3884 115.461 19.4419 115.3 19.5487 115.246Z" fill="#7B53C1"/>
<path d="M29.0039 114.229V118.84H31.9952V118.196H29.7517V114.229H29.0039Z" fill="#7B53C1"/>
<path d="M39.1553 114.229H38.4609V118.84H39.1553V114.229Z" fill="#7B53C1"/>
<path d="M45.9922 114.229V118.84H46.6866V115.569L48.7698 118.84H49.4642V114.229H48.7698V117.499H48.7164L46.6332 114.229H45.9922Z" fill="#7B53C1"/>
<path d="M59.2374 114.872V114.229H56.2461V118.84H59.2374V118.196H56.9405V116.856H58.8635V116.212H56.9405V114.872H59.2374Z" fill="#7B53C1"/>
<path d="M74.9419 118.84V114.229H74.2475V116.212H72.378V114.229H71.6836V118.84H72.378V116.856H74.2475V118.84H74.9419Z" fill="#7B53C1"/>
<path d="M84.7178 114.872V114.229H81.7266V118.84H84.7178V118.196H82.421V116.856H84.3439V116.212H82.421V114.872H84.7178Z" fill="#7B53C1"/>
<path d="M91.8741 116.856H92.7822L93.7436 118.84H94.5983L93.53 116.802C94.1175 116.588 94.438 116.159 94.438 115.515C94.438 115.086 94.2778 114.765 93.9573 114.55C93.6902 114.336 93.4231 114.229 92.9958 114.229H91.1797V118.84H91.8741V116.856ZM91.8741 114.872H92.9958C93.2095 114.872 93.3697 114.926 93.53 115.033C93.6902 115.14 93.7436 115.301 93.7436 115.569C93.7436 115.783 93.6902 115.944 93.53 116.052C93.4231 116.212 93.2095 116.266 92.9424 116.266H91.8741V114.872Z" fill="#7B53C1"/>
<path d="M103.946 114.872V114.229H101.008V118.84H103.946V118.196H101.702V116.856H103.625V116.212H101.702V114.872H103.946Z" fill="#7B53C1"/>
<path d="M4.86081 108.759C5.92912 108.759 6.83718 108.491 7.69183 107.901C8.49307 107.365 9.08064 106.56 9.40113 105.542H6.62352C6.24961 106.239 5.66204 106.614 4.86081 106.614C4.05958 106.614 3.41859 106.346 2.99127 105.863C2.51053 105.381 2.29687 104.684 2.29687 103.879C2.29687 103.021 2.51053 102.378 2.99127 101.895C3.47201 101.413 4.05958 101.145 4.86081 101.145C5.66204 101.145 6.24961 101.52 6.62352 102.217H9.40113C9.08064 101.198 8.49307 100.448 7.69183 99.8579C6.8906 99.3217 5.92912 99 4.86081 99C3.47201 99 2.35028 99.4826 1.3888 100.394C0.480739 101.306 0 102.432 0 103.879C0 105.327 0.48074 106.453 1.44222 107.365C2.35028 108.276 3.52542 108.759 4.86081 108.759Z" fill="#7B53C1"/>
<path d="M25.5329 103.879C25.5329 102.485 25.0521 101.306 24.144 100.394C23.1826 99.4826 22.0608 99 20.672 99C19.2832 99 18.1615 99.4826 17.2 100.394C16.2386 101.306 15.7578 102.485 15.7578 103.879C15.7578 105.273 16.2386 106.453 17.2 107.418C18.1615 108.33 19.2832 108.812 20.672 108.812C22.0608 108.812 23.1826 108.33 24.144 107.418C25.1055 106.453 25.5329 105.273 25.5329 103.879ZM22.4882 105.863C22.0074 106.346 21.4199 106.614 20.672 106.614C19.9242 106.614 19.2832 106.346 18.8559 105.863C18.3752 105.381 18.1615 104.684 18.1615 103.879C18.1615 103.021 18.3752 102.378 18.8559 101.895C19.3367 101.413 19.9242 101.145 20.672 101.145C21.4199 101.145 22.0608 101.413 22.4882 101.895C22.9689 102.378 23.1826 103.075 23.1826 103.879C23.1826 104.684 22.9689 105.381 22.4882 105.863Z" fill="#7B53C1"/>
<path d="M43.2665 99.1074H40.5957L37.8715 105.703L35.1473 99.1074H32.4766V108.652H34.7734V103.29L37.0169 108.652H38.7262L40.9162 103.29V108.652H43.2665V99.1074Z" fill="#7B53C1"/>
<path d="M53.043 104.952H54.4852C55.1262 104.952 55.7137 104.845 56.1945 104.684C56.6752 104.469 57.0491 104.255 57.2628 103.933C57.7435 103.343 57.9572 102.7 57.9572 102.056C57.9572 101.252 57.6367 100.555 57.0491 99.9653C56.4081 99.3755 55.5535 99.1074 54.4852 99.1074H50.7461V108.652H53.043V104.952ZM53.043 100.877H54.4852C54.8057 100.877 55.1262 100.984 55.2864 101.199C55.5001 101.413 55.6069 101.681 55.6069 102.056C55.6069 102.378 55.5001 102.646 55.2864 102.861C55.0728 103.075 54.8057 103.182 54.4318 103.182H52.9895V100.877H53.043Z" fill="#7B53C1"/>
<path d="M67.1985 99.1074L63.8867 108.705H66.3438L66.878 107.097H70.2966L70.8307 108.705H73.2879L69.9761 99.1074H67.1985ZM67.4656 105.274L68.5873 101.842L69.709 105.274H67.4656Z" fill="#7B53C1"/>
<path d="M88.4032 108.652V99.1074H86.1063V105.113L82.207 99.1074H79.9102V108.652H82.207V102.646L86.1063 108.652H88.4032Z" fill="#7B53C1"/>
<path d="M98.3899 105.595V108.652H100.687V105.595L103.999 99.1074H101.328L99.5116 103.451L97.6955 99.1074H95.0781L98.3899 105.595Z" fill="#7B53C1"/>
</g>
<g opacity="0.5">
<path d="M58.3287 11.582C59.7709 13.6196 60.9995 15.9252 61.8007 18.3381C62.869 18.4989 63.8839 18.6598 64.9522 18.9279C65.1125 18.9815 65.2727 19.0351 65.4864 19.0351C65.5398 19.0351 65.5932 19.0351 65.5932 19.0887C65.8069 19.1424 66.0206 19.196 66.2342 19.2496C66.4479 19.3032 66.6615 19.3568 66.8752 19.4104C67.0355 19.4641 67.2491 19.5177 67.4094 19.5713C67.5696 19.6249 67.7833 19.6785 67.9435 19.7858C68.1038 19.8394 68.264 19.893 68.4777 19.9466C68.6379 20.0003 68.7982 20.0539 68.9584 20.1611C69.9733 20.5365 70.9348 20.9654 71.8428 21.448C72.0565 21.5552 72.2702 21.6625 72.4838 21.8233C72.8577 22.0378 73.2317 22.2523 73.6056 22.4668C73.7658 22.574 73.9261 22.6812 74.0863 22.7348C74.1397 22.7885 74.2466 22.8421 74.3 22.8957C74.4602 23.0029 74.6205 23.1102 74.7807 23.2174C74.941 23.3247 75.1012 23.4319 75.2614 23.5391C77.0776 24.7724 78.68 26.1665 80.1757 27.7751C80.3359 27.9359 80.4962 28.1504 80.7098 28.3113C80.8701 28.4721 80.9769 28.633 81.1371 28.7938C81.3508 29.0619 81.5645 29.2764 81.7781 29.5445C81.885 29.7054 82.0452 29.8662 82.152 30.0271C82.3123 30.2415 82.4725 30.456 82.6328 30.6705C82.793 30.885 82.9533 31.0995 83.0601 31.2603C83.2204 31.4748 83.3272 31.6893 83.4874 31.9037C83.7545 32.3327 84.0216 32.7617 84.2887 33.1906C84.4489 33.4051 84.5557 33.6196 84.6626 33.834C84.7694 34.0485 84.9296 34.263 85.0365 34.4775C85.3036 34.96 85.5172 35.4426 85.7843 35.9252C85.8911 36.1397 85.9445 36.3005 86.0514 36.515C86.1582 36.7295 86.2116 36.8903 86.3185 37.1048C86.3719 37.2657 86.4787 37.4265 86.5321 37.641C86.5855 37.8019 86.6389 37.9627 86.7458 38.1236C86.906 38.5525 87.0663 38.9279 87.1731 39.3568C87.2799 39.6249 87.3334 39.8394 87.3868 40.1075C87.3868 40.1075 87.3868 40.1075 87.3868 40.1611C87.4402 40.3756 87.547 40.6437 87.6004 40.8582C87.8141 41.5552 87.9743 42.1987 88.0812 42.8957C88.1346 43.0566 88.1346 43.271 88.188 43.4319C88.188 43.5391 88.2414 43.6464 88.2414 43.7536C88.2414 43.9145 88.2948 44.0217 88.2948 44.1826C88.3483 44.397 88.3482 44.5579 88.4017 44.7724C88.4551 44.9869 88.4551 45.1477 88.5085 45.3622C88.5085 45.4694 88.5085 45.523 88.5619 45.6303C88.5619 45.7911 88.6153 45.8984 88.6153 46.0592C88.6153 46.2201 88.6687 46.3273 88.6687 46.4882C88.6687 46.7027 88.7222 46.9172 88.7222 47.1316C88.7222 47.3997 88.7756 47.6142 88.7756 47.8823C88.7756 48.1504 88.829 48.4185 88.829 48.6866C88.829 48.9547 88.829 49.2228 88.829 49.4909C88.829 66.6491 74.8875 80.6437 57.7946 80.6437C57.5275 80.6437 57.2604 80.6437 56.9933 80.6437C56.7263 80.6437 56.4592 80.6437 56.1921 80.5901C55.925 80.5901 55.6579 80.5901 55.3909 80.5364H55.3375C55.0704 80.5364 54.8567 80.4828 54.5896 80.4828C54.376 80.4828 54.1623 80.4292 53.9487 80.4292C53.8418 80.4292 53.6816 80.3756 53.5747 80.3756C53.4145 80.3756 53.2008 80.322 53.0406 80.2683H52.9872C52.8269 80.2683 52.6133 80.2147 52.453 80.1611C52.2928 80.1075 52.1325 80.1075 51.9723 80.0539C51.7586 80.0003 51.545 79.9466 51.2779 79.893C50.0493 79.6249 48.8742 79.3032 47.699 78.9279C47.4854 78.8743 47.2183 78.767 47.0046 78.6598C46.791 78.5525 46.5773 78.4989 46.3636 78.3917C46.0432 78.2844 45.7761 78.1236 45.4556 78.0163C45.2953 77.9627 45.0817 77.8555 44.9214 77.7483C44.7078 77.641 44.4941 77.5874 44.3339 77.4802C44.0668 77.3729 43.8531 77.2121 43.586 77.1048C43.3724 76.9976 43.1587 76.8903 42.9451 76.7831C42.7314 76.6759 42.4643 76.515 42.2507 76.4078C42.037 76.3005 41.8233 76.1397 41.6097 76.0324C41.2358 75.818 40.8084 75.5499 40.4345 75.2818C40.3811 75.2818 40.3811 75.2281 40.3277 75.2281C40.114 75.0673 39.9004 74.96 39.7401 74.7992C39.5265 74.6383 39.3128 74.5311 39.1526 74.3702C38.9389 74.2094 38.7786 74.0485 38.565 73.8877C38.4047 73.7804 38.2445 73.6196 38.0842 73.5123C37.8172 73.2979 37.6035 73.0834 37.3364 72.8689C37.1762 72.708 37.0159 72.6008 36.8557 72.4399C36.6954 72.2791 36.4818 72.1182 36.3215 71.9037C36.1613 71.7429 35.9476 71.582 35.7874 71.3676C35.4669 71.0458 35.093 70.6705 34.7725 70.2952C34.6122 70.0807 34.3986 69.9198 34.2383 69.7054C33.9178 69.33 33.5973 68.9547 33.2768 68.5793C33.1166 68.3649 32.9029 68.0968 32.7427 67.8823C32.6359 67.7214 32.529 67.6142 32.4222 67.4533C32.3688 67.3997 32.3688 67.3461 32.3154 67.2925C32.2085 67.1316 32.0483 66.9172 31.9415 66.7563C31.8346 66.5954 31.7278 66.381 31.5675 66.2201C31.4073 65.952 31.2471 65.7375 31.0868 65.4694C30.8197 65.0405 30.6061 64.6115 30.339 64.1826C29.9117 63.3783 29.4843 62.5204 29.1104 61.6625C29.0036 61.448 28.9502 61.2335 28.8434 61.0726C28.8434 61.0726 28.8434 61.0726 28.8434 61.019C28.7899 60.8582 28.7365 60.6973 28.6831 60.5365C28.6297 60.3756 28.5763 60.2684 28.5229 60.1075C28.4694 59.9466 28.416 59.7858 28.3626 59.6785C28.3092 59.4641 28.2024 59.2496 28.149 59.0351C28.0955 58.8206 27.9887 58.6062 27.9353 58.3917V58.3381C27.8819 58.1236 27.8285 57.9091 27.775 57.6946C27.7216 57.4802 27.6682 57.2657 27.6148 56.9976C27.4546 56.3005 27.2943 55.6035 27.1875 54.9064C27.1341 54.692 27.0806 54.4239 27.0806 54.2094C27.0272 53.9949 27.0272 53.7268 26.9738 53.5123C24.6235 52.5472 22.3267 51.3139 20.2969 49.8662C20.6708 70.3488 37.283 86.8635 57.7946 86.8635C78.5198 86.8635 95.2923 70.0271 95.2923 49.2228C95.2923 28.5794 78.7869 11.8501 58.3287 11.582ZM26.9204 46.2737C26.9204 46.0592 26.9738 45.7911 26.9738 45.5767C26.9738 45.3622 27.0272 45.0941 27.0806 44.8796C27.1341 44.6651 27.1341 44.397 27.1875 44.1826C27.2409 43.9681 27.2409 43.7536 27.2943 43.4855C27.4546 42.574 27.6682 41.7161 27.9353 40.8046C27.9887 40.5901 28.0421 40.3756 28.149 40.1611C28.2024 40.0003 28.2558 39.8394 28.3092 39.6785C28.3092 39.6249 28.3626 39.5177 28.3626 39.4641C28.416 39.2496 28.4694 39.0887 28.5763 38.8743C28.6297 38.7134 28.6831 38.5525 28.7365 38.3917C28.7899 38.2844 28.7899 38.1772 28.8434 38.07C29.0036 37.6946 29.1104 37.3729 29.2707 36.9976C29.4309 36.5686 29.6446 36.1397 29.8048 35.7643C29.9117 35.5499 30.0185 35.389 30.0719 35.1745C30.1253 35.0673 30.1787 34.9064 30.2856 34.7992C30.339 34.6383 30.4458 34.5311 30.4992 34.3702C30.5527 34.3166 30.5527 34.263 30.6061 34.2094C30.7129 33.9949 30.8197 33.834 30.9266 33.6196C31.0334 33.4587 31.1402 33.2978 31.2471 33.0834C31.3539 32.9225 31.4073 32.7617 31.5141 32.6544C31.621 32.4936 31.6744 32.3863 31.7812 32.2255C32.1551 31.6893 32.529 31.0995 32.9029 30.6169C33.0098 30.456 33.17 30.2415 33.2768 30.0807C33.3837 29.9198 33.4905 29.8126 33.5973 29.7054C33.9178 29.33 34.2383 28.9011 34.5588 28.5257C34.7191 28.3649 34.8259 28.204 34.9861 28.0432C35.3066 27.7214 35.5737 27.3997 35.8942 27.078C36.001 26.9708 36.1613 26.8099 36.2681 26.7027C36.4818 26.4882 36.642 26.3273 36.8557 26.1129C37.0159 25.952 37.1762 25.8448 37.283 25.6839C37.5501 25.4158 37.8172 25.2013 38.1377 24.9869C38.2979 24.8796 38.4047 24.7724 38.565 24.6115C39.206 24.1289 39.847 23.6464 40.4879 23.1638C40.7016 23.0566 40.8619 22.8957 41.0755 22.7885C41.2358 22.6812 41.396 22.574 41.5563 22.5204C41.6631 22.4667 41.7699 22.3595 41.9302 22.3059C42.0904 22.1987 42.2507 22.0914 42.4643 21.9842C42.678 21.8769 42.8916 21.7161 43.1053 21.6088C43.319 21.5016 43.5326 21.3407 43.7463 21.2335C43.96 21.1263 44.1736 21.019 44.4407 20.9118H44.4941C44.868 20.6973 45.2953 20.5365 45.7227 20.3756C46.0432 20.2684 46.3102 20.1075 46.6307 20.0003C46.8444 19.893 47.0581 19.8394 47.2717 19.7858C47.432 19.7322 47.6456 19.6249 47.8059 19.5713C47.9127 19.5177 48.0195 19.5177 48.0729 19.4641C48.2866 19.4104 48.5003 19.3032 48.6605 19.2496C48.9276 19.196 49.1413 19.0887 49.4083 19.0351C49.6754 18.9815 49.8891 18.8743 50.1562 18.8206C50.3698 18.767 50.5835 18.7134 50.7971 18.6598C50.9574 18.6062 51.1176 18.6062 51.2779 18.5525C51.3313 18.5525 51.4381 18.4989 51.4915 18.4989C51.5984 18.4989 51.7586 18.4453 51.8654 18.4453C52.0791 18.3917 52.2928 18.3381 52.5064 18.3381C52.6667 18.2844 52.8269 18.2844 52.9872 18.2844C53.1474 18.2308 53.3077 18.2308 53.4679 18.2308C53.8952 18.1772 54.3226 18.1236 54.8033 18.07C53.735 15.818 52.2394 13.834 50.4232 12.1182C35.5737 15.0673 23.9291 26.8635 20.9913 41.7161C22.6472 43.7 24.6769 45.1477 26.9204 46.2737Z" fill="white"/>
<path d="M62.9238 22.4129C61.2679 22.0912 59.5586 21.9303 57.7959 21.9303C57.2617 21.9303 56.7276 21.9303 56.1934 21.9839C56.6742 23.7534 56.9412 25.5764 56.9412 27.4531C56.9412 38.9812 47.5935 48.3646 36.1092 48.3646C34.2396 48.3646 32.4235 48.0965 30.7142 47.6676C30.7142 48.2038 30.6608 48.6863 30.6608 49.2225C30.6608 50.992 30.8211 52.7614 31.1415 54.4772C32.744 54.7989 34.3999 54.9062 36.1092 54.9062C51.2258 54.9062 63.4579 42.6273 63.4579 27.4531C63.3511 25.7373 63.1909 24.0214 62.9238 22.4129ZM36.0558 0C20.9392 0 8.70703 12.2788 8.70703 27.4531C8.70703 34.9598 11.6983 41.7158 16.5591 46.6488C16.7194 43.6461 17.2535 40.7507 18.0013 37.9088C16.2386 34.8525 15.2237 31.2601 15.2237 27.4531C15.2237 15.9249 24.5714 6.54155 36.0558 6.54155C39.8483 6.54155 43.3737 7.56032 46.4184 9.32976C49.2494 8.52547 52.1338 8.0429 55.1251 7.82842C50.2109 2.94906 43.4805 0 36.0558 0Z" fill="#7B53C1"/>
</g>
</svg>
