<svg width="146" height="119" viewBox="0 0 146 119" fill="none" xmlns="http://www.w3.org/2000/svg">
<g opacity="0.5">
<path d="M16.8398 114.567H17.8964V118.669H18.6227V114.567H19.7453V113.84H16.8398V114.567Z" fill="white"/>
<path d="M25.9531 118.669H26.7455L27.2738 117.479H29.3208L29.8491 118.669H30.6415L28.3303 113.51L25.9531 118.669ZM27.604 116.817L28.3303 115.163L29.0567 116.817H27.604Z" fill="white"/>
<path d="M39.7554 114.437C40.3497 114.437 40.8119 114.701 41.2081 115.231L41.7364 114.701C41.4062 114.371 41.1421 114.106 40.8119 113.974C40.4817 113.842 40.1516 113.775 39.7554 113.775C39.029 113.775 38.4347 114.04 37.9725 114.503C37.5102 114.966 37.2461 115.561 37.2461 116.289C37.2461 116.95 37.5102 117.546 37.9725 118.075C38.4347 118.538 39.029 118.803 39.6893 118.803C40.3497 118.803 40.944 118.538 41.4062 118.075C41.6043 117.877 41.7364 117.612 41.8024 117.347C41.8684 117.083 41.9345 116.752 41.9345 116.355V116.223H39.9535V116.884H41.1421C41.076 117.215 40.944 117.546 40.6798 117.744C40.4157 118.009 40.0855 118.075 39.6893 118.075C39.2931 118.075 38.8969 117.943 38.5007 117.612C38.1045 117.281 37.9064 116.818 37.9064 116.289C37.9064 115.76 38.1045 115.363 38.4347 114.966C38.8309 114.635 39.2271 114.437 39.7554 114.437Z" fill="white"/>
<path d="M50.2539 113.84V118.669H52.367V118.007H50.9803V113.84H50.2539Z" fill="white"/>
<path d="M60.2225 113.84H59.4961V118.669H60.2225V113.84Z" fill="white"/>
<path d="M71.98 119V113.841H71.2537V117.214L67.7539 113.51V118.669H68.4803V115.296L71.98 119Z" fill="white"/>
<path d="M82.2116 114.567V113.84H79.5703V118.669H82.2116V118.007H80.2967V116.42H82.1456V115.692H80.2967V114.567H82.2116Z" fill="white"/>
<path d="M98.7221 118.669V113.84H97.9957V115.758H95.8826V113.84H95.1562V118.669H95.8826V116.42H97.9957V118.669H98.7221Z" fill="white"/>
<path d="M108.891 114.567V113.84H106.25V118.669H108.891V118.007H106.976V116.42H108.825V115.692H106.976V114.567H108.891Z" fill="white"/>
<path d="M118.993 115.295C118.993 114.832 118.86 114.502 118.53 114.237C118.266 113.972 117.804 113.906 117.144 113.906H116.285V118.735H117.012V116.751H117.144L118.53 118.735H119.389L117.87 116.684C118.2 116.618 118.464 116.486 118.662 116.221C118.86 115.891 118.993 115.626 118.993 115.295ZM117.21 116.089H116.945V114.568H117.21C117.87 114.568 118.2 114.832 118.2 115.295C118.266 115.825 117.936 116.089 117.21 116.089Z" fill="white"/>
<path d="M126.523 118.669H129.165V118.007H127.25V116.42H129.099V115.692H127.25V114.567H129.165V113.84H126.523V118.669Z" fill="white"/>
<path d="M11.2274 105.176C10.9632 105.507 10.6991 105.771 10.3689 106.036C10.0388 106.301 9.64257 106.433 9.24637 106.631C8.78414 106.764 8.3219 106.83 7.79363 106.83C7.1333 106.83 6.47297 106.697 5.9447 106.433C5.41643 106.168 4.88816 105.771 4.49196 105.308C4.09576 104.845 3.76559 104.25 3.56749 103.589C3.36939 102.927 3.23733 102.266 3.23733 101.472C3.23733 100.612 3.36939 99.8181 3.56749 99.0905C3.76559 98.3629 4.09576 97.7675 4.42593 97.3045C4.82213 96.8415 5.28436 96.4446 5.81263 96.2461C6.3409 95.9815 6.9352 95.8492 7.5295 95.8492C8.05777 95.8492 8.52 95.9815 8.98224 96.18C9.37844 96.3784 9.77464 96.7092 10.0388 97.106C10.3029 97.4368 10.567 97.8337 10.7651 98.3629C10.9632 98.8259 11.0953 99.2889 11.2274 99.752H12.0198L11.9537 95.4524H11.1613L10.7651 96.0477C10.3029 95.7831 9.77464 95.5846 9.24637 95.4524C8.7181 95.3201 8.1238 95.2539 7.46347 95.2539C6.539 95.2539 5.7466 95.3862 4.9542 95.7169C4.16179 96.0477 3.50146 96.4446 2.90716 97.0399C2.31286 97.6352 1.85062 98.2967 1.52046 99.0905C1.19029 99.8843 0.992188 100.744 0.992188 101.736C0.992188 102.729 1.19029 103.589 1.52046 104.316C1.85062 105.11 2.31286 105.705 2.90716 106.301C3.50146 106.83 4.16179 107.227 4.88816 107.557C5.61453 107.822 6.40693 107.954 7.19933 107.954C8.45397 107.954 9.5105 107.69 10.435 107.161C11.3594 106.631 12.0858 105.771 12.6141 104.581L11.8877 104.25C11.6236 104.515 11.4255 104.911 11.2274 105.176Z" fill="white"/>
<path d="M33.8784 104.117C34.2086 103.324 34.4067 102.464 34.4067 101.472C34.4067 100.545 34.2086 99.6194 33.8784 98.8918C33.5482 98.098 33.086 97.4365 32.4917 96.9073C31.8974 96.3782 31.2371 95.9151 30.4446 95.6505C29.6522 95.3198 28.7938 95.1875 27.9354 95.1875C27.0769 95.1875 26.2185 95.3198 25.4261 95.6505C24.6337 95.9151 23.9073 96.3782 23.313 96.9073C22.7187 97.4365 22.2565 98.1642 21.8603 98.8918C21.5301 99.6856 21.332 100.545 21.332 101.538C21.332 102.464 21.4641 103.258 21.7943 104.051C22.1244 104.845 22.5867 105.507 23.1149 106.036C23.7092 106.565 24.3696 107.028 25.162 107.359C25.9544 107.689 26.8128 107.822 27.8033 107.822C28.6617 107.822 29.5202 107.689 30.3126 107.359C31.105 107.094 31.7653 106.631 32.3596 106.102C33.086 105.573 33.5482 104.911 33.8784 104.117ZM31.8314 103.654C31.6993 104.316 31.4352 104.911 31.039 105.44C30.7088 105.97 30.2465 106.366 29.7183 106.631C29.19 106.896 28.5297 107.028 27.8693 107.028C27.143 107.028 26.5487 106.896 26.0204 106.631C25.4921 106.366 25.0959 105.97 24.6997 105.44C24.3696 104.911 24.1054 104.316 23.9073 103.654C23.7092 102.993 23.6432 102.265 23.6432 101.472C23.6432 100.744 23.7092 100.016 23.9073 99.3548C24.0394 98.6933 24.3035 98.098 24.6337 97.5688C24.9639 97.0396 25.4261 96.6428 25.9544 96.312C26.4826 95.9813 27.143 95.849 27.9354 95.849C28.5957 95.849 29.19 95.9813 29.7183 96.2459C30.2465 96.5105 30.7088 96.9073 31.039 97.3704C31.3691 97.8334 31.6333 98.4287 31.8314 99.1564C32.0295 99.8179 32.0955 100.612 32.0955 101.405C32.0955 102.265 32.0295 102.993 31.8314 103.654Z" fill="white"/>
<path d="M45.4998 105.77C45.4338 106.101 45.2357 106.366 45.0376 106.498C44.8395 106.63 44.6414 106.697 44.3112 106.763C43.981 106.829 43.7169 106.895 43.3867 106.895V107.49H48.8675V106.895C48.7354 106.895 48.4713 106.829 48.0091 106.697C47.5468 106.564 47.2827 106.498 47.1506 106.366C46.9525 106.234 46.8205 105.969 46.6884 105.572C46.6224 105.241 46.5563 104.646 46.5563 103.985V96.7744H46.6884L51.1126 107.292H51.5749L56.1972 96.9728H56.3293V105.837C56.3293 106.035 56.2632 106.234 56.1972 106.366C56.1312 106.498 55.9331 106.63 55.735 106.763C55.6029 106.829 55.4048 106.895 55.0086 106.895C54.6784 106.961 54.4143 106.961 54.1502 106.961V107.556H60.1592V106.961C59.9611 106.961 59.763 106.961 59.4329 106.895C59.1687 106.829 58.9046 106.763 58.8385 106.763C58.6404 106.63 58.5084 106.564 58.3763 106.432C58.3103 106.3 58.2442 106.101 58.2442 105.903V97.1713C58.2442 96.9728 58.3103 96.8405 58.3763 96.6421C58.4424 96.5098 58.5744 96.3775 58.8385 96.3114C58.9706 96.2452 59.1687 96.2452 59.4329 96.1791C59.697 96.1129 59.9611 96.1129 60.0932 96.1129V95.5176H55.6689C55.6689 95.6499 55.6029 95.8483 55.5369 96.1129C55.4708 96.3775 55.3388 96.7082 55.2067 96.9728L51.905 104.58L48.0091 95.5176H43.3867V96.1129C43.6509 96.1129 43.981 96.1791 44.2452 96.2452C44.5093 96.3114 44.7734 96.4437 44.9715 96.5759C45.1696 96.7082 45.3017 96.9067 45.3677 97.1051C45.4338 97.3036 45.4998 97.6343 45.4998 97.9651V104.117C45.6319 104.911 45.6319 105.44 45.4998 105.77Z" fill="white"/>
<path d="M79.8379 100.083C80.102 99.6204 80.2341 99.0251 80.2341 98.4298C80.2341 97.5037 79.8379 96.7761 79.0455 96.2469C78.2531 95.7177 77.2626 95.4531 76.0079 95.4531H69.8008V96.0485C69.9989 96.0485 70.197 96.0485 70.3951 96.1146C70.6592 96.1146 70.8573 96.1807 71.1214 96.2469C71.3856 96.313 71.5177 96.4453 71.5837 96.5776C71.6497 96.7099 71.6497 96.9084 71.6497 97.1068V105.838C71.6497 106.037 71.5837 106.235 71.5177 106.368C71.4516 106.5 71.3195 106.632 71.1214 106.698C70.9894 106.764 70.7913 106.764 70.5272 106.831C70.263 106.831 69.9989 106.897 69.8668 106.897V107.492H75.6778V106.897C75.4136 106.897 75.1495 106.897 74.8854 106.831C74.6212 106.764 74.4231 106.764 74.2911 106.698C74.093 106.632 73.8949 106.5 73.8288 106.368C73.7628 106.235 73.6968 106.037 73.6968 105.838V102.2H75.2155C75.8759 102.2 76.4702 102.134 77.0645 102.002C77.6588 101.869 78.187 101.605 78.6493 101.274C79.1775 100.943 79.5737 100.547 79.8379 100.083ZM77.7908 99.6204C77.7248 99.885 77.5927 100.216 77.3286 100.48C77.1305 100.745 76.8003 101.01 76.3381 101.208C75.8759 101.406 75.3476 101.473 74.6873 101.473H73.6968V96.1146H75.0174C75.5457 96.1146 76.0079 96.1808 76.4041 96.313C76.7343 96.4453 77.0645 96.6438 77.2626 96.9084C77.4607 97.173 77.5927 97.4376 77.7248 97.7683C77.7908 98.099 77.8569 98.4298 77.8569 98.7605C77.8569 99.0913 77.8569 99.3559 77.7908 99.6204Z" fill="white"/>
<path d="M102.289 106.896C102.156 106.896 101.958 106.83 101.694 106.83C101.43 106.764 101.298 106.697 101.1 106.631C100.902 106.499 100.704 106.367 100.572 106.234C100.44 106.102 100.374 105.904 100.241 105.705L95.7512 95.2539H94.9588C94.2985 96.7092 93.5721 98.429 92.7797 100.281C91.9873 102.199 91.1949 103.853 90.5346 105.375C90.4025 105.639 90.2704 105.904 90.1384 106.036C90.0063 106.234 89.8082 106.367 89.5441 106.499C89.412 106.565 89.2139 106.631 88.9498 106.697C88.6856 106.764 88.4875 106.764 88.3555 106.764V107.359H93.44V106.764C92.9118 106.764 92.5156 106.697 92.0533 106.565C91.6571 106.433 91.459 106.234 91.459 106.036C91.459 105.97 91.459 105.838 91.5251 105.639C91.5251 105.507 91.5911 105.308 91.7232 105.044C91.7892 104.779 91.9213 104.515 92.0533 104.25C92.1854 103.985 92.3175 103.589 92.5156 103.192H97.27L98.3926 105.904C98.3926 105.97 98.4586 106.036 98.4586 106.102C98.4586 106.168 98.4586 106.234 98.4586 106.301C98.4586 106.433 98.3265 106.499 97.9963 106.631C97.6662 106.697 97.27 106.764 96.7417 106.83V107.425H102.355V106.896H102.289ZM92.7137 102.596L94.7607 97.8998L96.8078 102.596H92.7137Z" fill="white"/>
<path d="M122.297 107.624V98.7605C122.297 98.1652 122.363 97.636 122.429 97.2391C122.495 96.8422 122.693 96.5776 122.891 96.4453C123.023 96.3792 123.288 96.2469 123.684 96.1807C124.08 96.1146 124.344 96.0485 124.476 96.0485V95.4531H118.995V96.0485C119.194 96.0485 119.524 96.1146 119.92 96.2469C120.316 96.3792 120.646 96.4453 120.778 96.5776C120.976 96.7099 121.109 96.9745 121.241 97.3053C121.373 97.7022 121.373 98.2313 121.373 98.959V104.714L113.779 95.5193H109.883V96.1146C110.147 96.1146 110.411 96.1808 110.807 96.313C111.203 96.4453 111.534 96.5776 111.732 96.7761C111.93 96.9084 112.062 97.1068 112.128 97.3714C112.26 97.636 112.26 97.9006 112.26 98.1652V104.118C112.26 104.912 112.194 105.441 112.128 105.772C112.062 106.103 111.864 106.368 111.666 106.5C111.534 106.566 111.336 106.698 110.873 106.764C110.477 106.897 110.147 106.897 110.015 106.963V107.558H115.562V106.963C115.43 106.963 115.099 106.897 114.637 106.764C114.175 106.632 113.845 106.566 113.713 106.434C113.515 106.301 113.383 106.037 113.251 105.64C113.184 105.243 113.118 104.714 113.118 104.052V97.8344L121.307 107.69H122.297V107.624Z" fill="white"/>
<path d="M140.324 95.4526V96.0479C140.523 96.0479 140.721 96.0479 140.919 96.1141C141.117 96.1141 141.315 96.1802 141.513 96.1802C141.711 96.2464 141.843 96.3125 141.975 96.3787C142.107 96.4448 142.107 96.5771 142.107 96.7094C142.107 96.8417 141.843 97.3709 141.315 98.1647C140.787 98.9584 140.06 100.083 139.004 101.538C138.476 100.744 138.079 100.083 137.815 99.5538C137.485 99.0246 137.221 98.5616 136.891 98.0324C136.759 97.8339 136.693 97.7016 136.561 97.5032C136.429 97.3047 136.362 97.1725 136.296 96.974C136.23 96.8417 136.164 96.7094 136.164 96.6433C136.098 96.5771 136.098 96.511 136.098 96.4448C136.098 96.3125 136.23 96.2464 136.495 96.1802C136.759 96.1141 137.221 96.0479 137.881 96.0479V95.4526H132.07V96.0479C132.268 96.0479 132.467 96.1141 132.665 96.1141C132.863 96.1802 133.061 96.2464 133.193 96.3125C133.391 96.4448 133.589 96.5771 133.721 96.7756C133.853 96.9079 134.051 97.1724 134.249 97.5032C134.58 98.0324 134.976 98.6938 135.438 99.4876C135.9 100.281 136.296 100.943 136.693 101.604C136.891 101.869 137.023 102.2 137.155 102.398C137.287 102.663 137.353 102.795 137.353 102.927V105.838C137.353 106.036 137.287 106.235 137.221 106.367C137.155 106.499 136.957 106.632 136.759 106.698C136.627 106.764 136.362 106.764 136.032 106.83C135.702 106.83 135.438 106.896 135.24 106.896V107.492H141.579V106.896C141.381 106.896 141.117 106.83 140.721 106.764C140.391 106.698 140.126 106.632 139.994 106.565C139.796 106.499 139.598 106.367 139.532 106.235C139.466 106.102 139.4 105.904 139.4 105.706V103.39C139.4 102.993 139.466 102.663 139.532 102.398C139.598 102.2 139.796 101.869 139.994 101.538C140.655 100.546 141.183 99.7522 141.579 99.0907C141.975 98.4293 142.438 97.8339 142.966 97.1724C143.23 96.8417 143.362 96.6433 143.494 96.5771C143.56 96.511 143.758 96.3787 144.022 96.2464C144.154 96.1802 144.286 96.1141 144.551 96.0479C144.815 95.9818 144.947 95.9156 145.079 95.9156V95.3203H140.324V95.4526Z" fill="white"/>
<path d="M146 25.2685H101.824H101.295L123.615 0H74.1556H67.2221H22.3193L44.7047 25.2685H0L24.7625 53.249L50.6477 82.4864L73.033 57.2179L95.4184 82.4864L119.785 55.035L146 25.2685ZM67.156 5.29183L50.6477 23.9455L34.0733 5.29183H67.156ZM134.246 30.5603L117.738 49.214L101.229 30.5603H134.246ZM50.6477 31.9494L67.09 50.537H34.2053L50.6477 31.9494ZM56.4586 30.5603H89.4753L72.967 49.214L56.4586 30.5603ZM95.3523 31.9494L111.795 50.537H78.91L95.3523 31.9494ZM56.5246 25.2685L72.967 6.68093L89.4093 25.2685H56.5246ZM95.3523 23.9455L78.844 5.29183H111.861L95.3523 23.9455ZM44.7707 30.5603L28.2623 49.214L11.754 30.5603H44.7707ZM67.156 55.7626L50.6477 74.4163L34.1393 55.7626H67.156ZM111.861 55.7626L95.3523 74.4163L78.844 55.7626H111.861Z" fill="#7B53C1"/>
</g>
</svg>
