<svg width="1204" height="1400" viewBox="0 0 1920 1842" fill="none" xmlns="http://www.w3.org/2000/svg">
<path d="M535.959 356.531C260.98 356.531 196.485 21.1753 -4 2.27128V21.1753C-4 14.8739 -3.60003 370.217 -2.00015 1842C95.4925 1836.33 94.9926 1775.84 250.481 1680.18C434.967 1600.88 595.955 1744.83 774.941 1744.83C988.425 1727.06 1011.92 1633.3 1186.91 1482.07C1359.9 1358.82 1491.89 1409.86 1659.38 1417.42C1771.26 1422.47 1857.64 1373.92 1920 1327.68L1920.5 19.4638C1870.66 14.3143 1822.27 -6.89729 1748.37 2.27128C1594.88 37.522 1618.38 99.0593 1455.39 112.292C1284.4 119.476 1219.91 50.6653 1146.41 66.9227C1053.42 56.7145 726.445 359.177 535.959 356.531Z" fill="white"/>
</svg>
