
        <svg width="1920" xmlns="http://www.w3.org/2000/svg" viewBox="0 0 1440 320">
            <path fill="#0D2644" fill-opacity="1" d="M0,32L40,48C80,64,160,96,240,96C320,96,400,64,480,80C560,96,640,160,720,186.7C800,213,880,203,960,176C1040,149,1120,107,1200,101.3C1280,96,1360,128,1400,144L1440,160L1440,320L1400,320C1360,320,1280,320,1200,320C1120,320,1040,320,960,320C880,320,800,320,720,320C640,320,560,320,480,320C400,320,320,320,240,320C160,320,80,320,40,320L0,320Z"></path>
          </svg>