
        <svg xmlns="http://www.w3.org/2000/svg" viewBox="0 0 1440 320">
            <path fill="#021D3B" fill-opacity="1"
                d="M0,64L40,101.3C80,139,160,213,240,245.3C320,277,400,267,480,224C560,181,640,107,720,64C800,21,880,11,960,42.7C1040,75,1120,149,1200,181.3C1280,213,1360,203,1400,197.3L1440,192L1440,320L1400,320C1360,320,1280,320,1200,320C1120,320,1040,320,960,320C880,320,800,320,720,320C640,320,560,320,480,320C400,320,320,320,240,320C160,320,80,320,40,320L0,320Z">
            </path>
        </svg>